{
copyright = "Copyright 2015 Google Inc. All Rights Reserved.";
customParameters = (
{
name = description;
value = "Designed by Monotype design team";
},
{
name = license;
value = "This Font Software is licensed under the SIL Open Font License, Version 1.1. This Font Software is distributed on an \"AS IS\" BASIS, WITHOUT WARRANTIES OR CONDITIONS OF ANY KIND, either express or implied. See the SIL Open Font License for the specific language, permissions and limitations governing your use of this Font Software.";
},
{
name = licenseURL;
value = "http://scripts.sil.org/OFL";
},
{
name = vendorID;
value = GOOG;
},
{
name = glyphOrder;
value = (
    ".notdef",
    NULL,
    CR,
    space,
    uni10A0,
    uni10A1,
    uni10A2,
    uni10A3,
    uni10A4,
    uni10A5,
    uni10A6,
    uni10A7,
    uni10A8,
    uni10A9,
    uni10AA,
    uni10AB,
    uni10AC,
    uni10AD,
    uni10AE,
    uni10AF,
    uni10B0,
    uni10B1,
    uni10B2,
    uni10B3,
    uni10B4,
    uni10B5,
    uni10B6,
    uni10B7,
    uni10B8,
    uni10B9,
    uni10BA,
    uni10BB,
    uni10BC,
    uni10BD,
    uni10BE,
    uni10BF,
    uni10C0,
    uni10C1,
    uni10C2,
    uni10C3,
    uni10C4,
    uni10C5,
    uni10D0,
    uni10D1,
    uni10D2,
    uni10D3,
    uni10D4,
    uni10D5,
    uni10D6,
    uni10D7,
    uni10D8,
    uni10D9,
    uni10DA,
    uni10DB,
    uni10DC,
    uni10DD,
    uni10DE,
    uni10DF,
    uni10E0,
    uni10E1,
    uni10E2,
    uni10E3,
    uni10E4,
    uni10E5,
    uni10E6,
    uni10E7,
    uni10E8,
    uni10E9,
    uni10EA,
    uni10EB,
    uni10EC,
    uni10ED,
    uni10EE,
    uni10EF,
    uni10F0,
    uni10F1,
    uni10F2,
    uni10F3,
    uni10F4,
    uni10F5,
    uni10F6,
    uni10F7,
    uni10F8,
    uni10F9,
    uni10FA,
    uni10FB,
    uni10FC,
    uni2D00,
    uni2D01,
    uni2D02,
    uni2D03,
    uni2D04,
    uni2D05,
    uni2D06,
    uni2D07,
    uni2D08,
    uni2D09,
    uni2D0A,
    uni2D0B,
    uni2D0C,
    uni2D0D,
    uni2D0E,
    uni2D0F,
    uni2D10,

glyphs = (
{
color = 5;
glyphname = .notdef;
lastChange = "2015-09-23 11:12:30 +0000";
layers = (
{
background = {
paths = (
{
closed = 1;
nodes = (
"449 0 LINE",
"449 714 LINE",
"50 714 LINE",
"50 0 LINE"
);
},
{
closed = 1;
nodes = (
"97 666 LINE",
"402 666 LINE",
"402 48 LINE",
"97 48 LINE"
);
}
);
};
layerId = "1D4F67F9-897D-45AD-B7F0-CA61A6862C03";
name = Light;
paths = (
{
closed = 1;
nodes = (
"449 0 LINE",
"449 714 LINE",
"50 714 LINE",
"50 0 LINE"
);
},
{
closed = 1;
nodes = (
"97 666 LINE",
"402 666 LINE",
"402 48 LINE",
"97 48 LINE"
);
}
);
width = 553;
},
{
background = {
paths = (
{
closed = 1;
nodes = (
"453 0 LINE",
"453 714 LINE",
"52 714 LINE",
"52 0 LINE"
);
},
{
closed = 1;
nodes = (
"101 666 LINE",
"404 666 LINE",
"404 48 LINE",
"101 48 LINE"
);
}
);
};
layerId = "101C8DBD-EDBB-4DB6-972E-FA2DBA854B69";
name = SemiBold;
paths = (
{
closed = 1;
nodes = (
"453 0 LINE",
"453 714 LINE",
"52 714 LINE",
"52 0 LINE"
);
},
{
closed = 1;
nodes = (
"101 666 LINE",
"404 666 LINE",
"404 48 LINE",
"101 48 LINE"
);
}
);
width = 600;
},
{
layerId = "5E7FF211-9823-4E5B-BC80-AC4B3CA4BC69";
name = Regular;
paths = (
{
closed = 1;
nodes = (
"450 0 LINE",
"450 714 LINE",
"50 714 LINE",
"50 0 LINE"
);
},
{
closed = 1;
nodes = (
"98 666 LINE",
"402 666 LINE",
"402 48 LINE",
"98 48 LINE"
);
}
);
width = 554;
},
{
layerId = "75A83886-EED5-4C31-9670-660514D8A4F6";
name = "Bold Condensed";
paths = (
{
closed = 1;
nodes = (
"449 0 LINE",
"449 714 LINE",
"50 714 LINE",
"50 0 LINE"
);
},
{
closed = 1;
nodes = (
"97 666 LINE",
"402 666 LINE",
"402 48 LINE",
"97 48 LINE"
);
}
);
width = 499;
},
{
layerId = "E7C4F5EE-4982-479C-BF20-1C8706EFFC5D";
name = Condensed;
paths = (
{
closed = 1;
nodes = (
"449 0 LINE",
"449 714 LINE",
"50 714 LINE",
"50 0 LINE"
);
},
{
closed = 1;
nodes = (
"97 666 LINE",
"402 666 LINE",
"402 48 LINE",
"97 48 LINE"
);
}
);
width = 499;
},
{
layerId = "5E7C5774-385D-4E06-B68E-CBE970134A7B";
name = SemiLight;
paths = (
{
closed = 1;
nodes = (
"449 0 LINE",
"449 714 LINE",
"50 714 LINE",
"50 0 LINE"
);
},
{
closed = 1;
nodes = (
"97 666 LINE",
"402 666 LINE",
"402 48 LINE",
"97 48 LINE"
);
}
);
width = 553;
},
{
layerId = "C91144B6-58F5-45F2-9CE4-7ED6CE127FD4";
name = "Light Condensed";
paths = (
{
closed = 1;
nodes = (
"449 0 LINE",
"449 714 LINE",
"50 714 LINE",
"50 0 LINE"
);
},
{
closed = 1;
nodes = (
"97 666 LINE",
"402 666 LINE",
"402 48 LINE",
"97 48 LINE"
);
}
);
width = 499;
}
);
note = .notdef;
},
{
color = 5;
glyphname = uni10A0;
lastChange = "2015-09-22 13:14:07 +0000";
layers = (
{
layerId = "5E7FF211-9823-4E5B-BC80-AC4B3CA4BC69";
name = Regular;
paths = (
{
closed = 1;
nodes = (
"580 -10 OFFCURVE",
"720 106 OFFCURVE",
"720 284 CURVE SMOOTH",
"720 360 OFFCURVE",
"688 411 OFFCURVE",
"609 412 CURVE",
"609 316 LINE SMOOTH",
"609 136 OFFCURVE",
"539 44 OFFCURVE",
"406 44 CURVE SMOOTH",
"267 44 OFFCURVE",
"202 132 OFFCURVE",
"202 325 CURVE SMOOTH",
"202 560 OFFCURVE",
"310 667 OFFCURVE",
"556 667 CURVE SMOOTH",
"603 667 OFFCURVE",
"626 646 OFFCURVE",
"634 594 CURVE",
"675 604 OFFCURVE",
"702 627 OFFCURVE",
"702 657 CURVE SMOOTH",
"702 702 OFFCURVE",
"669 724 OFFCURVE",
"604 724 CURVE SMOOTH",
"557 724 OFFCURVE",
"484 714 OFFCURVE",
"385 694 CURVE SMOOTH",
"309 679 OFFCURVE",
"249 672 OFFCURVE",
"205 672 CURVE SMOOTH",
"154 672 OFFCURVE",
"132 689 OFFCURVE",
"127 724 CURVE",
"81 713 OFFCURVE",
"58 695 OFFCURVE",
"58 670 CURVE SMOOTH",
"58 630 OFFCURVE",
"91 611 OFFCURVE",
"157 611 CURVE SMOOTH",
"188 611 OFFCURVE",
"234 616 OFFCURVE",
"274 623 CURVE",
"160 551 OFFCURVE",
"91 440 OFFCURVE",
"91 326 CURVE SMOOTH",
"91 110 OFFCURVE",
"204 -10 OFFCURVE",
"406 -10 CURVE SMOOTH"
);
}
);
width = 777;
},
{
layerId = "101C8DBD-EDBB-4DB6-972E-FA2DBA854B69";
name = SemiBold;
paths = (
{
closed = 1;
nodes = (
"600 -10 OFFCURVE",
"742 92 OFFCURVE",
"742 279 CURVE SMOOTH",
"742 370 OFFCURVE",
"680 420 OFFCURVE",
"574 420 CURVE",
"574 294 LINE SMOOTH",
"574 130 OFFCURVE",
"520 55 OFFCURVE",
"404 55 CURVE SMOOTH",
"292 55 OFFCURVE",
"233 135 OFFCURVE",
"233 295 CURVE SMOOTH",
"233 521 OFFCURVE",
"360 653 OFFCURVE",
"534 653 CURVE SMOOTH",
"609 653 OFFCURVE",
"635 612 OFFCURVE",
"635 543 CURVE",
"708 543 OFFCURVE",
"745 576 OFFCURVE",
"745 628 CURVE SMOOTH",
"745 685 OFFCURVE",
"696 724 OFFCURVE",
"628 724 CURVE SMOOTH",
"555 724 OFFCURVE",
"489 708 OFFCURVE",
"408 682 CURVE SMOOTH",
"321 654 OFFCURVE",
"271 637 OFFCURVE",
"217 637 CURVE SMOOTH",
"170 637 OFFCURVE",
"150 662 OFFCURVE",
"150 724 CURVE",
"77 724 OFFCURVE",
"40 696 OFFCURVE",
"40 649 CURVE SMOOTH",
"40 602 OFFCURVE",
"89 569 OFFCURVE",
"157 569 CURVE SMOOTH",
"173 569 OFFCURVE",
"188 569 OFFCURVE",
"203 571 CURVE",
"115 511 OFFCURVE",
"65 418 OFFCURVE",
"65 320 CURVE SMOOTH",
"65 111 OFFCURVE",
"187 -10 OFFCURVE",
"404 -10 CURVE SMOOTH"
);
}
);
width = 795;
},
{
background = {
components = (
{
name = O;
}
);
};
layerId = "5E7C5774-385D-4E06-B68E-CBE970134A7B";
name = SemiLight;
paths = (
{
closed = 1;
nodes = (
"506 -11 OFFCURVE",
"615 82 OFFCURVE",
"615 225 CURVE SMOOTH",
"615 291 OFFCURVE",
"583 320 OFFCURVE",
"544 320 CURVE",
"544 221 LINE SMOOTH",
"544 102 OFFCURVE",
"464 32 OFFCURVE",
"335 32 CURVE SMOOTH",
"192 32 OFFCURVE",
"125 104 OFFCURVE",
"125 297 CURVE SMOOTH",
"125 467 OFFCURVE",
"267 682 OFFCURVE",
"452 682 CURVE SMOOTH",
"498 682 OFFCURVE",
"535 661 OFFCURVE",
"541 609 CURVE",
"572 619 OFFCURVE",
"592 642 OFFCURVE",
"592 672 CURVE SMOOTH",
"592 697 OFFCURVE",
"567 724 OFFCURVE",
"514 724 CURVE SMOOTH",
"463 724 OFFCURVE",
"398 714 OFFCURVE",
"314 694 CURVE SMOOTH",
"257 680 OFFCURVE",
"212 667 OFFCURVE",
"179 667 CURVE SMOOTH",
"140 667 OFFCURVE",
"124 684 OFFCURVE",
"120 724 CURVE",
"85 713 OFFCURVE",
"68 695 OFFCURVE",
"68 670 CURVE SMOOTH",
"68 630 OFFCURVE",
"93 618 OFFCURVE",
"142 618 CURVE SMOOTH",
"166 618 OFFCURVE",
"220 629 OFFCURVE",
"250 636 CURVE",
"155 564 OFFCURVE",
"58 447 OFFCURVE",
"58 297 CURVE SMOOTH",
"58 88 OFFCURVE",
"155 -11 OFFCURVE",
"337 -11 CURVE SMOOTH"
);
}
);
width = 681;
},
{
layerId = "1D4F67F9-897D-45AD-B7F0-CA61A6862C03";
name = Light;
paths = (
{
closed = 1;
nodes = (
"505 -11 OFFCURVE",
"608 85 OFFCURVE",
"608 243 CURVE SMOOTH",
"608 309 OFFCURVE",
"605 325 OFFCURVE",
"579 325 CURVE",
"579 239 LINE SMOOTH",
"579 110 OFFCURVE",
"490 14 OFFCURVE",
"333 14 CURVE SMOOTH",
"174 14 OFFCURVE",
"89 105 OFFCURVE",
"89 284 CURVE SMOOTH",
"89 508 OFFCURVE",
"281 697 OFFCURVE",
"498 697 CURVE SMOOTH",
"539 697 OFFCURVE",
"552 679 OFFCURVE",
"557 649 CURVE",
"575 654 OFFCURVE",
"588 668 OFFCURVE",
"588 685 CURVE SMOOTH",
"588 711 OFFCURVE",
"569 724 OFFCURVE",
"540 724 CURVE SMOOTH",
"512 724 OFFCURVE",
"446 712 OFFCURVE",
"363 698 CURVE SMOOTH",
"254 679 OFFCURVE",
"184 674 OFFCURVE",
"159 674 CURVE SMOOTH",
"129 674 OFFCURVE",
"116 684 OFFCURVE",
"114 714 CURVE",
"92 710 OFFCURVE",
"81 697 OFFCURVE",
"81 683 CURVE SMOOTH",
"81 660 OFFCURVE",
"100 649 OFFCURVE",
"131 649 CURVE SMOOTH",
"179 649 OFFCURVE",
"262 663 OFFCURVE",
"309 671 CURVE",
"156 595 OFFCURVE",
"61 451 OFFCURVE",
"61 285 CURVE SMOOTH",
"61 91 OFFCURVE",
"149 -11 OFFCURVE",
"333 -11 CURVE SMOOTH"
);
}
);
width = 670;
},
{
background = {
paths = (
{
closed = 1;
nodes = (
"252 639 LINE",
"133 509 OFFCURVE",
"54 351 OFFCURVE",
"54 200 CURVE SMOOTH",
"54 74 OFFCURVE",
"111 -10 OFFCURVE",
"234 -10 CURVE SMOOTH",
"337 -10 OFFCURVE",
"407 55 OFFCURVE",
"407 214 CURVE SMOOTH",
"407 270 OFFCURVE",
"393 294 OFFCURVE",
"379 294 CURVE",
"379 210 LINE SMOOTH",
"379 74 OFFCURVE",
"321 15 OFFCURVE",
"233 15 CURVE SMOOTH",
"121 15 OFFCURVE",
"82 99 OFFCURVE",
"82 202 CURVE SMOOTH",
"82 357 OFFCURVE",
"170 510 OFFCURVE",
"276 628 CURVE"
);
}
);
};
layerId = "C91144B6-58F5-45F2-9CE4-7ED6CE127FD4";
name = "Light Condensed";
paths = (
{
closed = 1;
nodes = (
"386 -11 OFFCURVE",
"478 65 OFFCURVE",
"478 213 CURVE SMOOTH",
"478 279 OFFCURVE",
"471 295 OFFCURVE",
"450 295 CURVE",
"450 209 LINE SMOOTH",
"450 80 OFFCURVE",
"374 14 OFFCURVE",
"265 14 CURVE SMOOTH",
"139 14 OFFCURVE",
"79 105 OFFCURVE",
"79 284 CURVE SMOOTH",
"79 488 OFFCURVE",
"191 697 OFFCURVE",
"392 697 CURVE SMOOTH",
"419 697 OFFCURVE",
"432 680 OFFCURVE",
"437 650 CURVE",
"455 655 OFFCURVE",
"468 669 OFFCURVE",
"468 686 CURVE SMOOTH",
"468 712 OFFCURVE",
"449 724 OFFCURVE",
"420 724 CURVE SMOOTH",
"392 724 OFFCURVE",
"350 714 OFFCURVE",
"313 707 CURVE SMOOTH",
"232 691 OFFCURVE",
"174 686 OFFCURVE",
"149 686 CURVE SMOOTH",
"119 686 OFFCURVE",
"106 694 OFFCURVE",
"104 724 CURVE",
"85 720 OFFCURVE",
"72 707 OFFCURVE",
"72 693 CURVE SMOOTH",
"72 670 OFFCURVE",
"91 659 OFFCURVE",
"114 659 CURVE SMOOTH",
"138 659 OFFCURVE",
"221 670 OFFCURVE",
"249 676 CURVE",
"106 592 OFFCURVE",
"51 431 OFFCURVE",
"51 285 CURVE SMOOTH",
"51 91 OFFCURVE",
"123 -11 OFFCURVE",
"263 -11 CURVE SMOOTH"
);
}
);
width = 538;
},
{
background = {
components = (
{
name = O;
}
);
};
layerId = "E7C4F5EE-4982-479C-BF20-1C8706EFFC5D";
name = Condensed;
paths = (
{
closed = 1;
nodes = (
"407 -10 OFFCURVE",
"492 75 OFFCURVE",
"492 235 CURVE SMOOTH",
"492 289 OFFCURVE",
"465 315 OFFCURVE",
"422 315 CURVE",
"422 230 LINE SMOOTH",
"422 100 OFFCURVE",
"366 37 OFFCURVE",
"272 37 CURVE SMOOTH",
"162 37 OFFCURVE",
"118 102 OFFCURVE",
"118 245 CURVE SMOOTH",
"118 451 OFFCURVE",
"235 672 OFFCURVE",
"392 672 CURVE SMOOTH",
"422 672 OFFCURVE",
"437 646 OFFCURVE",
"441 594 CURVE",
"468 604 OFFCURVE",
"495 627 OFFCURVE",
"495 657 CURVE SMOOTH",
"495 702 OFFCURVE",
"464 724 OFFCURVE",
"423 724 CURVE SMOOTH",
"393 724 OFFCURVE",
"352 707 OFFCURVE",
"280 687 CURVE SMOOTH",
"232 674 OFFCURVE",
"197 672 OFFCURVE",
"168 672 CURVE SMOOTH",
"136 672 OFFCURVE",
"122 689 OFFCURVE",
"119 724 CURVE",
"89 713 OFFCURVE",
"70 695 OFFCURVE",
"70 670 CURVE SMOOTH",
"70 630 OFFCURVE",
"96 611 OFFCURVE",
"138 611 CURVE SMOOTH",
"158 611 OFFCURVE",
"194 616 OFFCURVE",
"219 623 CURVE",
"132 536 OFFCURVE",
"52 387 OFFCURVE",
"52 245 CURVE SMOOTH",
"52 76 OFFCURVE",
"122 -10 OFFCURVE",
"276 -10 CURVE SMOOTH"
);
}
);
width = 553;
},
{
background = {
components = (
{
name = O;
}
);
};
layerId = "75A83886-EED5-4C31-9670-660514D8A4F6";
name = "Bold Condensed";
paths = (
{
closed = 1;
nodes = (
"506 -10 OFFCURVE",
"610 71 OFFCURVE",
"610 193 CURVE SMOOTH",
"610 286 OFFCURVE",
"565 346 OFFCURVE",
"443 346 CURVE",
"443 210 LINE SMOOTH",
"443 99 OFFCURVE",
"410 64 OFFCURVE",
"328 64 CURVE SMOOTH",
"263 64 OFFCURVE",
"221 111 OFFCURVE",
"221 273 CURVE SMOOTH",
"221 547 OFFCURVE",
"308 639 OFFCURVE",
"404 639 CURVE SMOOTH",
"457 639 OFFCURVE",
"475 613 OFFCURVE",
"475 563 CURVE",
"536 563 OFFCURVE",
"592 597 OFFCURVE",
"592 649 CURVE SMOOTH",
"592 691 OFFCURVE",
"558 724 OFFCURVE",
"501 724 CURVE SMOOTH",
"450 724 OFFCURVE",
"390 708 OFFCURVE",
"347 692 CURVE SMOOTH",
"289 671 OFFCURVE",
"252 665 OFFCURVE",
"215 665 CURVE SMOOTH",
"185 665 OFFCURVE",
"171 683 OFFCURVE",
"171 724 CURVE",
"100 724 OFFCURVE",
"58 692 OFFCURVE",
"58 658 CURVE SMOOTH",
"58 624 OFFCURVE",
"72 590 OFFCURVE",
"149 590 CURVE SMOOTH",
"190 590 OFFCURVE",
"220 595 OFFCURVE",
"231 596 CURVE",
"170 553 OFFCURVE",
"45 407 OFFCURVE",
"45 259 CURVE SMOOTH",
"45 80 OFFCURVE",
"131 -10 OFFCURVE",
"331 -10 CURVE SMOOTH"
);
}
);
width = 656;
}
);
note = uni10A0;
unicode = 10A0;
},
{
color = 5;
glyphname = uni10A1;
lastChange = "2015-09-23 11:12:30 +0000";
layers = (
{
layerId = "5E7FF211-9823-4E5B-BC80-AC4B3CA4BC69";
name = Regular;
paths = (
{
closed = 1;
nodes = (
"575 0 LINE",
"575 714 LINE",
"389 714 LINE",
"389 672 LINE",
"393 672 LINE SMOOTH",
"453 672 OFFCURVE",
"474 649 OFFCURVE",
"474 604 CURVE SMOOTH",
"474 476 LINE SMOOTH",
"474 365 OFFCURVE",
"419 312 OFFCURVE",
"310 312 CURVE SMOOTH",
"214 312 OFFCURVE",
"166 372 OFFCURVE",
"166 491 CURVE SMOOTH",
"166 578 OFFCURVE",
"185 667 OFFCURVE",
"249 667 CURVE",
"249 714 LINE",
"127 714 OFFCURVE",
"55 629 OFFCURVE",
"55 490 CURVE SMOOTH",
"55 338 OFFCURVE",
"147 258 OFFCURVE",
"298 258 CURVE SMOOTH",
"384 258 OFFCURVE",
"449 286 OFFCURVE",
"473 329 CURVE",
"478 329 LINE",
"475 290 OFFCURVE",
"474 262 OFFCURVE",
"474 244 CURVE SMOOTH",
"474 0 LINE"
);
}
);
width = 685;
},
{
layerId = "101C8DBD-EDBB-4DB6-972E-FA2DBA854B69";
name = SemiBold;
paths = (
{
closed = 1;
nodes = (
"613 0 LINE",
"613 714 LINE",
"387 714 LINE",
"387 661 LINE",
"404 661 LINE SMOOTH",
"443 661 OFFCURVE",
"455 641 OFFCURVE",
"455 596 CURVE SMOOTH",
"455 464 LINE SMOOTH",
"455 363 OFFCURVE",
"416 312 OFFCURVE",
"337 312 CURVE SMOOTH",
"254 312 OFFCURVE",
"218 358 OFFCURVE",
"218 473 CURVE SMOOTH",
"218 609 OFFCURVE",
"249 661 OFFCURVE",
"317 661 CURVE",
"317 714 LINE",
"132 714 OFFCURVE",
"50 640 OFFCURVE",
"50 473 CURVE SMOOTH",
"50 315 OFFCURVE",
"131 228 OFFCURVE",
"278 228 CURVE SMOOTH",
"363 228 OFFCURVE",
"419 251 OFFCURVE",
"456 308 CURVE",
"463 308 LINE",
"458 247 OFFCURVE",
"455 207 OFFCURVE",
"455 187 CURVE SMOOTH",
"455 0 LINE"
);
}
);
width = 698;
},
{
background = {
paths = (
{
closed = 1;
nodes = (
"550 0 LINE",
"550 714 LINE",
"390 714 LINE",
"390 679 LINE",
"423 679 LINE SMOOTH",
"470 679 OFFCURVE",
"486 656 OFFCURVE",
"486 610 CURVE SMOOTH",
"486 461 LINE SMOOTH",
"486 361 OFFCURVE",
"438 275 OFFCURVE",
"323 275 CURVE SMOOTH",
"244 275 OFFCURVE",
"189 327 OFFCURVE",
"189 428 CURVE SMOOTH",
"189 714 LINE",
"53 714 LINE",
"53 679 LINE",
"62 679 LINE SMOOTH",
"109 679 OFFCURVE",
"125 658 OFFCURVE",
"125 603 CURVE SMOOTH",
"125 427 LINE SMOOTH",
"125 300 OFFCURVE",
"199 238 OFFCURVE",
"312 238 CURVE SMOOTH",
"404 238 OFFCURVE",
"454 273 OFFCURVE",
"485 334 CURVE",
"489 334 LINE",
"487 303 OFFCURVE",
"486 271 OFFCURVE",
"486 239 CURVE SMOOTH",
"486 0 LINE"
);
}
);
};
layerId = "5E7C5774-385D-4E06-B68E-CBE970134A7B";
name = SemiLight;
paths = (
{
closed = 1;
nodes = (
"550 0 LINE",
"550 714 LINE",
"390 714 LINE",
"390 679 LINE",
"423 679 LINE SMOOTH",
"470 679 OFFCURVE",
"486 656 OFFCURVE",
"486 610 CURVE SMOOTH",
"486 461 LINE SMOOTH",
"486 361 OFFCURVE",
"429 281 OFFCURVE",
"287 281 CURVE SMOOTH",
"172 281 OFFCURVE",
"124 350 OFFCURVE",
"124 478 CURVE SMOOTH",
"124 606 OFFCURVE",
"148 674 OFFCURVE",
"252 674 CURVE",
"252 714 LINE",
"117 714 OFFCURVE",
"60 630 OFFCURVE",
"60 478 CURVE SMOOTH",
"60 316 OFFCURVE",
"151 238 OFFCURVE",
"278 238 CURVE SMOOTH",
"392 238 OFFCURVE",
"449 273 OFFCURVE",
"485 334 CURVE",
"489 334 LINE",
"487 303 OFFCURVE",
"486 271 OFFCURVE",
"486 239 CURVE SMOOTH",
"486 0 LINE"
);
}
);
width = 662;
},
{
background = {
paths = (
{
closed = 1;
nodes = (
"372 694 LINE",
"415 694 LINE SMOOTH",
"465 694 OFFCURVE",
"471 683 OFFCURVE",
"471 606 CURVE SMOOTH",
"471 467 LINE SMOOTH",
"471 354 OFFCURVE",
"421 263 OFFCURVE",
"308 263 CURVE SMOOTH",
"209 263 OFFCURVE",
"147 324 OFFCURVE",
"147 418 CURVE SMOOTH",
"147 714 LINE",
"30 714 LINE",
"30 694 LINE",
"63 694 LINE SMOOTH",
"113 694 OFFCURVE",
"119 683 OFFCURVE",
"119 606 CURVE SMOOTH",
"119 418 LINE SMOOTH",
"119 299 OFFCURVE",
"196 238 OFFCURVE",
"310 238 CURVE SMOOTH",
"388 238 OFFCURVE",
"441 275 OFFCURVE",
"471 343 CURVE",
"474 343 LINE",
"472 311 OFFCURVE",
"471 278 OFFCURVE",
"471 246 CURVE SMOOTH",
"471 0 LINE",
"499 0 LINE",
"499 714 LINE",
"372 714 LINE"
);
},
{
closed = 0;
nodes = (
"-357 403 LINE",
"-476 403 OFFCURVE",
"-526 482 OFFCURVE",
"-527 617 CURVE SMOOTH",
"-528 759 OFFCURVE",
"-476 829 OFFCURVE",
"-350 829 CURVE",
"-350 854 LINE",
"-495 854 OFFCURVE",
"-555 778 OFFCURVE",
"-555 617 CURVE SMOOTH",
"-555 455 OFFCURVE",
"-489 378 OFFCURVE",
"-355 378 CURVE"
);
}
);
};
layerId = "1D4F67F9-897D-45AD-B7F0-CA61A6862C03";
name = Light;
paths = (
{
closed = 1;
nodes = (
"499 0 LINE",
"499 714 LINE",
"372 714 LINE",
"372 694 LINE",
"415 694 LINE SMOOTH",
"465 694 OFFCURVE",
"471 683 OFFCURVE",
"471 606 CURVE SMOOTH",
"471 467 LINE SMOOTH",
"471 354 OFFCURVE",
"414 263 OFFCURVE",
"267 263 CURVE SMOOTH",
"148 263 OFFCURVE",
"90 340 OFFCURVE",
"90 477 CURVE SMOOTH",
"90 619 OFFCURVE",
"138 690 OFFCURVE",
"237 690 CURVE",
"237 714 LINE",
"122 714 OFFCURVE",
"62 638 OFFCURVE",
"62 477 CURVE SMOOTH",
"62 315 OFFCURVE",
"136 238 OFFCURVE",
"267 238 CURVE SMOOTH",
"376 238 OFFCURVE",
"437 282 OFFCURVE",
"471 350 CURVE",
"474 350 LINE",
"472 318 OFFCURVE",
"471 285 OFFCURVE",
"471 253 CURVE SMOOTH",
"471 0 LINE"
);
}
);
width = 614;
},
{
background = {
paths = (
{
closed = 1;
nodes = (
"578 0 LINE",
"578 714 LINE",
"332 714 LINE",
"332 658 LINE",
"355 658 LINE",
"385 658 OFFCURVE",
"408 641 OFFCURVE",
"408 589 CURVE SMOOTH",
"408 418 LINE SMOOTH",
"408 372 OFFCURVE",
"377 326 OFFCURVE",
"332 326 CURVE SMOOTH",
"282 326 OFFCURVE",
"267 362 OFFCURVE",
"267 422 CURVE SMOOTH",
"267 714 LINE",
"27 714 LINE",
"27 658 LINE",
"43 658 LINE",
"73 658 OFFCURVE",
"97 641 OFFCURVE",
"97 589 CURVE SMOOTH",
"97 420 LINE SMOOTH",
"97 286 OFFCURVE",
"164 230 OFFCURVE",
"269 230 CURVE SMOOTH",
"324 230 OFFCURVE",
"372 254 OFFCURVE",
"408 302 CURVE",
"412 302 LINE",
"409 278 OFFCURVE",
"408 254 OFFCURVE",
"408 230 CURVE SMOOTH",
"408 0 LINE"
);
}
);
};
layerId = "75A83886-EED5-4C31-9670-660514D8A4F6";
name = "Bold Condensed";
paths = (
{
closed = 1;
nodes = (
"578 0 LINE",
"578 714 LINE",
"332 714 LINE",
"332 658 LINE",
"355 658 LINE SMOOTH",
"385 658 OFFCURVE",
"408 641 OFFCURVE",
"408 589 CURVE SMOOTH",
"408 418 LINE SMOOTH",
"408 372 OFFCURVE",
"379 311 OFFCURVE",
"300 311 CURVE SMOOTH",
"221 311 OFFCURVE",
"204 360 OFFCURVE",
"204 474 CURVE SMOOTH",
"204 599 OFFCURVE",
"220 658 OFFCURVE",
"270 658 CURVE",
"270 714 LINE",
"116 714 OFFCURVE",
"34 634 OFFCURVE",
"34 472 CURVE SMOOTH",
"34 310 OFFCURVE",
"125 230 OFFCURVE",
"247 230 CURVE SMOOTH",
"324 230 OFFCURVE",
"372 254 OFFCURVE",
"408 302 CURVE",
"412 302 LINE",
"409 278 OFFCURVE",
"408 254 OFFCURVE",
"408 230 CURVE SMOOTH",
"408 0 LINE"
);
}
);
width = 664;
},
{
layerId = "C91144B6-58F5-45F2-9CE4-7ED6CE127FD4";
name = "Light Condensed";
paths = (
{
closed = 1;
nodes = (
"406 0 LINE",
"406 714 LINE",
"298 714 LINE",
"298 694 LINE",
"328 694 LINE",
"374 694 OFFCURVE",
"378 683 OFFCURVE",
"378 609 CURVE SMOOTH",
"378 399 LINE SMOOTH",
"378 332 OFFCURVE",
"316 263 OFFCURVE",
"227 263 CURVE SMOOTH",
"118 263 OFFCURVE",
"76 337 OFFCURVE",
"76 477 CURVE SMOOTH",
"76 619 OFFCURVE",
"110 690 OFFCURVE",
"205 690 CURVE",
"205 714 LINE",
"95 714 OFFCURVE",
"48 636 OFFCURVE",
"48 477 CURVE SMOOTH",
"48 312 OFFCURVE",
"105 238 OFFCURVE",
"225 238 CURVE SMOOTH",
"283 238 OFFCURVE",
"343 264 OFFCURVE",
"376 330 CURVE",
"380 330 LINE",
"379 309 OFFCURVE",
"378 289 OFFCURVE",
"378 268 CURVE SMOOTH",
"378 0 LINE"
);
}
);
width = 506;
},
{
layerId = "E7C4F5EE-4982-479C-BF20-1C8706EFFC5D";
name = Condensed;
paths = (
{
closed = 1;
nodes = (
"465 0 LINE",
"465 714 LINE",
"326 714 LINE",
"326 678 LINE",
"340 678 LINE SMOOTH",
"382 678 OFFCURVE",
"400 663 OFFCURVE",
"400 601 CURVE SMOOTH",
"400 406 LINE SMOOTH",
"400 345 OFFCURVE",
"341 286 OFFCURVE",
"254 286 CURVE",
"144 286 OFFCURVE",
"110 350 OFFCURVE",
"110 477 CURVE SMOOTH",
"110 610 OFFCURVE",
"138 678 OFFCURVE",
"211 678 CURVE",
"211 714 LINE",
"105 714 OFFCURVE",
"45 638 OFFCURVE",
"45 477 CURVE SMOOTH",
"45 315 OFFCURVE",
"118 238 OFFCURVE",
"236 238 CURVE",
"303 238 OFFCURVE",
"365 264 OFFCURVE",
"399 325 CURVE",
"403 325 LINE",
"401 303 OFFCURVE",
"400 282 OFFCURVE",
"400 261 CURVE SMOOTH",
"400 0 LINE"
);
}
);
width = 559;
}
);
note = uni10A1;
rightKerningGroup = uni10A1;
unicode = 10A1;
},
{
color = 5;
glyphname = uni10A2;
lastChange = "2015-09-23 11:12:30 +0000";
layers = (
{
layerId = "5E7FF211-9823-4E5B-BC80-AC4B3CA4BC69";
name = Regular;
paths = (
{
closed = 1;
nodes = (
"688 -117 OFFCURVE",
"722 -90 OFFCURVE",
"722 -53 CURVE SMOOTH",
"722 20 OFFCURVE",
"658 53 OFFCURVE",
"538 54 CURVE SMOOTH",
"521 54 LINE",
"521 491 LINE SMOOTH",
"521 644 OFFCURVE",
"441 724 OFFCURVE",
"287 724 CURVE SMOOTH",
"135 724 OFFCURVE",
"45 638 OFFCURVE",
"45 488 CURVE SMOOTH",
"45 425 LINE",
"146 425 LINE",
"146 483 LINE SMOOTH",
"146 611 OFFCURVE",
"186 670 OFFCURVE",
"283 670 CURVE SMOOTH",
"373 670 OFFCURVE",
"420 609 OFFCURVE",
"420 494 CURVE SMOOTH",
"420 0 LINE",
"521 0 LINE SMOOTH",
"608 0 OFFCURVE",
"644 -37 OFFCURVE",
"644 -117 CURVE"
);
}
);
width = 742;
},
{
layerId = "101C8DBD-EDBB-4DB6-972E-FA2DBA854B69";
name = SemiBold;
paths = (
{
closed = 1;
nodes = (
"758 -132 OFFCURVE",
"806 -94 OFFCURVE",
"806 -41 CURVE SMOOTH",
"806 24 OFFCURVE",
"743 62 OFFCURVE",
"636 62 CURVE SMOOTH",
"611 62 LINE",
"611 496 LINE SMOOTH",
"611 643 OFFCURVE",
"513 724 OFFCURVE",
"331 724 CURVE SMOOTH",
"140 724 OFFCURVE",
"45 648 OFFCURVE",
"45 496 CURVE SMOOTH",
"45 420 LINE",
"203 420 LINE",
"203 504 LINE SMOOTH",
"203 606 OFFCURVE",
"243 653 OFFCURVE",
"328 653 CURVE SMOOTH",
"408 653 OFFCURVE",
"453 601 OFFCURVE",
"453 504 CURVE SMOOTH",
"453 0 LINE",
"568 0 LINE SMOOTH",
"651 0 OFFCURVE",
"686 -34 OFFCURVE",
"686 -132 CURVE"
);
}
);
width = 821;
},
{
layerId = "5E7C5774-385D-4E06-B68E-CBE970134A7B";
name = SemiLight;
paths = (
{
closed = 1;
nodes = (
"668 -96 OFFCURVE",
"687 -78 OFFCURVE",
"687 -48 CURVE SMOOTH",
"687 8 OFFCURVE",
"652 36 OFFCURVE",
"551 36 CURVE SMOOTH",
"524 36 LINE",
"524 498 LINE SMOOTH",
"524 657 OFFCURVE",
"437 724 OFFCURVE",
"295 724 CURVE SMOOTH",
"141 724 OFFCURVE",
"66 630 OFFCURVE",
"66 495 CURVE SMOOTH",
"66 362 LINE",
"130 362 LINE",
"130 501 LINE SMOOTH",
"130 608 OFFCURVE",
"180 688 OFFCURVE",
"296 688 CURVE SMOOTH",
"400 688 OFFCURVE",
"460 630 OFFCURVE",
"460 507 CURVE SMOOTH",
"460 0 LINE",
"544 0 LINE SMOOTH",
"621 0 OFFCURVE",
"634 -22 OFFCURVE",
"634 -96 CURVE"
);
}
);
width = 707;
},
{
layerId = "1D4F67F9-897D-45AD-B7F0-CA61A6862C03";
name = Light;
paths = (
{
closed = 1;
nodes = (
"637 -81 OFFCURVE",
"650 -70 OFFCURVE",
"650 -51 CURVE SMOOTH",
"650 -6 OFFCURVE",
"623 25 OFFCURVE",
"533 25 CURVE SMOOTH",
"491 25 LINE",
"491 500 LINE SMOOTH",
"491 663 OFFCURVE",
"409 724 OFFCURVE",
"281 724 CURVE SMOOTH",
"136 724 OFFCURVE",
"72 626 OFFCURVE",
"72 496 CURVE SMOOTH",
"72 368 LINE",
"100 368 LINE",
"100 495 LINE SMOOTH",
"100 608 OFFCURVE",
"152 699 OFFCURVE",
"283 699 CURVE SMOOTH",
"397 699 OFFCURVE",
"463 638 OFFCURVE",
"463 504 CURVE SMOOTH",
"463 0 LINE",
"526 0 LINE SMOOTH",
"598 0 OFFCURVE",
"623 -18 OFFCURVE",
"623 -81 CURVE"
);
}
);
width = 675;
},
{
layerId = "75A83886-EED5-4C31-9670-660514D8A4F6";
name = "Bold Condensed";
paths = (
{
closed = 1;
nodes = (
"747 -140 OFFCURVE",
"786 -100 OFFCURVE",
"786 -41 CURVE SMOOTH",
"786 36 OFFCURVE",
"702 68 OFFCURVE",
"595 68 CURVE SMOOTH",
"562 68 LINE",
"562 496 LINE SMOOTH",
"562 660 OFFCURVE",
"463 724 OFFCURVE",
"303 724 CURVE SMOOTH",
"120 724 OFFCURVE",
"54 634 OFFCURVE",
"54 500 CURVE SMOOTH",
"54 340 LINE",
"221 340 LINE",
"221 498 LINE SMOOTH",
"221 603 OFFCURVE",
"254 650 OFFCURVE",
"305 650 CURVE SMOOTH",
"369 650 OFFCURVE",
"395 615 OFFCURVE",
"395 504 CURVE SMOOTH",
"395 0 LINE",
"557 0 LINE SMOOTH",
"636 0 OFFCURVE",
"672 -32 OFFCURVE",
"672 -140 CURVE"
);
}
);
width = 796;
},
{
layerId = "C91144B6-58F5-45F2-9CE4-7ED6CE127FD4";
name = "Light Condensed";
paths = (
{
closed = 1;
nodes = (
"522 -81 OFFCURVE",
"532 -70 OFFCURVE",
"532 -51 CURVE SMOOTH",
"532 8 OFFCURVE",
"496 25 OFFCURVE",
"452 25 CURVE SMOOTH",
"415 25 LINE",
"415 500 LINE SMOOTH",
"415 659 OFFCURVE",
"345 724 OFFCURVE",
"242 724 CURVE SMOOTH",
"119 724 OFFCURVE",
"62 625 OFFCURVE",
"62 514 CURVE SMOOTH",
"62 370 LINE",
"90 370 LINE",
"90 512 LINE SMOOTH",
"90 600 OFFCURVE",
"129 699 OFFCURVE",
"241 699 CURVE SMOOTH",
"329 699 OFFCURVE",
"387 640 OFFCURVE",
"387 504 CURVE SMOOTH",
"387 0 LINE",
"447 0 LINE SMOOTH",
"488 0 OFFCURVE",
"505 -15 OFFCURVE",
"505 -81 CURVE"
);
}
);
width = 542;
},
{
layerId = "E7C4F5EE-4982-479C-BF20-1C8706EFFC5D";
name = Condensed;
paths = (
{
closed = 1;
nodes = (
"580 -96 OFFCURVE",
"598 -69 OFFCURVE",
"598 -40 CURVE SMOOTH",
"598 27 OFFCURVE",
"546 45 OFFCURVE",
"483 45 CURVE SMOOTH",
"453 45 LINE",
"453 499 LINE SMOOTH",
"453 659 OFFCURVE",
"376 724 OFFCURVE",
"258 724 CURVE SMOOTH",
"119 724 OFFCURVE",
"60 627 OFFCURVE",
"60 510 CURVE SMOOTH",
"60 362 LINE",
"124 362 LINE",
"124 508 LINE SMOOTH",
"124 601 OFFCURVE",
"161 677 OFFCURVE",
"258 677 CURVE SMOOTH",
"339 677 OFFCURVE",
"389 634 OFFCURVE",
"389 504 CURVE SMOOTH",
"389 0 LINE",
"480 0 LINE SMOOTH",
"523 0 OFFCURVE",
"548 -20 OFFCURVE",
"548 -96 CURVE"
);
}
);
width = 608;
}
);
leftKerningGroup = uni10A2;
note = uni10A2;
rightKerningGroup = uni10A2;
unicode = 10A2;
},
{
color = 5;
glyphname = uni10A3;
lastChange = "2015-09-23 11:12:30 +0000";
layers = (
{
layerId = "5E7FF211-9823-4E5B-BC80-AC4B3CA4BC69";
name = Regular;
paths = (
{
closed = 1;
nodes = (
"568 -10 OFFCURVE",
"685 102 OFFCURVE",
"685 280 CURVE SMOOTH",
"685 441 OFFCURVE",
"585 544 OFFCURVE",
"418 560 CURVE",
"418 649 LINE",
"468 659 OFFCURVE",
"507 664 OFFCURVE",
"536 664 CURVE SMOOTH",
"583 664 OFFCURVE",
"606 645 OFFCURVE",
"614 594 CURVE",
"655 604 OFFCURVE",
"682 627 OFFCURVE",
"682 657 CURVE SMOOTH",
"682 702 OFFCURVE",
"649 724 OFFCURVE",
"584 724 CURVE SMOOTH",
"554 724 OFFCURVE",
"480 712 OFFCURVE",
"378 690 CURVE SMOOTH",
"307 675 OFFCURVE",
"263 672 OFFCURVE",
"205 672 CURVE SMOOTH",
"154 672 OFFCURVE",
"132 689 OFFCURVE",
"127 724 CURVE",
"81 713 OFFCURVE",
"58 695 OFFCURVE",
"58 670 CURVE SMOOTH",
"58 630 OFFCURVE",
"91 611 OFFCURVE",
"157 611 CURVE SMOOTH",
"195 611 OFFCURVE",
"250 617 OFFCURVE",
"323 630 CURVE",
"323 560 LINE",
"152 545 OFFCURVE",
"56 445 OFFCURVE",
"56 281 CURVE SMOOTH",
"56 95 OFFCURVE",
"170 -10 OFFCURVE",
"371 -10 CURVE SMOOTH"
);
},
{
closed = 1;
nodes = (
"233 44 OFFCURVE",
"167 118 OFFCURVE",
"167 280 CURVE SMOOTH",
"167 442 OFFCURVE",
"234 515 OFFCURVE",
"372 515 CURVE SMOOTH",
"508 515 OFFCURVE",
"574 442 OFFCURVE",
"574 280 CURVE SMOOTH",
"574 118 OFFCURVE",
"509 44 OFFCURVE",
"371 44 CURVE SMOOTH"
);
}
);
width = 742;
},
{
layerId = "101C8DBD-EDBB-4DB6-972E-FA2DBA854B69";
name = SemiBold;
paths = (
{
closed = 1;
nodes = (
"592 -10 OFFCURVE",
"732 93 OFFCURVE",
"732 282 CURVE SMOOTH",
"732 441 OFFCURVE",
"631 546 OFFCURVE",
"452 566 CURVE",
"452 641 LINE",
"496 653 OFFCURVE",
"532 656 OFFCURVE",
"561 656 CURVE SMOOTH",
"604 656 OFFCURVE",
"627 631 OFFCURVE",
"627 594 CURVE",
"700 594 OFFCURVE",
"737 615 OFFCURVE",
"737 656 CURVE SMOOTH",
"737 696 OFFCURVE",
"690 724 OFFCURVE",
"620 724 CURVE SMOOTH",
"552 724 OFFCURVE",
"481 706 OFFCURVE",
"410 687 CURVE SMOOTH",
"337 668 OFFCURVE",
"283 662 OFFCURVE",
"227 662 CURVE SMOOTH",
"181 662 OFFCURVE",
"160 687 OFFCURVE",
"160 724 CURVE",
"86 724 OFFCURVE",
"50 703 OFFCURVE",
"50 661 CURVE SMOOTH",
"50 622 OFFCURVE",
"94 594 OFFCURVE",
"167 594 CURVE SMOOTH",
"227 594 OFFCURVE",
"283 602 OFFCURVE",
"335 613 CURVE",
"335 566 LINE",
"153 547 OFFCURVE",
"55 447 OFFCURVE",
"55 283 CURVE SMOOTH",
"55 89 OFFCURVE",
"191 -10 OFFCURVE",
"394 -10 CURVE SMOOTH"
);
},
{
closed = 1;
nodes = (
"280 55 OFFCURVE",
"223 128 OFFCURVE",
"223 282 CURVE SMOOTH",
"223 436 OFFCURVE",
"280 509 OFFCURVE",
"395 509 CURVE SMOOTH",
"509 509 OFFCURVE",
"564 437 OFFCURVE",
"564 282 CURVE SMOOTH",
"564 127 OFFCURVE",
"508 55 OFFCURVE",
"394 55 CURVE SMOOTH"
);
}
);
width = 787;
},
{
background = {
paths = (
{
closed = 1;
nodes = (
"549 -10 OFFCURVE",
"656 112 OFFCURVE",
"656 295 CURVE SMOOTH",
"656 480 OFFCURVE",
"550 600 OFFCURVE",
"358 600 CURVE SMOOTH",
"155 600 OFFCURVE",
"57 480 OFFCURVE",
"57 296 CURVE SMOOTH",
"57 112 OFFCURVE",
"155 -10 OFFCURVE",
"357 -10 CURVE SMOOTH"
);
},
{
closed = 1;
nodes = (
"201 37 OFFCURVE",
"132 133 OFFCURVE",
"132 295 CURVE SMOOTH",
"132 458 OFFCURVE",
"201 553 OFFCURVE",
"358 553 CURVE SMOOTH",
"522 553 OFFCURVE",
"581 458 OFFCURVE",
"581 295 CURVE SMOOTH",
"581 133 OFFCURVE",
"521 37 OFFCURVE",
"357 37 CURVE SMOOTH"
);
},
{
closed = 1;
nodes = (
"400 671 OFFCURVE",
"463 682 OFFCURVE",
"514 682 CURVE SMOOTH",
"560 682 OFFCURVE",
"581 661 OFFCURVE",
"587 609 CURVE",
"618 619 OFFCURVE",
"638 642 OFFCURVE",
"638 672 CURVE SMOOTH",
"638 707 OFFCURVE",
"613 724 OFFCURVE",
"553 724 CURVE SMOOTH",
"499 724 OFFCURVE",
"423 714 OFFCURVE",
"339 694 CURVE SMOOTH",
"282 680 OFFCURVE",
"227 667 OFFCURVE",
"194 667 CURVE SMOOTH",
"145 667 OFFCURVE",
"129 684 OFFCURVE",
"125 724 CURVE",
"90 713 OFFCURVE",
"73 695 OFFCURVE",
"73 670 CURVE SMOOTH",
"73 630 OFFCURVE",
"98 618 OFFCURVE",
"141 618 CURVE SMOOTH",
"191 618 OFFCURVE",
"245 629 OFFCURVE",
"321 651 CURVE SMOOTH"
);
},
{
closed = 1;
nodes = (
"327 573 LINE",
"387 573 LINE",
"387 677 LINE",
"327 677 LINE"
);
}
);
};
layerId = "5E7C5774-385D-4E06-B68E-CBE970134A7B";
name = SemiLight;
paths = (
{
closed = 1;
nodes = (
"549 -10 OFFCURVE",
"656 112 OFFCURVE",
"656 295 CURVE SMOOTH",
"656 470 OFFCURVE",
"561 587 OFFCURVE",
"387 599 CURVE",
"387 666 LINE",
"436 677 OFFCURVE",
"478 682 OFFCURVE",
"514 682 CURVE SMOOTH",
"560 682 OFFCURVE",
"581 661 OFFCURVE",
"587 609 CURVE",
"618 619 OFFCURVE",
"638 642 OFFCURVE",
"638 672 CURVE SMOOTH",
"638 707 OFFCURVE",
"613 724 OFFCURVE",
"553 724 CURVE SMOOTH",
"499 724 OFFCURVE",
"423 714 OFFCURVE",
"339 694 CURVE SMOOTH",
"282 680 OFFCURVE",
"227 667 OFFCURVE",
"194 667 CURVE SMOOTH",
"145 667 OFFCURVE",
"129 684 OFFCURVE",
"125 724 CURVE",
"90 713 OFFCURVE",
"73 695 OFFCURVE",
"73 670 CURVE SMOOTH",
"73 630 OFFCURVE",
"98 618 OFFCURVE",
"141 618 CURVE SMOOTH",
"185 618 OFFCURVE",
"282 641 OFFCURVE",
"327 653 CURVE",
"327 599 LINE",
"145 587 OFFCURVE",
"57 470 OFFCURVE",
"57 296 CURVE SMOOTH",
"57 112 OFFCURVE",
"155 -10 OFFCURVE",
"357 -10 CURVE SMOOTH"
);
},
{
closed = 1;
nodes = (
"201 37 OFFCURVE",
"132 133 OFFCURVE",
"132 295 CURVE SMOOTH",
"132 458 OFFCURVE",
"201 553 OFFCURVE",
"358 553 CURVE SMOOTH",
"522 553 OFFCURVE",
"581 458 OFFCURVE",
"581 295 CURVE SMOOTH",
"581 133 OFFCURVE",
"521 37 OFFCURVE",
"357 37 CURVE SMOOTH"
);
}
);
width = 714;
},
{
background = {
paths = (
{
closed = 1;
nodes = (
"545 -10 OFFCURVE",
"627 111 OFFCURVE",
"627 298 CURVE SMOOTH",
"627 492 OFFCURVE",
"547 605 OFFCURVE",
"344 605 CURVE SMOOTH",
"157 605 OFFCURVE",
"58 494 OFFCURVE",
"58 299 CURVE SMOOTH",
"58 103 OFFCURVE",
"153 -10 OFFCURVE",
"343 -10 CURVE SMOOTH"
);
},
{
closed = 1;
nodes = (
"172 15 OFFCURVE",
"86 121 OFFCURVE",
"86 298 CURVE SMOOTH",
"86 475 OFFCURVE",
"172 580 OFFCURVE",
"344 580 CURVE SMOOTH",
"530 580 OFFCURVE",
"599 475 OFFCURVE",
"599 298 CURVE SMOOTH",
"599 122 OFFCURVE",
"524 15 OFFCURVE",
"343 15 CURVE SMOOTH"
);
},
{
closed = 1;
nodes = (
"549 694 OFFCURVE",
"560 679 OFFCURVE",
"565 649 CURVE",
"589 655 OFFCURVE",
"604 668 OFFCURVE",
"604 685 CURVE SMOOTH",
"604 711 OFFCURVE",
"585 724 OFFCURVE",
"548 724 CURVE SMOOTH",
"500 724 OFFCURVE",
"444 715 OFFCURVE",
"361 698 CURVE SMOOTH",
"277 681 OFFCURVE",
"192 676 OFFCURVE",
"167 676 CURVE SMOOTH",
"137 676 OFFCURVE",
"124 684 OFFCURVE",
"122 714 CURVE",
"95 708 OFFCURVE",
"82 697 OFFCURVE",
"82 683 CURVE SMOOTH",
"82 660 OFFCURVE",
"101 646 OFFCURVE",
"139 646 CURVE SMOOTH",
"182 646 OFFCURVE",
"243 653 OFFCURVE",
"323 667 CURVE SMOOTH",
"404 681 OFFCURVE",
"466 694 OFFCURVE",
"503 694 CURVE SMOOTH"
);
},
{
closed = 1;
nodes = (
"330 586 LINE",
"355 586 LINE",
"355 680 LINE",
"330 680 LINE"
);
}
);
};
layerId = "1D4F67F9-897D-45AD-B7F0-CA61A6862C03";
name = Light;
paths = (
{
closed = 1;
nodes = (
"545 -10 OFFCURVE",
"627 111 OFFCURVE",
"627 298 CURVE SMOOTH",
"627 488 OFFCURVE",
"550 601 OFFCURVE",
"355 605 CURVE",
"355 676 LINE",
"420 689 OFFCURVE",
"471 699 OFFCURVE",
"503 699 CURVE SMOOTH",
"549 699 OFFCURVE",
"562 679 OFFCURVE",
"565 649 CURVE",
"582 651 OFFCURVE",
"597 668 OFFCURVE",
"597 685 CURVE SMOOTH",
"597 711 OFFCURVE",
"578 724 OFFCURVE",
"542 724 CURVE SMOOTH",
"500 724 OFFCURVE",
"444 715 OFFCURVE",
"361 698 CURVE SMOOTH",
"277 681 OFFCURVE",
"202 671 OFFCURVE",
"167 671 CURVE SMOOTH",
"137 671 OFFCURVE",
"124 684 OFFCURVE",
"122 714 CURVE",
"102 710 OFFCURVE",
"89 697 OFFCURVE",
"89 683 CURVE SMOOTH",
"89 660 OFFCURVE",
"108 646 OFFCURVE",
"139 646 CURVE SMOOTH",
"181 646 OFFCURVE",
"243 656 OFFCURVE",
"330 671 CURVE",
"330 605 LINE",
"152 599 OFFCURVE",
"58 487 OFFCURVE",
"58 299 CURVE SMOOTH",
"58 103 OFFCURVE",
"153 -10 OFFCURVE",
"343 -10 CURVE SMOOTH"
);
},
{
closed = 1;
nodes = (
"172 15 OFFCURVE",
"86 121 OFFCURVE",
"86 298 CURVE SMOOTH",
"86 475 OFFCURVE",
"172 580 OFFCURVE",
"344 580 CURVE SMOOTH",
"530 580 OFFCURVE",
"599 475 OFFCURVE",
"599 298 CURVE SMOOTH",
"599 122 OFFCURVE",
"524 15 OFFCURVE",
"343 15 CURVE SMOOTH"
);
}
);
width = 686;
},
{
background = {
paths = (
{
closed = 1;
nodes = (
"533 -10 OFFCURVE",
"639 106 OFFCURVE",
"639 280 CURVE SMOOTH",
"639 456 OFFCURVE",
"533 570 OFFCURVE",
"344 570 CURVE SMOOTH",
"142 570 OFFCURVE",
"45 456 OFFCURVE",
"45 281 CURVE SMOOTH",
"45 106 OFFCURVE",
"142 -10 OFFCURVE",
"343 -10 CURVE SMOOTH"
);
},
{
closed = 1;
nodes = (
"254 58 OFFCURVE",
"221 140 OFFCURVE",
"221 280 CURVE SMOOTH",
"221 420 OFFCURVE",
"254 502 OFFCURVE",
"344 502 CURVE SMOOTH",
"432 502 OFFCURVE",
"464 420 OFFCURVE",
"464 280 CURVE SMOOTH",
"464 140 OFFCURVE",
"432 58 OFFCURVE",
"343 58 CURVE SMOOTH"
);
},
{
closed = 1;
nodes = (
"514 643 OFFCURVE",
"532 623 OFFCURVE",
"532 573 CURVE",
"593 573 OFFCURVE",
"649 597 OFFCURVE",
"649 649 CURVE SMOOTH",
"649 691 OFFCURVE",
"615 724 OFFCURVE",
"558 724 CURVE SMOOTH",
"507 724 OFFCURVE",
"447 708 OFFCURVE",
"387 692 CURVE SMOOTH",
"328 676 OFFCURVE",
"272 665 OFFCURVE",
"235 665 CURVE SMOOTH",
"192 665 OFFCURVE",
"168 683 OFFCURVE",
"168 724 CURVE",
"97 724 OFFCURVE",
"55 692 OFFCURVE",
"55 658 CURVE SMOOTH",
"55 624 OFFCURVE",
"69 590 OFFCURVE",
"146 590 CURVE SMOOTH",
"177 590 OFFCURVE",
"263 601 OFFCURVE",
"321 619 CURVE SMOOTH",
"377 637 OFFCURVE",
"426 643 OFFCURVE",
"461 643 CURVE"
);
},
{
closed = 1;
nodes = (
"286 542 LINE",
"401 542 LINE",
"401 646 LINE",
"286 646 LINE"
);
}
);
};
layerId = "75A83886-EED5-4C31-9670-660514D8A4F6";
name = "Bold Condensed";
paths = (
{
closed = 1;
nodes = (
"533 -10 OFFCURVE",
"639 106 OFFCURVE",
"639 280 CURVE SMOOTH",
"639 437 OFFCURVE",
"554 545 OFFCURVE",
"401 566 CURVE",
"401 638 LINE",
"424 642 OFFCURVE",
"444 643 OFFCURVE",
"461 643 CURVE SMOOTH",
"514 643 OFFCURVE",
"532 623 OFFCURVE",
"532 573 CURVE",
"593 573 OFFCURVE",
"649 597 OFFCURVE",
"649 649 CURVE SMOOTH",
"649 691 OFFCURVE",
"615 724 OFFCURVE",
"558 724 CURVE SMOOTH",
"507 724 OFFCURVE",
"447 708 OFFCURVE",
"387 692 CURVE SMOOTH",
"328 676 OFFCURVE",
"272 665 OFFCURVE",
"235 665 CURVE SMOOTH",
"192 665 OFFCURVE",
"168 683 OFFCURVE",
"168 724 CURVE",
"97 724 OFFCURVE",
"55 692 OFFCURVE",
"55 658 CURVE SMOOTH",
"55 624 OFFCURVE",
"69 590 OFFCURVE",
"146 590 CURVE SMOOTH",
"171 590 OFFCURVE",
"233 597 OFFCURVE",
"286 610 CURVE",
"286 567 LINE",
"123 546 OFFCURVE",
"45 438 OFFCURVE",
"45 281 CURVE SMOOTH",
"45 106 OFFCURVE",
"142 -10 OFFCURVE",
"343 -10 CURVE SMOOTH"
);
},
{
closed = 1;
nodes = (
"254 58 OFFCURVE",
"221 140 OFFCURVE",
"221 280 CURVE SMOOTH",
"221 420 OFFCURVE",
"254 502 OFFCURVE",
"344 502 CURVE SMOOTH",
"432 502 OFFCURVE",
"464 420 OFFCURVE",
"464 280 CURVE SMOOTH",
"464 140 OFFCURVE",
"432 58 OFFCURVE",
"343 58 CURVE SMOOTH"
);
}
);
width = 684;
},
{
background = {
paths = (
{
closed = 1;
nodes = (
"404 -10 OFFCURVE",
"485 103 OFFCURVE",
"485 298 CURVE SMOOTH",
"485 509 OFFCURVE",
"414 605 OFFCURVE",
"265 605 CURVE SMOOTH",
"118 605 OFFCURVE",
"44 497 OFFCURVE",
"44 299 CURVE SMOOTH",
"44 113 OFFCURVE",
"116 -10 OFFCURVE",
"264 -10 CURVE SMOOTH"
);
},
{
closed = 1;
nodes = (
"137 15 OFFCURVE",
"72 129 OFFCURVE",
"72 298 CURVE SMOOTH",
"72 476 OFFCURVE",
"131 580 OFFCURVE",
"265 580 CURVE SMOOTH",
"406 580 OFFCURVE",
"457 476 OFFCURVE",
"457 298 CURVE SMOOTH",
"457 123 OFFCURVE",
"392 15 OFFCURVE",
"264 15 CURVE SMOOTH"
);
},
{
closed = 1;
nodes = (
"289 685 OFFCURVE",
"332 694 OFFCURVE",
"387 694 CURVE SMOOTH",
"424 694 OFFCURVE",
"437 679 OFFCURVE",
"442 649 CURVE",
"466 655 OFFCURVE",
"481 668 OFFCURVE",
"481 685 CURVE SMOOTH",
"481 711 OFFCURVE",
"462 724 OFFCURVE",
"415 724 CURVE SMOOTH",
"387 724 OFFCURVE",
"345 714 OFFCURVE",
"290 703 CURVE SMOOTH",
"227 691 OFFCURVE",
"169 686 OFFCURVE",
"144 686 CURVE SMOOTH",
"114 686 OFFCURVE",
"91 694 OFFCURVE",
"89 724 CURVE",
"62 718 OFFCURVE",
"49 707 OFFCURVE",
"49 693 CURVE SMOOTH",
"49 670 OFFCURVE",
"68 659 OFFCURVE",
"116 659 CURVE SMOOTH",
"161 659 OFFCURVE",
"203 665 OFFCURVE",
"242 674 CURVE SMOOTH"
);
},
{
closed = 1;
nodes = (
"253 593 LINE",
"278 593 LINE",
"278 687 LINE",
"253 687 LINE"
);
}
);
};
layerId = "C91144B6-58F5-45F2-9CE4-7ED6CE127FD4";
name = "Light Condensed";
paths = (
{
closed = 1;
nodes = (
"404 -10 OFFCURVE",
"485 103 OFFCURVE",
"485 298 CURVE SMOOTH",
"485 503 OFFCURVE",
"418 599 OFFCURVE",
"278 605 CURVE",
"278 680 LINE",
"313 687 OFFCURVE",
"361 696 OFFCURVE",
"396 696 CURVE SMOOTH",
"424 696 OFFCURVE",
"437 682 OFFCURVE",
"442 649 CURVE",
"459 656 OFFCURVE",
"471 668 OFFCURVE",
"471 685 CURVE SMOOTH",
"471 711 OFFCURVE",
"452 724 OFFCURVE",
"415 724 CURVE SMOOTH",
"387 724 OFFCURVE",
"345 715 OFFCURVE",
"290 704 CURVE SMOOTH",
"227 691 OFFCURVE",
"169 684 OFFCURVE",
"144 684 CURVE SMOOTH",
"114 684 OFFCURVE",
"91 694 OFFCURVE",
"89 724 CURVE",
"69 718 OFFCURVE",
"59 707 OFFCURVE",
"59 693 CURVE SMOOTH",
"59 670 OFFCURVE",
"78 659 OFFCURVE",
"116 659 CURVE SMOOTH",
"161 659 OFFCURVE",
"202 666 OFFCURVE",
"253 675 CURVE",
"253 605 LINE",
"114 599 OFFCURVE",
"44 492 OFFCURVE",
"44 299 CURVE SMOOTH",
"44 113 OFFCURVE",
"116 -10 OFFCURVE",
"264 -10 CURVE SMOOTH"
);
},
{
closed = 1;
nodes = (
"137 15 OFFCURVE",
"72 129 OFFCURVE",
"72 298 CURVE SMOOTH",
"72 476 OFFCURVE",
"131 580 OFFCURVE",
"265 580 CURVE SMOOTH",
"406 580 OFFCURVE",
"457 476 OFFCURVE",
"457 298 CURVE SMOOTH",
"457 123 OFFCURVE",
"392 15 OFFCURVE",
"264 15 CURVE SMOOTH"
);
}
);
width = 530;
},
{
background = {
paths = (
{
closed = 1;
nodes = (
"435 -10 OFFCURVE",
"520 107 OFFCURVE",
"520 283 CURVE SMOOTH",
"520 460 OFFCURVE",
"435 575 OFFCURVE",
"283 575 CURVE SMOOTH",
"122 575 OFFCURVE",
"44 460 OFFCURVE",
"44 284 CURVE SMOOTH",
"44 107 OFFCURVE",
"122 -10 OFFCURVE",
"282 -10 CURVE SMOOTH"
);
},
{
closed = 1;
nodes = (
"166 37 OFFCURVE",
"116 128 OFFCURVE",
"116 283 CURVE SMOOTH",
"116 438 OFFCURVE",
"166 528 OFFCURVE",
"283 528 CURVE SMOOTH",
"404 528 OFFCURVE",
"448 438 OFFCURVE",
"448 283 CURVE SMOOTH",
"448 128 OFFCURVE",
"404 37 OFFCURVE",
"282 37 CURVE SMOOTH"
);
},
{
closed = 1;
nodes = (
"422 672 OFFCURVE",
"450 656 OFFCURVE",
"451 594 CURVE",
"478 604 OFFCURVE",
"505 627 OFFCURVE",
"505 657 CURVE SMOOTH",
"505 702 OFFCURVE",
"474 724 OFFCURVE",
"423 724 CURVE SMOOTH",
"393 724 OFFCURVE",
"352 707 OFFCURVE",
"280 687 CURVE SMOOTH",
"232 674 OFFCURVE",
"197 672 OFFCURVE",
"168 672 CURVE SMOOTH",
"136 672 OFFCURVE",
"122 689 OFFCURVE",
"119 724 CURVE",
"89 713 OFFCURVE",
"70 695 OFFCURVE",
"70 670 CURVE SMOOTH",
"70 630 OFFCURVE",
"96 611 OFFCURVE",
"138 611 CURVE SMOOTH",
"158 611 OFFCURVE",
"199 620 OFFCURVE",
"258 641 CURVE SMOOTH",
"316 662 OFFCURVE",
"376 672 OFFCURVE",
"392 672 CURVE SMOOTH"
);
},
{
closed = 1;
nodes = (
"254 563 LINE",
"312 563 LINE",
"312 667 LINE",
"254 667 LINE"
);
}
);
};
layerId = "E7C4F5EE-4982-479C-BF20-1C8706EFFC5D";
name = Condensed;
paths = (
{
closed = 1;
nodes = (
"440 -10 OFFCURVE",
"520 107 OFFCURVE",
"520 283 CURVE SMOOTH",
"520 450 OFFCURVE",
"446 560 OFFCURVE",
"312 574 CURVE",
"312 658 LINE",
"349 667 OFFCURVE",
"381 672 OFFCURVE",
"392 672 CURVE SMOOTH",
"422 672 OFFCURVE",
"450 656 OFFCURVE",
"451 594 CURVE",
"478 604 OFFCURVE",
"505 627 OFFCURVE",
"505 657 CURVE SMOOTH",
"505 702 OFFCURVE",
"474 724 OFFCURVE",
"423 724 CURVE SMOOTH",
"393 724 OFFCURVE",
"352 707 OFFCURVE",
"280 687 CURVE SMOOTH",
"232 674 OFFCURVE",
"197 672 OFFCURVE",
"168 672 CURVE SMOOTH",
"136 672 OFFCURVE",
"122 689 OFFCURVE",
"119 724 CURVE",
"89 713 OFFCURVE",
"70 695 OFFCURVE",
"70 670 CURVE SMOOTH",
"70 630 OFFCURVE",
"96 611 OFFCURVE",
"138 611 CURVE SMOOTH",
"158 611 OFFCURVE",
"197 620 OFFCURVE",
"254 640 CURVE",
"254 574 LINE",
"123 560 OFFCURVE",
"44 449 OFFCURVE",
"44 284 CURVE SMOOTH",
"44 107 OFFCURVE",
"122 -10 OFFCURVE",
"282 -10 CURVE SMOOTH"
);
},
{
closed = 1;
nodes = (
"166 37 OFFCURVE",
"116 128 OFFCURVE",
"116 283 CURVE SMOOTH",
"116 438 OFFCURVE",
"166 528 OFFCURVE",
"283 528 CURVE SMOOTH",
"404 528 OFFCURVE",
"448 438 OFFCURVE",
"448 283 CURVE SMOOTH",
"448 128 OFFCURVE",
"404 37 OFFCURVE",
"282 37 CURVE SMOOTH"
);
}
);
width = 565;
}
);
note = uni10A3;
unicode = 10A3;
},
{
color = 5;
glyphname = uni10A4;
lastChange = "2015-09-23 11:12:30 +0000";
layers = (
{
layerId = "5E7FF211-9823-4E5B-BC80-AC4B3CA4BC69";
name = Regular;
paths = (
{
closed = 1;
nodes = (
"521 491 LINE SMOOTH",
"521 644 OFFCURVE",
"441 724 OFFCURVE",
"287 724 CURVE SMOOTH",
"133 724 OFFCURVE",
"45 638 OFFCURVE",
"45 488 CURVE SMOOTH",
"45 425 LINE",
"146 425 LINE",
"146 482 LINE SMOOTH",
"146 611 OFFCURVE",
"186 670 OFFCURVE",
"283 670 CURVE SMOOTH",
"373 670 OFFCURVE",
"420 609 OFFCURVE",
"420 494 CURVE SMOOTH",
"420 0 LINE",
"521 0 LINE"
);
}
);
width = 621;
},
{
layerId = "101C8DBD-EDBB-4DB6-972E-FA2DBA854B69";
name = SemiBold;
paths = (
{
closed = 1;
nodes = (
"611 496 LINE SMOOTH",
"611 643 OFFCURVE",
"513 724 OFFCURVE",
"331 724 CURVE SMOOTH",
"140 724 OFFCURVE",
"45 648 OFFCURVE",
"45 496 CURVE SMOOTH",
"45 420 LINE",
"203 420 LINE",
"203 504 LINE SMOOTH",
"203 606 OFFCURVE",
"243 653 OFFCURVE",
"328 653 CURVE SMOOTH",
"408 653 OFFCURVE",
"453 601 OFFCURVE",
"453 504 CURVE SMOOTH",
"453 0 LINE",
"611 0 LINE"
);
}
);
width = 691;
},
{
layerId = "5E7C5774-385D-4E06-B68E-CBE970134A7B";
name = SemiLight;
paths = (
{
closed = 1;
nodes = (
"524 498 LINE",
"524 657 OFFCURVE",
"437 724 OFFCURVE",
"295 724 CURVE SMOOTH",
"141 724 OFFCURVE",
"66 630 OFFCURVE",
"66 495 CURVE SMOOTH",
"66 362 LINE",
"130 362 LINE",
"130 501 LINE SMOOTH",
"130 608 OFFCURVE",
"180 688 OFFCURVE",
"296 688 CURVE SMOOTH",
"400 688 OFFCURVE",
"460 630 OFFCURVE",
"460 507 CURVE SMOOTH",
"460 0 LINE",
"524 0 LINE"
);
}
);
width = 630;
},
{
layerId = "1D4F67F9-897D-45AD-B7F0-CA61A6862C03";
name = Light;
paths = (
{
closed = 1;
nodes = (
"491 500 LINE",
"491 663 OFFCURVE",
"409 724 OFFCURVE",
"281 724 CURVE SMOOTH",
"136 724 OFFCURVE",
"72 626 OFFCURVE",
"72 496 CURVE SMOOTH",
"72 368 LINE",
"100 368 LINE",
"100 495 LINE SMOOTH",
"100 608 OFFCURVE",
"152 699 OFFCURVE",
"283 699 CURVE SMOOTH",
"397 699 OFFCURVE",
"463 638 OFFCURVE",
"463 504 CURVE SMOOTH",
"463 0 LINE",
"491 0 LINE"
);
}
);
width = 601;
},
{
layerId = "75A83886-EED5-4C31-9670-660514D8A4F6";
name = "Bold Condensed";
paths = (
{
closed = 1;
nodes = (
"562 496 LINE",
"562 660 OFFCURVE",
"463 724 OFFCURVE",
"303 724 CURVE SMOOTH",
"120 724 OFFCURVE",
"54 634 OFFCURVE",
"54 500 CURVE SMOOTH",
"54 340 LINE",
"221 340 LINE",
"221 498 LINE SMOOTH",
"221 603 OFFCURVE",
"254 650 OFFCURVE",
"305 650 CURVE SMOOTH",
"369 650 OFFCURVE",
"395 615 OFFCURVE",
"395 504 CURVE SMOOTH",
"395 0 LINE",
"562 0 LINE"
);
}
);
width = 640;
},
{
layerId = "C91144B6-58F5-45F2-9CE4-7ED6CE127FD4";
name = "Light Condensed";
paths = (
{
closed = 1;
nodes = (
"415 500 LINE",
"415 659 OFFCURVE",
"345 724 OFFCURVE",
"242 724 CURVE SMOOTH",
"119 724 OFFCURVE",
"62 625 OFFCURVE",
"62 514 CURVE SMOOTH",
"62 370 LINE",
"90 370 LINE",
"90 512 LINE SMOOTH",
"90 600 OFFCURVE",
"129 699 OFFCURVE",
"241 699 CURVE SMOOTH",
"329 699 OFFCURVE",
"387 640 OFFCURVE",
"387 504 CURVE SMOOTH",
"387 0 LINE",
"415 0 LINE"
);
}
);
width = 507;
},
{
layerId = "E7C4F5EE-4982-479C-BF20-1C8706EFFC5D";
name = Condensed;
paths = (
{
closed = 1;
nodes = (
"453 499 LINE",
"453 659 OFFCURVE",
"376 724 OFFCURVE",
"258 724 CURVE SMOOTH",
"119 724 OFFCURVE",
"60 627 OFFCURVE",
"60 510 CURVE SMOOTH",
"60 362 LINE",
"124 362 LINE",
"124 508 LINE SMOOTH",
"124 601 OFFCURVE",
"161 677 OFFCURVE",
"258 677 CURVE SMOOTH",
"339 677 OFFCURVE",
"389 634 OFFCURVE",
"389 504 CURVE SMOOTH",
"389 0 LINE",
"453 0 LINE"
);
}
);
width = 535;
}
);
leftKerningGroup = uni10A2;
note = uni10A4;
rightKerningGroup = uni10A4;
unicode = 10A4;
},
{
color = 5;
glyphname = uni10A5;
lastChange = "2015-09-23 11:12:30 +0000";
layers = (
{
layerId = "5E7FF211-9823-4E5B-BC80-AC4B3CA4BC69";
name = Regular;
paths = (
{
closed = 1;
nodes = (
"692 217 OFFCURVE",
"722 242 OFFCURVE",
"722 286 CURVE SMOOTH",
"722 370 OFFCURVE",
"660 409 OFFCURVE",
"573 409 CURVE SMOOTH",
"521 409 LINE",
"521 491 LINE SMOOTH",
"521 644 OFFCURVE",
"441 724 OFFCURVE",
"287 724 CURVE SMOOTH",
"133 724 OFFCURVE",
"45 638 OFFCURVE",
"45 488 CURVE SMOOTH",
"45 425 LINE",
"146 425 LINE",
"146 482 LINE SMOOTH",
"146 611 OFFCURVE",
"186 670 OFFCURVE",
"283 670 CURVE SMOOTH",
"373 670 OFFCURVE",
"420 609 OFFCURVE",
"420 494 CURVE SMOOTH",
"420 0 LINE",
"521 0 LINE",
"521 355 LINE",
"529 355 LINE SMOOTH",
"611 355 OFFCURVE",
"644 313 OFFCURVE",
"644 217 CURVE"
);
}
);
width = 742;
},
{
layerId = "101C8DBD-EDBB-4DB6-972E-FA2DBA854B69";
name = SemiBold;
paths = (
{
closed = 1;
nodes = (
"791 220 OFFCURVE",
"836 260 OFFCURVE",
"836 318 CURVE SMOOTH",
"836 385 OFFCURVE",
"755 414 OFFCURVE",
"659 414 CURVE SMOOTH",
"611 414 LINE",
"611 496 LINE SMOOTH",
"611 643 OFFCURVE",
"513 724 OFFCURVE",
"331 724 CURVE SMOOTH",
"140 724 OFFCURVE",
"45 648 OFFCURVE",
"45 496 CURVE SMOOTH",
"45 420 LINE",
"203 420 LINE",
"203 504 LINE SMOOTH",
"203 606 OFFCURVE",
"243 653 OFFCURVE",
"328 653 CURVE SMOOTH",
"408 653 OFFCURVE",
"453 601 OFFCURVE",
"453 504 CURVE SMOOTH",
"453 0 LINE",
"611 0 LINE",
"611 352 LINE",
"615 352 LINE SMOOTH",
"682 351 OFFCURVE",
"716 323 OFFCURVE",
"716 220 CURVE"
);
}
);
width = 851;
},
{
layerId = "5E7C5774-385D-4E06-B68E-CBE970134A7B";
name = SemiLight;
paths = (
{
closed = 1;
nodes = (
"668 254 OFFCURVE",
"687 272 OFFCURVE",
"687 302 CURVE SMOOTH",
"687 358 OFFCURVE",
"652 386 OFFCURVE",
"551 386 CURVE SMOOTH",
"524 386 LINE",
"524 498 LINE SMOOTH",
"524 657 OFFCURVE",
"437 724 OFFCURVE",
"295 724 CURVE SMOOTH",
"141 724 OFFCURVE",
"66 630 OFFCURVE",
"66 495 CURVE SMOOTH",
"66 362 LINE",
"130 362 LINE",
"130 501 LINE SMOOTH",
"130 608 OFFCURVE",
"180 688 OFFCURVE",
"296 688 CURVE SMOOTH",
"400 688 OFFCURVE",
"460 630 OFFCURVE",
"460 507 CURVE SMOOTH",
"460 0 LINE",
"524 0 LINE",
"524 350 LINE",
"544 350 LINE SMOOTH",
"621 350 OFFCURVE",
"634 328 OFFCURVE",
"634 254 CURVE"
);
}
);
width = 707;
},
{
layerId = "1D4F67F9-897D-45AD-B7F0-CA61A6862C03";
name = Light;
paths = (
{
closed = 1;
nodes = (
"640 260 OFFCURVE",
"650 271 OFFCURVE",
"650 289 CURVE SMOOTH",
"650 334 OFFCURVE",
"623 365 OFFCURVE",
"530 365 CURVE SMOOTH",
"491 365 LINE",
"491 500 LINE SMOOTH",
"491 663 OFFCURVE",
"409 724 OFFCURVE",
"281 724 CURVE SMOOTH",
"136 724 OFFCURVE",
"72 626 OFFCURVE",
"72 496 CURVE SMOOTH",
"72 368 LINE",
"100 368 LINE",
"100 495 LINE SMOOTH",
"100 608 OFFCURVE",
"152 699 OFFCURVE",
"283 699 CURVE SMOOTH",
"397 699 OFFCURVE",
"463 638 OFFCURVE",
"463 504 CURVE SMOOTH",
"463 0 LINE",
"491 0 LINE",
"491 340 LINE",
"526 340 LINE SMOOTH",
"602 340 OFFCURVE",
"623 324 OFFCURVE",
"623 259 CURVE"
);
}
);
width = 675;
},
{
layerId = "75A83886-EED5-4C31-9670-660514D8A4F6";
name = "Bold Condensed";
paths = (
{
closed = 1;
nodes = (
"747 220 OFFCURVE",
"786 260 OFFCURVE",
"786 319 CURVE SMOOTH",
"786 396 OFFCURVE",
"702 428 OFFCURVE",
"571 428 CURVE SMOOTH",
"562 428 LINE",
"562 496 LINE SMOOTH",
"562 660 OFFCURVE",
"463 724 OFFCURVE",
"303 724 CURVE SMOOTH",
"120 724 OFFCURVE",
"54 634 OFFCURVE",
"54 500 CURVE SMOOTH",
"54 340 LINE",
"221 340 LINE",
"221 498 LINE SMOOTH",
"221 603 OFFCURVE",
"254 650 OFFCURVE",
"305 650 CURVE SMOOTH",
"369 650 OFFCURVE",
"395 615 OFFCURVE",
"395 504 CURVE SMOOTH",
"395 0 LINE",
"562 0 LINE",
"562 360 LINE",
"580 360 LINE SMOOTH",
"636 360 OFFCURVE",
"672 328 OFFCURVE",
"672 220 CURVE"
);
}
);
width = 796;
},
{
layerId = "C91144B6-58F5-45F2-9CE4-7ED6CE127FD4";
name = "Light Condensed";
paths = (
{
closed = 1;
nodes = (
"522 279 OFFCURVE",
"532 290 OFFCURVE",
"532 309 CURVE SMOOTH",
"532 368 OFFCURVE",
"496 385 OFFCURVE",
"452 385 CURVE SMOOTH",
"415 385 LINE",
"415 500 LINE SMOOTH",
"415 659 OFFCURVE",
"345 724 OFFCURVE",
"242 724 CURVE SMOOTH",
"119 724 OFFCURVE",
"62 625 OFFCURVE",
"62 514 CURVE SMOOTH",
"62 370 LINE",
"90 370 LINE",
"90 512 LINE SMOOTH",
"90 600 OFFCURVE",
"129 699 OFFCURVE",
"241 699 CURVE SMOOTH",
"329 699 OFFCURVE",
"387 640 OFFCURVE",
"387 504 CURVE SMOOTH",
"387 0 LINE",
"415 0 LINE",
"415 360 LINE",
"447 360 LINE SMOOTH",
"488 360 OFFCURVE",
"505 345 OFFCURVE",
"505 279 CURVE"
);
}
);
width = 542;
},
{
layerId = "E7C4F5EE-4982-479C-BF20-1C8706EFFC5D";
name = Condensed;
paths = (
{
closed = 1;
nodes = (
"580 264 OFFCURVE",
"598 291 OFFCURVE",
"598 320 CURVE SMOOTH",
"598 387 OFFCURVE",
"546 405 OFFCURVE",
"483 405 CURVE SMOOTH",
"453 405 LINE",
"453 499 LINE SMOOTH",
"453 659 OFFCURVE",
"376 724 OFFCURVE",
"258 724 CURVE SMOOTH",
"119 724 OFFCURVE",
"60 627 OFFCURVE",
"60 510 CURVE SMOOTH",
"60 362 LINE",
"124 362 LINE",
"124 508 LINE SMOOTH",
"124 601 OFFCURVE",
"161 677 OFFCURVE",
"258 677 CURVE SMOOTH",
"339 677 OFFCURVE",
"389 634 OFFCURVE",
"389 504 CURVE SMOOTH",
"389 0 LINE",
"453 0 LINE",
"453 360 LINE",
"480 360 LINE SMOOTH",
"523 360 OFFCURVE",
"548 340 OFFCURVE",
"548 264 CURVE"
);
}
);
width = 608;
}
);
leftKerningGroup = uni10A2;
note = uni10A5;
rightKerningGroup = uni10A5;
unicode = 10A5;
},
{
color = 5;
glyphname = uni10A6;
lastChange = "2015-09-23 11:12:30 +0000";
layers = (
{
layerId = "5E7FF211-9823-4E5B-BC80-AC4B3CA4BC69";
name = Regular;
paths = (
{
closed = 1;
nodes = (
"577 -10 OFFCURVE",
"673 93 OFFCURVE",
"673 269 CURVE SMOOTH",
"673 445 OFFCURVE",
"581 546 OFFCURVE",
"427 546 CURVE SMOOTH",
"369 546 OFFCURVE",
"319 520 OFFCURVE",
"290 480 CURVE",
"285 480 LINE",
"288 518 OFFCURVE",
"289 546 OFFCURVE",
"289 565 CURVE SMOOTH",
"289 714 LINE",
"20 714 LINE",
"20 660 LINE",
"188 660 LINE",
"188 269 LINE SMOOTH",
"188 96 OFFCURVE",
"279 -10 OFFCURVE",
"424 -10 CURVE SMOOTH"
);
},
{
closed = 1;
nodes = (
"332 42 OFFCURVE",
"289 111 OFFCURVE",
"289 269 CURVE SMOOTH",
"289 412 OFFCURVE",
"335 494 OFFCURVE",
"425 494 CURVE SMOOTH",
"521 494 OFFCURVE",
"562 426 OFFCURVE",
"562 269 CURVE SMOOTH",
"562 112 OFFCURVE",
"520 42 OFFCURVE",
"426 42 CURVE SMOOTH"
);
}
);
width = 734;
},
{
layerId = "101C8DBD-EDBB-4DB6-972E-FA2DBA854B69";
name = SemiBold;
paths = (
{
closed = 1;
nodes = (
"594 -10 OFFCURVE",
"691 89 OFFCURVE",
"691 270 CURVE SMOOTH",
"691 454 OFFCURVE",
"616 548 OFFCURVE",
"471 548 CURVE SMOOTH",
"397 548 OFFCURVE",
"347 524 OFFCURVE",
"312 468 CURVE",
"305 468 LINE",
"311 529 OFFCURVE",
"313 569 OFFCURVE",
"313 589 CURVE SMOOTH",
"313 714 LINE",
"15 714 LINE",
"15 643 LINE",
"155 643 LINE",
"155 270 LINE SMOOTH",
"155 90 OFFCURVE",
"249 -10 OFFCURVE",
"416 -10 CURVE SMOOTH"
);
},
{
closed = 1;
nodes = (
"347 55 OFFCURVE",
"313 111 OFFCURVE",
"313 260 CURVE SMOOTH",
"313 412 OFFCURVE",
"345 464 OFFCURVE",
"422 464 CURVE SMOOTH",
"494 464 OFFCURVE",
"523 396 OFFCURVE",
"523 261 CURVE SMOOTH",
"523 128 OFFCURVE",
"494 55 OFFCURVE",
"423 55 CURVE SMOOTH"
);
}
);
width = 746;
},
{
layerId = "5E7C5774-385D-4E06-B68E-CBE970134A7B";
name = SemiLight;
paths = (
{
closed = 1;
nodes = (
"633 -10 OFFCURVE",
"698 111 OFFCURVE",
"698 266 CURVE SMOOTH",
"698 447 OFFCURVE",
"636 544 OFFCURVE",
"467 544 CURVE SMOOTH",
"374 544 OFFCURVE",
"333 509 OFFCURVE",
"297 448 CURVE",
"293 448 LINE",
"295 479 OFFCURVE",
"296 511 OFFCURVE",
"296 543 CURVE",
"296 714 LINE",
"22 714 LINE",
"22 671 LINE",
"231 671 LINE",
"231 264 LINE SMOOTH",
"231 99 OFFCURVE",
"291 -10 OFFCURVE",
"466 -10 CURVE SMOOTH"
);
},
{
closed = 1;
nodes = (
"323 33 OFFCURVE",
"296 122 OFFCURVE",
"296 265 CURVE SMOOTH",
"296 451 OFFCURVE",
"357 497 OFFCURVE",
"467 497 CURVE SMOOTH",
"585 497 OFFCURVE",
"629 425 OFFCURVE",
"629 259 CURVE SMOOTH",
"629 116 OFFCURVE",
"589 33 OFFCURVE",
"466 33 CURVE SMOOTH"
);
}
);
width = 743;
},
{
layerId = "1D4F67F9-897D-45AD-B7F0-CA61A6862C03";
name = Light;
paths = (
{
closed = 1;
nodes = (
"581 -10 OFFCURVE",
"668 82 OFFCURVE",
"668 264 CURVE SMOOTH",
"668 459 OFFCURVE",
"594 542 OFFCURVE",
"454 542 CURVE SMOOTH",
"350 542 OFFCURVE",
"294 495 OFFCURVE",
"260 417 CURVE",
"257 417 LINE",
"259 449 OFFCURVE",
"260 482 OFFCURVE",
"260 524 CURVE SMOOTH",
"260 714 LINE",
"24 714 LINE",
"24 689 LINE",
"232 689 LINE",
"232 256 LINE SMOOTH",
"232 88 OFFCURVE",
"292 -10 OFFCURVE",
"449 -10 CURVE SMOOTH"
);
},
{
closed = 1;
nodes = (
"310 15 OFFCURVE",
"260 102 OFFCURVE",
"260 269 CURVE SMOOTH",
"260 437 OFFCURVE",
"325 517 OFFCURVE",
"448 517 CURVE SMOOTH",
"582 517 OFFCURVE",
"640 441 OFFCURVE",
"640 264 CURVE SMOOTH",
"640 111 OFFCURVE",
"578 15 OFFCURVE",
"449 15 CURVE SMOOTH"
);
}
);
width = 722;
},
{
layerId = "75A83886-EED5-4C31-9670-660514D8A4F6";
name = "Bold Condensed";
paths = (
{
closed = 1;
nodes = (
"571 -10 OFFCURVE",
"648 98 OFFCURVE",
"648 282 CURVE SMOOTH",
"648 452 OFFCURVE",
"586 550 OFFCURVE",
"468 550 CURVE SMOOTH",
"412 550 OFFCURVE",
"378 536 OFFCURVE",
"342 478 CURVE",
"338 478 LINE",
"341 502 OFFCURVE",
"342 526 OFFCURVE",
"342 550 CURVE SMOOTH",
"342 714 LINE",
"10 714 LINE",
"10 650 LINE",
"175 650 LINE",
"175 269 LINE SMOOTH",
"175 92 OFFCURVE",
"230 -10 OFFCURVE",
"407 -10 CURVE SMOOTH"
);
},
{
closed = 1;
nodes = (
"362 52 OFFCURVE",
"342 101 OFFCURVE",
"342 281 CURVE SMOOTH",
"342 397 OFFCURVE",
"363 464 OFFCURVE",
"402 464 CURVE SMOOTH",
"444 464 OFFCURVE",
"469 440 OFFCURVE",
"469 268 CURVE SMOOTH",
"469 106 OFFCURVE",
"439 52 OFFCURVE",
"402 52 CURVE SMOOTH"
);
}
);
width = 672;
},
{
layerId = "C91144B6-58F5-45F2-9CE4-7ED6CE127FD4";
name = "Light Condensed";
paths = (
{
closed = 1;
nodes = (
"430 -10 OFFCURVE",
"481 100 OFFCURVE",
"481 266 CURVE SMOOTH",
"481 451 OFFCURVE",
"430 542 OFFCURVE",
"318 542 CURVE SMOOTH",
"257 542 OFFCURVE",
"213 514 OFFCURVE",
"183 435 CURVE",
"179 435 LINE",
"180 456 OFFCURVE",
"181 476 OFFCURVE",
"181 497 CURVE SMOOTH",
"181 714 LINE",
"18 714 LINE",
"18 689 LINE",
"153 689 LINE",
"153 259 LINE SMOOTH",
"153 91 OFFCURVE",
"189 -10 OFFCURVE",
"307 -10 CURVE SMOOTH"
);
},
{
closed = 1;
nodes = (
"208 15 OFFCURVE",
"181 104 OFFCURVE",
"181 263 CURVE SMOOTH",
"181 445 OFFCURVE",
"228 517 OFFCURVE",
"316 517 CURVE SMOOTH",
"413 517 OFFCURVE",
"453 437 OFFCURVE",
"453 266 CURVE SMOOTH",
"453 125 OFFCURVE",
"418 15 OFFCURVE",
"307 15 CURVE SMOOTH"
);
}
);
width = 517;
},
{
layerId = "E7C4F5EE-4982-479C-BF20-1C8706EFFC5D";
name = Condensed;
paths = (
{
closed = 1;
nodes = (
"464 -7 OFFCURVE",
"521 114 OFFCURVE",
"521 268 CURVE SMOOTH",
"521 443 OFFCURVE",
"463 544 OFFCURVE",
"347 544 CURVE SMOOTH",
"291 544 OFFCURVE",
"248 518 OFFCURVE",
"218 457 CURVE",
"214 457 LINE",
"216 479 OFFCURVE",
"217 500 OFFCURVE",
"217 521 CURVE SMOOTH",
"217 714 LINE",
"15 714 LINE",
"15 671 LINE",
"152 671 LINE",
"152 262 LINE SMOOTH",
"152 56 OFFCURVE",
"215 -7 OFFCURVE",
"337 -7 CURVE SMOOTH"
);
},
{
closed = 1;
nodes = (
"244 31 OFFCURVE",
"217 107 OFFCURVE",
"217 260 CURVE SMOOTH",
"217 440 OFFCURVE",
"258 497 OFFCURVE",
"340 497 CURVE SMOOTH",
"410 497 OFFCURVE",
"453 434 OFFCURVE",
"453 259 CURVE SMOOTH",
"453 114 OFFCURVE",
"419 31 OFFCURVE",
"333 31 CURVE SMOOTH"
);
}
);
width = 554;
}
);
leftKerningGroup = uni10A8;
note = uni10A6;
rightKerningGroup = uni10A6;
unicode = 10A6;
},
{
color = 5;
glyphname = uni10A7;
lastChange = "2015-09-23 11:12:30 +0000";
layers = (
{
layerId = "5E7FF211-9823-4E5B-BC80-AC4B3CA4BC69";
name = Regular;
paths = (
{
closed = 1;
nodes = (
"594 0 LINE",
"594 355 LINE",
"602 355 LINE SMOOTH",
"684 355 OFFCURVE",
"717 313 OFFCURVE",
"717 217 CURVE",
"765 217 OFFCURVE",
"795 242 OFFCURVE",
"795 286 CURVE SMOOTH",
"795 370 OFFCURVE",
"732 409 OFFCURVE",
"637 409 CURVE SMOOTH",
"594 409 LINE",
"594 714 LINE",
"383 714 LINE SMOOTH",
"174 714 OFFCURVE",
"57 584 OFFCURVE",
"57 356 CURVE SMOOTH",
"57 130 OFFCURVE",
"176 0 OFFCURVE",
"383 0 CURVE SMOOTH"
);
},
{
closed = 1;
nodes = (
"247 50 OFFCURVE",
"168 158 OFFCURVE",
"168 356 CURVE SMOOTH",
"168 557 OFFCURVE",
"248 663 OFFCURVE",
"406 663 CURVE SMOOTH",
"493 663 LINE",
"493 50 LINE",
"405 50 LINE SMOOTH"
);
}
);
width = 815;
},
{
layerId = "101C8DBD-EDBB-4DB6-972E-FA2DBA854B69";
name = SemiBold;
paths = (
{
closed = 1;
nodes = (
"646 0 LINE",
"646 352 LINE",
"651 352 LINE",
"718 352 OFFCURVE",
"751 323 OFFCURVE",
"751 220 CURVE",
"820 220 OFFCURVE",
"871 257 OFFCURVE",
"871 304 CURVE SMOOTH",
"871 376 OFFCURVE",
"810 414 OFFCURVE",
"701 414 CURVE SMOOTH",
"646 414 LINE",
"646 714 LINE",
"409 714 LINE SMOOTH",
"181 714 OFFCURVE",
"55 591 OFFCURVE",
"55 370 CURVE SMOOTH",
"55 142 OFFCURVE",
"184 0 OFFCURVE",
"409 0 CURVE SMOOTH"
);
},
{
closed = 1;
nodes = (
"299 62 OFFCURVE",
"224 174 OFFCURVE",
"224 370 CURVE SMOOTH",
"224 559 OFFCURVE",
"293 653 OFFCURVE",
"431 653 CURVE SMOOTH",
"488 653 LINE",
"488 62 LINE",
"432 62 LINE SMOOTH"
);
}
);
width = 886;
},
{
layerId = "5E7C5774-385D-4E06-B68E-CBE970134A7B";
name = SemiLight;
paths = (
{
closed = 1;
nodes = (
"561 0 LINE",
"561 350 LINE",
"581 350 LINE SMOOTH",
"658 350 OFFCURVE",
"671 328 OFFCURVE",
"671 254 CURVE",
"705 254 OFFCURVE",
"724 272 OFFCURVE",
"724 302 CURVE SMOOTH",
"724 358 OFFCURVE",
"689 386 OFFCURVE",
"588 386 CURVE SMOOTH",
"561 386 LINE",
"561 714 LINE",
"367 714 LINE SMOOTH",
"170 714 OFFCURVE",
"59 577 OFFCURVE",
"59 350 CURVE SMOOTH",
"59 131 OFFCURVE",
"160 0 OFFCURVE",
"367 0 CURVE SMOOTH"
);
},
{
closed = 1;
nodes = (
"217 44 OFFCURVE",
"132 148 OFFCURVE",
"132 350 CURVE SMOOTH",
"132 553 OFFCURVE",
"217 671 OFFCURVE",
"388 671 CURVE SMOOTH",
"496 671 LINE",
"496 44 LINE",
"389 44 LINE SMOOTH"
);
}
);
width = 744;
},
{
layerId = "1D4F67F9-897D-45AD-B7F0-CA61A6862C03";
name = Light;
paths = (
{
closed = 1;
nodes = (
"528 0 LINE",
"528 340 LINE",
"563 340 LINE SMOOTH",
"639 340 OFFCURVE",
"660 324 OFFCURVE",
"660 259 CURVE",
"679 259 OFFCURVE",
"687 270 OFFCURVE",
"687 289 CURVE SMOOTH",
"687 335 OFFCURVE",
"660 365 OFFCURVE",
"570 365 CURVE SMOOTH",
"528 365 LINE",
"528 714 LINE",
"362 714 LINE SMOOTH",
"163 714 OFFCURVE",
"61 569 OFFCURVE",
"61 342 CURVE SMOOTH",
"61 123 OFFCURVE",
"154 0 OFFCURVE",
"358 0 CURVE SMOOTH"
);
},
{
closed = 1;
nodes = (
"172 25 OFFCURVE",
"89 132 OFFCURVE",
"89 342 CURVE SMOOTH",
"89 552 OFFCURVE",
"174 689 OFFCURVE",
"371 689 CURVE SMOOTH",
"500 689 LINE",
"500 25 LINE",
"372 25 LINE SMOOTH"
);
}
);
width = 712;
},
{
layerId = "75A83886-EED5-4C31-9670-660514D8A4F6";
name = "Bold Condensed";
paths = (
{
closed = 1;
nodes = (
"570 0 LINE",
"570 360 LINE",
"588 360 LINE SMOOTH",
"644 360 OFFCURVE",
"680 328 OFFCURVE",
"680 220 CURVE",
"755 220 OFFCURVE",
"794 260 OFFCURVE",
"794 319 CURVE SMOOTH",
"794 396 OFFCURVE",
"710 428 OFFCURVE",
"579 428 CURVE SMOOTH",
"570 428 LINE",
"570 714 LINE",
"356 714 LINE SMOOTH",
"163 714 OFFCURVE",
"44 590 OFFCURVE",
"44 363 CURVE SMOOTH",
"44 144 OFFCURVE",
"152 0 OFFCURVE",
"356 0 CURVE SMOOTH"
);
},
{
closed = 1;
nodes = (
"276 65 OFFCURVE",
"221 174 OFFCURVE",
"221 363 CURVE SMOOTH",
"221 553 OFFCURVE",
"276 650 OFFCURVE",
"376 650 CURVE SMOOTH",
"403 650 LINE",
"403 65 LINE",
"376 65 LINE SMOOTH"
);
}
);
width = 804;
},
{
layerId = "C91144B6-58F5-45F2-9CE4-7ED6CE127FD4";
name = "Light Condensed";
paths = (
{
closed = 1;
nodes = (
"412 0 LINE",
"412 360 LINE",
"444 360 LINE SMOOTH",
"485 360 OFFCURVE",
"502 345 OFFCURVE",
"502 279 CURVE",
"519 279 OFFCURVE",
"529 290 OFFCURVE",
"529 309 CURVE SMOOTH",
"529 368 OFFCURVE",
"493 385 OFFCURVE",
"449 385 CURVE SMOOTH",
"412 385 LINE",
"412 714 LINE",
"287 714 LINE SMOOTH",
"127 714 OFFCURVE",
"45 576 OFFCURVE",
"45 343 CURVE SMOOTH",
"45 124 OFFCURVE",
"119 0 OFFCURVE",
"288 0 CURVE SMOOTH"
);
},
{
closed = 1;
nodes = (
"144 25 OFFCURVE",
"73 128 OFFCURVE",
"73 343 CURVE SMOOTH",
"73 557 OFFCURVE",
"144 689 OFFCURVE",
"287 689 CURVE SMOOTH",
"384 689 LINE",
"384 25 LINE",
"288 25 LINE SMOOTH"
);
}
);
width = 539;
},
{
layerId = "E7C4F5EE-4982-479C-BF20-1C8706EFFC5D";
name = Condensed;
paths = (
{
closed = 1;
nodes = (
"448 0 LINE",
"448 360 LINE",
"475 360 LINE SMOOTH",
"518 360 OFFCURVE",
"543 340 OFFCURVE",
"543 264 CURVE",
"575 264 OFFCURVE",
"593 291 OFFCURVE",
"593 320 CURVE SMOOTH",
"593 387 OFFCURVE",
"541 405 OFFCURVE",
"478 405 CURVE SMOOTH",
"448 405 LINE",
"448 714 LINE",
"291 714 LINE SMOOTH",
"135 714 OFFCURVE",
"45 577 OFFCURVE",
"45 350 CURVE SMOOTH",
"45 131 OFFCURVE",
"126 0 OFFCURVE",
"291 0 CURVE SMOOTH"
);
},
{
closed = 1;
nodes = (
"180 44 OFFCURVE",
"116 148 OFFCURVE",
"116 350 CURVE SMOOTH",
"116 553 OFFCURVE",
"180 671 OFFCURVE",
"307 671 CURVE SMOOTH",
"383 671 LINE",
"383 44 LINE",
"308 44 LINE SMOOTH"
);
}
);
width = 603;
}
);
leftKerningGroup = uni10A7;
note = uni10A7;
unicode = 10A7;
},
{
color = 5;
glyphname = uni10A8;
lastChange = "2015-09-23 11:12:30 +0000";
layers = (
{
layerId = "5E7FF211-9823-4E5B-BC80-AC4B3CA4BC69";
name = Regular;
paths = (
{
closed = 1;
nodes = (
"380 0 LINE",
"380 714 LINE",
"20 714 LINE",
"20 660 LINE",
"279 660 LINE",
"279 0 LINE"
);
}
);
width = 480;
},
{
layerId = "101C8DBD-EDBB-4DB6-972E-FA2DBA854B69";
name = SemiBold;
paths = (
{
closed = 1;
nodes = (
"413 0 LINE",
"413 714 LINE",
"15 714 LINE",
"15 643 LINE",
"255 643 LINE",
"255 0 LINE"
);
}
);
width = 498;
},
{
layerId = "5E7C5774-385D-4E06-B68E-CBE970134A7B";
name = SemiLight;
paths = (
{
closed = 1;
nodes = (
"312 0 LINE",
"312 714 LINE",
"22 714 LINE",
"22 671 LINE",
"248 671 LINE",
"248 0 LINE"
);
}
);
width = 424;
},
{
layerId = "1D4F67F9-897D-45AD-B7F0-CA61A6862C03";
name = Light;
paths = (
{
closed = 1;
nodes = (
"289 0 LINE",
"289 714 LINE",
"24 714 LINE",
"24 689 LINE",
"261 689 LINE",
"261 0 LINE"
);
}
);
width = 404;
},
{
layerId = "75A83886-EED5-4C31-9670-660514D8A4F6";
name = "Bold Condensed";
paths = (
{
closed = 1;
nodes = (
"344 0 LINE",
"344 714 LINE",
"10 714 LINE",
"10 650 LINE",
"175 650 LINE",
"175 0 LINE"
);
}
);
width = 430;
},
{
layerId = "C91144B6-58F5-45F2-9CE4-7ED6CE127FD4";
name = "Light Condensed";
paths = (
{
closed = 1;
nodes = (
"181 0 LINE",
"181 714 LINE",
"18 714 LINE",
"18 689 LINE",
"153 689 LINE",
"153 0 LINE"
);
}
);
width = 281;
},
{
layerId = "E7C4F5EE-4982-479C-BF20-1C8706EFFC5D";
name = Condensed;
paths = (
{
closed = 1;
nodes = (
"216 0 LINE",
"216 714 LINE",
"15 714 LINE",
"15 671 LINE",
"152 671 LINE",
"152 0 LINE"
);
}
);
width = 310;
}
);
leftKerningGroup = uni10A8;
note = uni10A8;
rightKerningGroup = uni10A1;
unicode = 10A8;
},
{
color = 5;
glyphname = uni10A9;
lastChange = "2015-09-23 11:12:30 +0000";
layers = (
{
layerId = "5E7FF211-9823-4E5B-BC80-AC4B3CA4BC69";
name = Regular;
paths = (
{
closed = 1;
nodes = (
"575 -240 LINE",
"575 294 LINE SMOOTH",
"575 447 OFFCURVE",
"491 546 OFFCURVE",
"347 546 CURVE SMOOTH",
"276 546 OFFCURVE",
"223 522 OFFCURVE",
"192 480 CURVE",
"187 480 LINE",
"189 518 OFFCURVE",
"191 546 OFFCURVE",
"191 565 CURVE SMOOTH",
"191 714 LINE",
"20 714 LINE",
"20 672 LINE",
"28 672 LINE SMOOTH",
"71 672 OFFCURVE",
"90 643 OFFCURVE",
"90 604 CURVE SMOOTH",
"90 255 LINE SMOOTH",
"90 105 OFFCURVE",
"172 -10 OFFCURVE",
"311 -10 CURVE SMOOTH",
"388 -10 OFFCURVE",
"442 12 OFFCURVE",
"473 56 CURVE",
"478 56 LINE",
"476 17 OFFCURVE",
"474 -11 OFFCURVE",
"474 -29 CURVE SMOOTH",
"474 -240 LINE"
);
},
{
closed = 1;
nodes = (
"240 42 OFFCURVE",
"191 118 OFFCURVE",
"191 255 CURVE SMOOTH",
"191 415 OFFCURVE",
"236 494 OFFCURVE",
"334 494 CURVE SMOOTH",
"423 494 OFFCURVE",
"474 421 OFFCURVE",
"474 290 CURVE SMOOTH",
"474 124 OFFCURVE",
"428 42 OFFCURVE",
"320 42 CURVE SMOOTH"
);
}
);
width = 655;
},
{
layerId = "101C8DBD-EDBB-4DB6-972E-FA2DBA854B69";
name = SemiBold;
paths = (
{
closed = 1;
nodes = (
"635 -240 LINE",
"635 270 LINE SMOOTH",
"635 444 OFFCURVE",
"550 549 OFFCURVE",
"404 549 CURVE SMOOTH",
"334 549 OFFCURVE",
"285 530 OFFCURVE",
"257 493 CURVE",
"250 493 LINE",
"255 536 OFFCURVE",
"258 568 OFFCURVE",
"258 589 CURVE SMOOTH",
"258 714 LINE",
"17 714 LINE",
"17 661 LINE",
"21 661 LINE SMOOTH",
"79 661 OFFCURVE",
"100 639 OFFCURVE",
"100 594 CURVE SMOOTH",
"100 270 LINE SMOOTH",
"100 95 OFFCURVE",
"180 -10 OFFCURVE",
"331 -10 CURVE SMOOTH",
"401 -10 OFFCURVE",
"450 9 OFFCURVE",
"478 46 CURVE",
"485 46 LINE",
"479 -11 OFFCURVE",
"477 -50 OFFCURVE",
"477 -70 CURVE SMOOTH",
"477 -240 LINE"
);
},
{
closed = 1;
nodes = (
"291 55 OFFCURVE",
"258 126 OFFCURVE",
"258 270 CURVE SMOOTH",
"258 414 OFFCURVE",
"290 484 OFFCURVE",
"367 484 CURVE SMOOTH",
"444 484 OFFCURVE",
"477 414 OFFCURVE",
"477 270 CURVE SMOOTH",
"477 126 OFFCURVE",
"445 55 OFFCURVE",
"368 55 CURVE SMOOTH"
);
}
);
width = 708;
},
{
layerId = "5E7C5774-385D-4E06-B68E-CBE970134A7B";
name = SemiLight;
paths = (
{
closed = 1;
nodes = (
"583 -240 LINE",
"583 267 LINE SMOOTH",
"583 451 OFFCURVE",
"521 544 OFFCURVE",
"361 544 CURVE SMOOTH",
"259 544 OFFCURVE",
"218 509 OFFCURVE",
"182 448 CURVE",
"178 448 LINE",
"180 479 OFFCURVE",
"181 511 OFFCURVE",
"181 543 CURVE SMOOTH",
"181 714 LINE",
"20 714 LINE",
"20 679 LINE",
"53 679 LINE SMOOTH",
"100 679 OFFCURVE",
"116 656 OFFCURVE",
"116 610 CURVE SMOOTH",
"116 267 LINE SMOOTH",
"116 83 OFFCURVE",
"178 -10 OFFCURVE",
"335 -10 CURVE SMOOTH",
"440 -10 OFFCURVE",
"481 25 OFFCURVE",
"517 86 CURVE",
"521 86 LINE",
"519 55 OFFCURVE",
"518 23 OFFCURVE",
"518 -9 CURVE SMOOTH",
"518 -240 LINE"
);
},
{
closed = 1;
nodes = (
"229 37 OFFCURVE",
"181 105 OFFCURVE",
"181 267 CURVE SMOOTH",
"181 455 OFFCURVE",
"242 497 OFFCURVE",
"352 497 CURVE SMOOTH",
"470 497 OFFCURVE",
"518 429 OFFCURVE",
"518 267 CURVE SMOOTH",
"518 79 OFFCURVE",
"457 37 OFFCURVE",
"347 37 CURVE SMOOTH"
);
}
);
width = 669;
},
{
layerId = "1D4F67F9-897D-45AD-B7F0-CA61A6862C03";
name = Light;
paths = (
{
closed = 1;
nodes = (
"555 -240 LINE",
"555 260 LINE SMOOTH",
"555 456 OFFCURVE",
"481 542 OFFCURVE",
"341 542 CURVE SMOOTH",
"237 542 OFFCURVE",
"181 495 OFFCURVE",
"147 417 CURVE",
"144 417 LINE",
"146 449 OFFCURVE",
"147 482 OFFCURVE",
"147 524 CURVE SMOOTH",
"147 714 LINE",
"20 714 LINE",
"20 694 LINE",
"63 694 LINE SMOOTH",
"113 694 OFFCURVE",
"119 683 OFFCURVE",
"119 606 CURVE SMOOTH",
"119 260 LINE SMOOTH",
"119 64 OFFCURVE",
"193 -22 OFFCURVE",
"333 -22 CURVE SMOOTH",
"437 -22 OFFCURVE",
"493 25 OFFCURVE",
"527 103 CURVE",
"530 103 LINE",
"528 71 OFFCURVE",
"527 38 OFFCURVE",
"527 -4 CURVE SMOOTH",
"527 -240 LINE"
);
},
{
closed = 1;
nodes = (
"205 3 OFFCURVE",
"147 82 OFFCURVE",
"147 260 CURVE SMOOTH",
"147 434 OFFCURVE",
"212 517 OFFCURVE",
"335 517 CURVE SMOOTH",
"469 517 OFFCURVE",
"527 438 OFFCURVE",
"527 260 CURVE SMOOTH",
"527 86 OFFCURVE",
"462 3 OFFCURVE",
"339 3 CURVE SMOOTH"
);
}
);
width = 643;
},
{
layerId = "75A83886-EED5-4C31-9670-660514D8A4F6";
name = "Bold Condensed";
paths = (
{
closed = 1;
nodes = (
"559 -225 LINE",
"559 270 LINE SMOOTH",
"559 457 OFFCURVE",
"501 550 OFFCURVE",
"383 550 CURVE SMOOTH",
"327 550 OFFCURVE",
"293 536 OFFCURVE",
"253 478 CURVE",
"249 478 LINE",
"252 502 OFFCURVE",
"253 526 OFFCURVE",
"253 550 CURVE SMOOTH",
"253 714 LINE",
"16 714 LINE",
"16 658 LINE",
"42 658 LINE SMOOTH",
"72 658 OFFCURVE",
"86 651 OFFCURVE",
"86 599 CURVE SMOOTH",
"86 270 LINE SMOOTH",
"86 83 OFFCURVE",
"143 -10 OFFCURVE",
"261 -10 CURVE SMOOTH",
"317 -10 OFFCURVE",
"351 4 OFFCURVE",
"392 62 CURVE",
"396 62 LINE",
"393 38 OFFCURVE",
"392 14 OFFCURVE",
"392 -10 CURVE SMOOTH",
"392 -225 LINE"
);
},
{
closed = 1;
nodes = (
"278 76 OFFCURVE",
"253 105 OFFCURVE",
"253 270 CURVE SMOOTH",
"253 392 OFFCURVE",
"274 464 OFFCURVE",
"319 464 CURVE SMOOTH",
"367 464 OFFCURVE",
"392 435 OFFCURVE",
"392 270 CURVE SMOOTH",
"392 148 OFFCURVE",
"371 76 OFFCURVE",
"326 76 CURVE SMOOTH"
);
}
);
width = 621;
},
{
layerId = "C91144B6-58F5-45F2-9CE4-7ED6CE127FD4";
name = "Light Condensed";
paths = (
{
closed = 1;
nodes = (
"433 -240 LINE",
"433 266 LINE SMOOTH",
"433 454 OFFCURVE",
"382 542 OFFCURVE",
"275 542 CURVE SMOOTH",
"209 542 OFFCURVE",
"165 514 OFFCURVE",
"135 435 CURVE",
"131 435 LINE",
"132 456 OFFCURVE",
"133 476 OFFCURVE",
"133 497 CURVE SMOOTH",
"133 714 LINE",
"35 714 LINE",
"35 694 LINE",
"55 694 LINE SMOOTH",
"101 694 OFFCURVE",
"105 683 OFFCURVE",
"105 609 CURVE SMOOTH",
"105 266 LINE SMOOTH",
"105 78 OFFCURVE",
"156 -10 OFFCURVE",
"263 -10 CURVE SMOOTH",
"329 -10 OFFCURVE",
"373 18 OFFCURVE",
"403 97 CURVE",
"407 97 LINE",
"406 76 OFFCURVE",
"405 56 OFFCURVE",
"405 35 CURVE SMOOTH",
"405 -240 LINE"
);
},
{
closed = 1;
nodes = (
"173 15 OFFCURVE",
"133 92 OFFCURVE",
"133 266 CURVE SMOOTH",
"133 448 OFFCURVE",
"180 517 OFFCURVE",
"268 517 CURVE SMOOTH",
"365 517 OFFCURVE",
"405 440 OFFCURVE",
"405 266 CURVE SMOOTH",
"405 84 OFFCURVE",
"358 15 OFFCURVE",
"270 15 CURVE SMOOTH"
);
}
);
width = 515;
},
{
layerId = "E7C4F5EE-4982-479C-BF20-1C8706EFFC5D";
name = Condensed;
paths = (
{
closed = 1;
nodes = (
"469 -240 LINE",
"469 272 LINE SMOOTH",
"469 451 OFFCURVE",
"411 544 OFFCURVE",
"295 544 CURVE SMOOTH",
"239 544 OFFCURVE",
"196 518 OFFCURVE",
"166 457 CURVE",
"162 457 LINE",
"164 479 OFFCURVE",
"165 500 OFFCURVE",
"165 521 CURVE SMOOTH",
"165 714 LINE",
"34 714 LINE",
"34 679 LINE",
"49 679 LINE SMOOTH",
"88 679 OFFCURVE",
"100 663 OFFCURVE",
"100 594 CURVE SMOOTH",
"100 272 LINE SMOOTH",
"100 105 OFFCURVE",
"158 -12 OFFCURVE",
"274 -12 CURVE SMOOTH",
"330 -12 OFFCURVE",
"373 14 OFFCURVE",
"403 75 CURVE",
"407 75 LINE",
"405 53 OFFCURVE",
"404 32 OFFCURVE",
"404 11 CURVE SMOOTH",
"404 -240 LINE"
);
},
{
closed = 1;
nodes = (
"211 35 OFFCURVE",
"165 114 OFFCURVE",
"165 272 CURVE SMOOTH",
"165 448 OFFCURVE",
"206 497 OFFCURVE",
"288 497 CURVE SMOOTH",
"358 497 OFFCURVE",
"404 442 OFFCURVE",
"404 272 CURVE SMOOTH",
"404 108 OFFCURVE",
"363 35 OFFCURVE",
"281 35 CURVE SMOOTH"
);
}
);
width = 547;
}
);
leftKerningGroup = uni10A9;
note = uni10A9;
rightKerningGroup = uni10A6;
unicode = 10A9;
},
{
color = 5;
glyphname = uni10AA;
lastChange = "2015-09-23 11:12:30 +0000";
layers = (
{
layerId = "5E7FF211-9823-4E5B-BC80-AC4B3CA4BC69";
name = Regular;
paths = (
{
closed = 1;
nodes = (
"638 -10 OFFCURVE",
"734 93 OFFCURVE",
"734 269 CURVE SMOOTH",
"734 455 OFFCURVE",
"642 546 OFFCURVE",
"488 546 CURVE SMOOTH",
"430 546 OFFCURVE",
"380 520 OFFCURVE",
"351 480 CURVE",
"346 480 LINE",
"349 518 OFFCURVE",
"350 546 OFFCURVE",
"350 565 CURVE SMOOTH",
"350 714 LINE",
"20 714 LINE",
"20 440 LINE",
"66 440 LINE",
"68 478 LINE SMOOTH",
"74 600 OFFCURVE",
"131 660 OFFCURVE",
"220 660 CURVE SMOOTH",
"249 660 LINE",
"249 269 LINE SMOOTH",
"249 96 OFFCURVE",
"340 -10 OFFCURVE",
"485 -10 CURVE SMOOTH"
);
},
{
closed = 1;
nodes = (
"392 44 OFFCURVE",
"350 112 OFFCURVE",
"350 269 CURVE SMOOTH",
"350 412 OFFCURVE",
"396 492 OFFCURVE",
"486 492 CURVE SMOOTH",
"582 492 OFFCURVE",
"623 426 OFFCURVE",
"623 269 CURVE SMOOTH",
"623 112 OFFCURVE",
"582 44 OFFCURVE",
"487 44 CURVE SMOOTH"
);
}
);
width = 795;
},
{
layerId = "101C8DBD-EDBB-4DB6-972E-FA2DBA854B69";
name = SemiBold;
paths = (
{
closed = 1;
nodes = (
"701 -10 OFFCURVE",
"798 88 OFFCURVE",
"798 270 CURVE SMOOTH",
"798 436 OFFCURVE",
"713 549 OFFCURVE",
"567 549 CURVE SMOOTH",
"497 549 OFFCURVE",
"455 531 OFFCURVE",
"420 493 CURVE",
"413 493 LINE",
"418 515 OFFCURVE",
"421 539 OFFCURVE",
"421 563 CURVE SMOOTH",
"421 714 LINE",
"10 714 LINE",
"10 430 LINE",
"77 430 LINE",
"78 466 LINE SMOOTH",
"81 587 OFFCURVE",
"124 653 OFFCURVE",
"239 653 CURVE",
"263 653 LINE",
"263 270 LINE SMOOTH",
"263 88 OFFCURVE",
"357 -10 OFFCURVE",
"524 -10 CURVE SMOOTH"
);
},
{
closed = 1;
nodes = (
"448 55 OFFCURVE",
"421 123 OFFCURVE",
"421 270 CURVE SMOOTH",
"421 386 OFFCURVE",
"437 484 OFFCURVE",
"525 484 CURVE SMOOTH",
"599 484 OFFCURVE",
"630 419 OFFCURVE",
"630 270 CURVE SMOOTH",
"630 118 OFFCURVE",
"595 55 OFFCURVE",
"526 55 CURVE SMOOTH"
);
}
);
width = 848;
},
{
background = {
paths = (
{
closed = 1;
nodes = (
"642 -10 OFFCURVE",
"707 111 OFFCURVE",
"707 266 CURVE SMOOTH",
"707 447 OFFCURVE",
"645 544 OFFCURVE",
"476 544 CURVE SMOOTH",
"383 544 OFFCURVE",
"342 509 OFFCURVE",
"306 448 CURVE",
"302 448 LINE",
"304 479 OFFCURVE",
"305 511 OFFCURVE",
"305 543 CURVE",
"305 714 LINE",
"31 714 LINE",
"26 551 LINE",
"68 551 LINE",
"72 582 LINE SMOOTH",
"78 631 OFFCURVE",
"95 671 OFFCURVE",
"154 671 CURVE SMOOTH",
"240 671 LINE",
"240 264 LINE SMOOTH",
"240 99 OFFCURVE",
"300 -10 OFFCURVE",
"475 -10 CURVE SMOOTH"
);
},
{
closed = 1;
nodes = (
"332 33 OFFCURVE",
"305 122 OFFCURVE",
"305 265 CURVE SMOOTH",
"305 321 LINE SMOOTH",
"305 421 OFFCURVE",
"355 501 OFFCURVE",
"476 501 CURVE SMOOTH",
"594 501 OFFCURVE",
"638 425 OFFCURVE",
"638 259 CURVE SMOOTH",
"638 116 OFFCURVE",
"598 33 OFFCURVE",
"475 33 CURVE SMOOTH"
);
}
);
};
layerId = "5E7C5774-385D-4E06-B68E-CBE970134A7B";
name = SemiLight;
paths = (
{
closed = 1;
nodes = (
"642 -10 OFFCURVE",
"707 111 OFFCURVE",
"707 266 CURVE SMOOTH",
"707 447 OFFCURVE",
"645 544 OFFCURVE",
"485 544 CURVE SMOOTH",
"383 544 OFFCURVE",
"342 509 OFFCURVE",
"306 448 CURVE",
"302 448 LINE",
"304 479 OFFCURVE",
"305 511 OFFCURVE",
"305 543 CURVE",
"305 714 LINE",
"31 714 LINE",
"26 551 LINE",
"68 551 LINE",
"72 582 LINE SMOOTH",
"78 631 OFFCURVE",
"95 671 OFFCURVE",
"154 671 CURVE SMOOTH",
"240 671 LINE",
"240 264 LINE SMOOTH",
"240 99 OFFCURVE",
"300 -10 OFFCURVE",
"475 -10 CURVE SMOOTH"
);
},
{
closed = 1;
nodes = (
"332 33 OFFCURVE",
"305 122 OFFCURVE",
"305 265 CURVE SMOOTH",
"305 451 OFFCURVE",
"366 497 OFFCURVE",
"476 497 CURVE SMOOTH",
"594 497 OFFCURVE",
"638 425 OFFCURVE",
"638 259 CURVE SMOOTH",
"638 116 OFFCURVE",
"598 33 OFFCURVE",
"475 33 CURVE SMOOTH"
);
}
);
width = 752;
},
{
layerId = "1D4F67F9-897D-45AD-B7F0-CA61A6862C03";
name = Light;
paths = (
{
closed = 1;
nodes = (
"594 -10 OFFCURVE",
"681 82 OFFCURVE",
"681 264 CURVE SMOOTH",
"681 459 OFFCURVE",
"607 542 OFFCURVE",
"467 542 CURVE SMOOTH",
"363 542 OFFCURVE",
"307 495 OFFCURVE",
"273 417 CURVE",
"270 417 LINE",
"272 449 OFFCURVE",
"273 482 OFFCURVE",
"273 524 CURVE SMOOTH",
"273 714 LINE",
"37 714 LINE",
"32 559 LINE",
"52 559 LINE",
"54 606 LINE SMOOTH",
"57 673 OFFCURVE",
"65 689 OFFCURVE",
"109 689 CURVE SMOOTH",
"245 689 LINE",
"245 256 LINE SMOOTH",
"245 88 OFFCURVE",
"305 -10 OFFCURVE",
"462 -10 CURVE SMOOTH"
);
},
{
closed = 1;
nodes = (
"323 15 OFFCURVE",
"273 102 OFFCURVE",
"273 269 CURVE SMOOTH",
"273 437 OFFCURVE",
"338 517 OFFCURVE",
"461 517 CURVE SMOOTH",
"595 517 OFFCURVE",
"653 441 OFFCURVE",
"653 264 CURVE SMOOTH",
"653 111 OFFCURVE",
"591 15 OFFCURVE",
"462 15 CURVE SMOOTH"
);
}
);
width = 735;
},
{
layerId = "75A83886-EED5-4C31-9670-660514D8A4F6";
name = "Bold Condensed";
paths = (
{
closed = 1;
nodes = (
"580 -10 OFFCURVE",
"657 98 OFFCURVE",
"657 282 CURVE SMOOTH",
"657 452 OFFCURVE",
"595 550 OFFCURVE",
"477 550 CURVE SMOOTH",
"421 550 OFFCURVE",
"387 536 OFFCURVE",
"351 478 CURVE",
"347 478 LINE",
"350 502 OFFCURVE",
"351 526 OFFCURVE",
"351 550 CURVE SMOOTH",
"351 714 LINE",
"6 714 LINE",
"2 515 LINE",
"67 515 LINE",
"75 582 LINE SMOOTH",
"80 627 OFFCURVE",
"94 650 OFFCURVE",
"144 650 CURVE SMOOTH",
"184 650 LINE",
"184 269 LINE SMOOTH",
"184 92 OFFCURVE",
"239 -10 OFFCURVE",
"416 -10 CURVE SMOOTH"
);
},
{
closed = 1;
nodes = (
"371 52 OFFCURVE",
"351 101 OFFCURVE",
"351 281 CURVE SMOOTH",
"351 397 OFFCURVE",
"372 464 OFFCURVE",
"416 464 CURVE SMOOTH",
"453 464 OFFCURVE",
"478 440 OFFCURVE",
"478 268 CURVE SMOOTH",
"478 106 OFFCURVE",
"448 52 OFFCURVE",
"411 52 CURVE SMOOTH"
);
}
);
width = 681;
},
{
background = {
paths = (
{
closed = 1;
nodes = (
"280 517 OFFCURVE",
"218 448 OFFCURVE",
"218 381 CURVE SMOOTH",
"218 263 LINE",
"218 104 OFFCURVE",
"245 15 OFFCURVE",
"344 15 CURVE SMOOTH",
"455 15 OFFCURVE",
"490 125 OFFCURVE",
"490 266 CURVE SMOOTH",
"490 437 OFFCURVE",
"450 517 OFFCURVE",
"344 517 CURVE"
);
},
{
closed = 1;
nodes = (
"467 542 OFFCURVE",
"518 451 OFFCURVE",
"518 266 CURVE SMOOTH",
"518 100 OFFCURVE",
"467 -10 OFFCURVE",
"344 -10 CURVE SMOOTH",
"226 -10 OFFCURVE",
"190 91 OFFCURVE",
"190 259 CURVE SMOOTH",
"190 689 LINE",
"105 689 LINE SMOOTH",
"53 689 OFFCURVE",
"47 675 OFFCURVE",
"45 620 CURVE SMOOTH",
"43 564 LINE",
"23 564 LINE",
"27 714 LINE",
"218 714 LINE",
"218 512 LINE",
"218 491 OFFCURVE",
"217 471 OFFCURVE",
"216 450 CURVE",
"220 450 LINE",
"253 516 OFFCURVE",
"286 542 OFFCURVE",
"344 542 CURVE"
);
}
);
};
layerId = "C91144B6-58F5-45F2-9CE4-7ED6CE127FD4";
name = "Light Condensed";
paths = (
{
closed = 1;
nodes = (
"467 -10 OFFCURVE",
"518 100 OFFCURVE",
"518 266 CURVE SMOOTH",
"518 451 OFFCURVE",
"467 542 OFFCURVE",
"355 542 CURVE SMOOTH",
"294 542 OFFCURVE",
"250 514 OFFCURVE",
"220 435 CURVE",
"216 435 LINE",
"217 456 OFFCURVE",
"218 476 OFFCURVE",
"218 497 CURVE SMOOTH",
"218 714 LINE",
"27 714 LINE",
"23 564 LINE",
"43 564 LINE",
"45 620 LINE SMOOTH",
"47 675 OFFCURVE",
"53 689 OFFCURVE",
"105 689 CURVE SMOOTH",
"190 689 LINE",
"190 259 LINE SMOOTH",
"190 91 OFFCURVE",
"226 -10 OFFCURVE",
"344 -10 CURVE SMOOTH"
);
},
{
closed = 1;
nodes = (
"245 15 OFFCURVE",
"218 104 OFFCURVE",
"218 263 CURVE SMOOTH",
"218 445 OFFCURVE",
"265 517 OFFCURVE",
"353 517 CURVE SMOOTH",
"450 517 OFFCURVE",
"490 437 OFFCURVE",
"490 266 CURVE SMOOTH",
"490 125 OFFCURVE",
"455 15 OFFCURVE",
"344 15 CURVE SMOOTH"
);
}
);
width = 554;
},
{
background = {
paths = (
{
closed = 1;
nodes = (
"495 -7 OFFCURVE",
"552 114 OFFCURVE",
"552 268 CURVE SMOOTH",
"552 443 OFFCURVE",
"494 544 OFFCURVE",
"363 544 CURVE",
"322 544 OFFCURVE",
"283 518 OFFCURVE",
"249 457 CURVE",
"245 457 LINE",
"247 479 OFFCURVE",
"248 500 OFFCURVE",
"248 521 CURVE",
"248 714 LINE",
"22 714 LINE",
"18 551 LINE",
"54 551 LINE",
"57 582 LINE SMOOTH",
"62 631 OFFCURVE",
"76 671 OFFCURVE",
"121 671 CURVE SMOOTH",
"183 671 LINE",
"183 262 LINE SMOOTH",
"183 56 OFFCURVE",
"236 -7 OFFCURVE",
"368 -7 CURVE SMOOTH"
);
},
{
closed = 1;
nodes = (
"255 31 OFFCURVE",
"248 107 OFFCURVE",
"248 260 CURVE",
"248 376 LINE",
"248 437 OFFCURVE",
"286 497 OFFCURVE",
"363 497 CURVE",
"441 497 OFFCURVE",
"484 434 OFFCURVE",
"484 259 CURVE SMOOTH",
"484 114 OFFCURVE",
"450 31 OFFCURVE",
"364 31 CURVE SMOOTH"
);
}
);
};
layerId = "E7C4F5EE-4982-479C-BF20-1C8706EFFC5D";
name = Condensed;
paths = (
{
closed = 1;
nodes = (
"495 -7 OFFCURVE",
"552 114 OFFCURVE",
"552 268 CURVE SMOOTH",
"552 443 OFFCURVE",
"494 544 OFFCURVE",
"378 544 CURVE SMOOTH",
"322 544 OFFCURVE",
"279 518 OFFCURVE",
"249 457 CURVE",
"245 457 LINE",
"247 479 OFFCURVE",
"248 500 OFFCURVE",
"248 521 CURVE SMOOTH",
"248 714 LINE",
"22 714 LINE",
"18 551 LINE",
"54 551 LINE",
"57 582 LINE SMOOTH",
"62 631 OFFCURVE",
"76 671 OFFCURVE",
"121 671 CURVE SMOOTH",
"183 671 LINE",
"183 262 LINE SMOOTH",
"183 56 OFFCURVE",
"246 -7 OFFCURVE",
"368 -7 CURVE SMOOTH"
);
},
{
closed = 1;
nodes = (
"275 31 OFFCURVE",
"248 107 OFFCURVE",
"248 260 CURVE SMOOTH",
"248 440 OFFCURVE",
"289 497 OFFCURVE",
"371 497 CURVE SMOOTH",
"441 497 OFFCURVE",
"484 434 OFFCURVE",
"484 259 CURVE SMOOTH",
"484 114 OFFCURVE",
"450 31 OFFCURVE",
"364 31 CURVE SMOOTH"
);
}
);
width = 585;
}
);
leftKerningGroup = uni10A8;
note = uni10AA;
rightKerningGroup = uni10A6;
unicode = 10AA;
},
{
color = 5;
glyphname = uni10AB;
lastChange = "2015-09-23 11:12:30 +0000";
layers = (
{
layerId = "5E7FF211-9823-4E5B-BC80-AC4B3CA4BC69";
name = Regular;
paths = (
{
closed = 1;
nodes = (
"443 -10 OFFCURVE",
"521 68 OFFCURVE",
"521 225 CURVE SMOOTH",
"521 390 LINE",
"529 390 LINE SMOOTH",
"611 390 OFFCURVE",
"644 348 OFFCURVE",
"644 252 CURVE",
"691 252 OFFCURVE",
"722 276 OFFCURVE",
"722 321 CURVE SMOOTH",
"722 406 OFFCURVE",
"659 444 OFFCURVE",
"556 444 CURVE SMOOTH",
"521 444 LINE",
"521 714 LINE",
"127 714 LINE",
"127 660 LINE",
"420 660 LINE",
"420 444 LINE",
"308 444 LINE SMOOTH",
"116 444 OFFCURVE",
"38 378 OFFCURVE",
"38 220 CURVE SMOOTH",
"38 72 OFFCURVE",
"127 -10 OFFCURVE",
"287 -10 CURVE SMOOTH"
);
},
{
closed = 1;
nodes = (
"190 44 OFFCURVE",
"146 101 OFFCURVE",
"146 214 CURVE SMOOTH",
"146 335 OFFCURVE",
"194 390 OFFCURVE",
"308 390 CURVE SMOOTH",
"420 390 LINE",
"420 225 LINE SMOOTH",
"420 104 OFFCURVE",
"375 44 OFFCURVE",
"283 44 CURVE SMOOTH"
);
}
);
width = 742;
},
{
layerId = "101C8DBD-EDBB-4DB6-972E-FA2DBA854B69";
name = SemiBold;
paths = (
{
closed = 1;
nodes = (
"478 -10 OFFCURVE",
"566 72 OFFCURVE",
"566 237 CURVE SMOOTH",
"566 390 LINE",
"571 390 LINE",
"638 390 OFFCURVE",
"671 367 OFFCURVE",
"671 258 CURVE",
"740 258 OFFCURVE",
"791 294 OFFCURVE",
"791 342 CURVE SMOOTH",
"791 413 OFFCURVE",
"731 452 OFFCURVE",
"621 452 CURVE SMOOTH",
"566 452 LINE",
"566 714 LINE",
"115 714 LINE",
"115 643 LINE",
"408 643 LINE",
"408 452 LINE",
"345 452 LINE SMOOTH",
"138 452 OFFCURVE",
"30 373 OFFCURVE",
"30 218 CURVE SMOOTH",
"30 73 OFFCURVE",
"126 -10 OFFCURVE",
"301 -10 CURVE SMOOTH"
);
},
{
closed = 1;
nodes = (
"233 55 OFFCURVE",
"198 109 OFFCURVE",
"198 218 CURVE SMOOTH",
"198 338 OFFCURVE",
"228 387 OFFCURVE",
"341 387 CURVE SMOOTH",
"408 387 LINE",
"408 230 LINE SMOOTH",
"408 115 OFFCURVE",
"372 55 OFFCURVE",
"303 55 CURVE SMOOTH"
);
}
);
width = 806;
},
{
layerId = "5E7C5774-385D-4E06-B68E-CBE970134A7B";
name = SemiLight;
paths = (
{
closed = 1;
nodes = (
"429 -10 OFFCURVE",
"491 76 OFFCURVE",
"491 197 CURVE SMOOTH",
"491 387 LINE",
"511 387 LINE SMOOTH",
"588 387 OFFCURVE",
"601 365 OFFCURVE",
"601 291 CURVE",
"635 291 OFFCURVE",
"654 309 OFFCURVE",
"654 339 CURVE SMOOTH",
"654 395 OFFCURVE",
"619 423 OFFCURVE",
"518 423 CURVE SMOOTH",
"491 423 LINE",
"491 714 LINE",
"147 714 LINE",
"147 671 LINE",
"427 671 LINE",
"427 423 LINE",
"316 423 LINE SMOOTH",
"149 423 OFFCURVE",
"50 345 OFFCURVE",
"50 208 CURVE SMOOTH",
"50 64 OFFCURVE",
"128 -10 OFFCURVE",
"274 -10 CURVE SMOOTH"
);
},
{
closed = 1;
nodes = (
"167 26 OFFCURVE",
"117 91 OFFCURVE",
"117 209 CURVE SMOOTH",
"117 323 OFFCURVE",
"189 387 OFFCURVE",
"315 387 CURVE SMOOTH",
"428 387 LINE",
"428 194 LINE SMOOTH",
"428 96 OFFCURVE",
"394 26 OFFCURVE",
"276 26 CURVE SMOOTH"
);
}
);
width = 674;
},
{
layerId = "1D4F67F9-897D-45AD-B7F0-CA61A6862C03";
name = Light;
paths = (
{
closed = 1;
nodes = (
"407 -10 OFFCURVE",
"449 73 OFFCURVE",
"449 212 CURVE SMOOTH",
"449 391 LINE",
"484 391 LINE SMOOTH",
"560 391 OFFCURVE",
"581 371 OFFCURVE",
"581 310 CURVE",
"600 310 OFFCURVE",
"608 321 OFFCURVE",
"608 340 CURVE SMOOTH",
"608 383 OFFCURVE",
"581 416 OFFCURVE",
"493 416 CURVE SMOOTH",
"449 416 LINE",
"449 714 LINE",
"125 714 LINE",
"125 689 LINE",
"421 689 LINE",
"421 416 LINE",
"320 416 LINE SMOOTH",
"154 416 OFFCURVE",
"46 343 OFFCURVE",
"46 205 CURVE SMOOTH",
"46 62 OFFCURVE",
"118 -10 OFFCURVE",
"252 -10 CURVE SMOOTH"
);
},
{
closed = 1;
nodes = (
"130 15 OFFCURVE",
"74 84 OFFCURVE",
"74 206 CURVE SMOOTH",
"74 331 OFFCURVE",
"172 391 OFFCURVE",
"320 391 CURVE SMOOTH",
"421 391 LINE",
"421 211 LINE SMOOTH",
"421 90 OFFCURVE",
"388 15 OFFCURVE",
"253 15 CURVE SMOOTH"
);
}
);
width = 633;
},
{
layerId = "75A83886-EED5-4C31-9670-660514D8A4F6";
name = "Bold Condensed";
paths = (
{
closed = 1;
nodes = (
"431 -10 OFFCURVE",
"526 54 OFFCURVE",
"526 218 CURVE SMOOTH",
"526 381 LINE",
"544 381 LINE SMOOTH",
"607 381 OFFCURVE",
"636 348 OFFCURVE",
"636 239 CURVE",
"711 239 OFFCURVE",
"750 279 OFFCURVE",
"750 338 CURVE SMOOTH",
"750 412 OFFCURVE",
"688 447 OFFCURVE",
"551 447 CURVE SMOOTH",
"526 447 LINE",
"526 714 LINE",
"119 714 LINE",
"119 650 LINE",
"359 650 LINE",
"359 447 LINE",
"281 447 LINE SMOOTH",
"116 447 OFFCURVE",
"42 387 OFFCURVE",
"42 223 CURVE SMOOTH",
"42 83 OFFCURVE",
"106 -10 OFFCURVE",
"277 -10 CURVE SMOOTH"
);
},
{
closed = 1;
nodes = (
"234 64 OFFCURVE",
"209 114 OFFCURVE",
"209 225 CURVE SMOOTH",
"209 343 OFFCURVE",
"235 381 OFFCURVE",
"283 381 CURVE SMOOTH",
"359 381 LINE",
"359 218 LINE SMOOTH",
"359 101 OFFCURVE",
"336 64 OFFCURVE",
"279 64 CURVE SMOOTH"
);
}
);
width = 760;
},
{
layerId = "C91144B6-58F5-45F2-9CE4-7ED6CE127FD4";
name = "Light Condensed";
paths = (
{
closed = 1;
nodes = (
"305 -10 OFFCURVE",
"369 55 OFFCURVE",
"369 214 CURVE SMOOTH",
"369 396 LINE",
"401 396 LINE SMOOTH",
"442 396 OFFCURVE",
"459 381 OFFCURVE",
"459 315 CURVE",
"476 315 OFFCURVE",
"486 326 OFFCURVE",
"486 345 CURVE SMOOTH",
"486 404 OFFCURVE",
"450 421 OFFCURVE",
"406 421 CURVE SMOOTH",
"369 421 LINE",
"369 714 LINE",
"101 714 LINE",
"101 689 LINE",
"341 689 LINE",
"341 421 LINE",
"230 421 LINE SMOOTH",
"100 421 OFFCURVE",
"48 325 OFFCURVE",
"48 207 CURVE SMOOTH",
"48 90 OFFCURVE",
"100 -10 OFFCURVE",
"212 -10 CURVE SMOOTH"
);
},
{
closed = 1;
nodes = (
"111 15 OFFCURVE",
"76 116 OFFCURVE",
"76 207 CURVE SMOOTH",
"76 299 OFFCURVE",
"111 396 OFFCURVE",
"229 396 CURVE SMOOTH",
"341 396 LINE",
"341 205 LINE SMOOTH",
"341 68 OFFCURVE",
"289 15 OFFCURVE",
"211 15 CURVE SMOOTH"
);
}
);
width = 496;
},
{
layerId = "E7C4F5EE-4982-479C-BF20-1C8706EFFC5D";
name = Condensed;
paths = (
{
closed = 1;
nodes = (
"335 -10 OFFCURVE",
"407 55 OFFCURVE",
"407 215 CURVE SMOOTH",
"407 389 LINE",
"434 389 LINE SMOOTH",
"477 389 OFFCURVE",
"502 367 OFFCURVE",
"502 291 CURVE",
"534 291 OFFCURVE",
"552 318 OFFCURVE",
"552 347 CURVE SMOOTH",
"552 414 OFFCURVE",
"500 432 OFFCURVE",
"437 432 CURVE SMOOTH",
"407 432 LINE",
"407 714 LINE",
"112 714 LINE",
"112 671 LINE",
"343 671 LINE",
"343 432 LINE",
"237 432 LINE SMOOTH",
"101 432 OFFCURVE",
"46 351 OFFCURVE",
"46 213 CURVE SMOOTH",
"46 89 OFFCURVE",
"95 -10 OFFCURVE",
"224 -10 CURVE SMOOTH"
);
},
{
closed = 1;
nodes = (
"136 37 OFFCURVE",
"110 117 OFFCURVE",
"110 213 CURVE SMOOTH",
"110 318 OFFCURVE",
"143 389 OFFCURVE",
"232 389 CURVE SMOOTH",
"343 389 LINE",
"343 211 LINE SMOOTH",
"343 78 OFFCURVE",
"298 37 OFFCURVE",
"224 37 CURVE SMOOTH"
);
}
);
width = 562;
}
);
note = uni10AB;
unicode = 10AB;
},
{
color = 5;
glyphname = uni10AC;
lastChange = "2015-09-23 11:12:30 +0000";
layers = (
{
layerId = "5E7FF211-9823-4E5B-BC80-AC4B3CA4BC69";
name = Regular;
paths = (
{
closed = 1;
nodes = (
"211 0 LINE",
"211 261 LINE SMOOTH",
"211 369 OFFCURVE",
"253 416 OFFCURVE",
"335 416 CURVE SMOOTH",
"414 416 OFFCURVE",
"444 367 OFFCURVE",
"444 261 CURVE SMOOTH",
"444 0 LINE",
"545 0 LINE",
"545 261 LINE SMOOTH",
"545 398 OFFCURVE",
"475 476 OFFCURVE",
"355 476 CURVE SMOOTH",
"285 476 OFFCURVE",
"231 448 OFFCURVE",
"212 405 CURVE",
"207 405 LINE",
"209 442 OFFCURVE",
"211 471 OFFCURVE",
"211 490 CURVE SMOOTH",
"211 660 LINE",
"520 660 LINE",
"520 714 LINE",
"15 714 LINE",
"15 672 LINE",
"28 672 LINE SMOOTH",
"88 672 OFFCURVE",
"110 650 OFFCURVE",
"110 600 CURVE SMOOTH",
"110 0 LINE"
);
}
);
width = 631;
},
{
layerId = "101C8DBD-EDBB-4DB6-972E-FA2DBA854B69";
name = SemiBold;
paths = (
{
closed = 1;
nodes = (
"263 0 LINE",
"263 250 LINE SMOOTH",
"263 351 OFFCURVE",
"302 402 OFFCURVE",
"381 402 CURVE SMOOTH",
"466 402 OFFCURVE",
"501 354 OFFCURVE",
"501 244 CURVE SMOOTH",
"501 0 LINE",
"659 0 LINE",
"659 247 LINE SMOOTH",
"659 403 OFFCURVE",
"584 486 OFFCURVE",
"440 486 CURVE SMOOTH",
"354 486 OFFCURVE",
"297 461 OFFCURVE",
"262 406 CURVE",
"255 406 LINE",
"260 471 OFFCURVE",
"263 511 OFFCURVE",
"263 527 CURVE SMOOTH",
"263 643 LINE",
"616 643 LINE",
"616 714 LINE",
"22 714 LINE",
"22 661 LINE",
"54 661 LINE SMOOTH",
"93 661 OFFCURVE",
"105 641 OFFCURVE",
"105 596 CURVE SMOOTH",
"105 0 LINE"
);
}
);
width = 724;
},
{
layerId = "5E7C5774-385D-4E06-B68E-CBE970134A7B";
name = SemiLight;
paths = (
{
closed = 1;
nodes = (
"195 0 LINE",
"195 283 LINE SMOOTH",
"195 383 OFFCURVE",
"243 455 OFFCURVE",
"358 455 CURVE SMOOTH",
"437 455 OFFCURVE",
"492 417 OFFCURVE",
"492 316 CURVE SMOOTH",
"492 0 LINE",
"556 0 LINE",
"556 317 LINE SMOOTH",
"556 444 OFFCURVE",
"482 506 OFFCURVE",
"369 506 CURVE SMOOTH",
"277 506 OFFCURVE",
"227 471 OFFCURVE",
"196 410 CURVE",
"192 410 LINE",
"194 441 OFFCURVE",
"195 473 OFFCURVE",
"195 505 CURVE SMOOTH",
"195 671 LINE",
"532 671 LINE",
"532 714 LINE",
"39 714 LINE",
"39 679 LINE",
"68 679 LINE SMOOTH",
"115 679 OFFCURVE",
"131 658 OFFCURVE",
"131 603 CURVE SMOOTH",
"131 0 LINE"
);
}
);
width = 642;
},
{
layerId = "1D4F67F9-897D-45AD-B7F0-CA61A6862C03";
name = Light;
paths = (
{
closed = 1;
nodes = (
"167 0 LINE",
"167 273 LINE SMOOTH",
"167 386 OFFCURVE",
"227 477 OFFCURVE",
"340 477 CURVE SMOOTH",
"439 477 OFFCURVE",
"491 416 OFFCURVE",
"491 322 CURVE SMOOTH",
"491 0 LINE",
"519 0 LINE",
"519 322 LINE SMOOTH",
"519 441 OFFCURVE",
"452 502 OFFCURVE",
"338 502 CURVE SMOOTH",
"260 502 OFFCURVE",
"197 459 OFFCURVE",
"167 391 CURVE",
"164 391 LINE",
"166 423 OFFCURVE",
"167 456 OFFCURVE",
"167 488 CURVE SMOOTH",
"167 689 LINE",
"481 689 LINE",
"481 714 LINE",
"40 714 LINE",
"40 694 LINE",
"83 694 LINE SMOOTH",
"133 694 OFFCURVE",
"139 683 OFFCURVE",
"139 606 CURVE SMOOTH",
"139 0 LINE"
);
}
);
width = 607;
},
{
layerId = "75A83886-EED5-4C31-9670-660514D8A4F6";
name = "Bold Condensed";
paths = (
{
closed = 1;
nodes = (
"256 0 LINE",
"256 296 LINE SMOOTH",
"256 342 OFFCURVE",
"287 388 OFFCURVE",
"332 388 CURVE SMOOTH",
"382 388 OFFCURVE",
"397 352 OFFCURVE",
"397 292 CURVE SMOOTH",
"397 0 LINE",
"567 0 LINE",
"567 294 LINE SMOOTH",
"567 428 OFFCURVE",
"500 484 OFFCURVE",
"395 484 CURVE SMOOTH",
"340 484 OFFCURVE",
"292 460 OFFCURVE",
"256 412 CURVE",
"252 412 LINE",
"255 436 OFFCURVE",
"256 460 OFFCURVE",
"256 484 CURVE SMOOTH",
"256 650 LINE",
"547 650 LINE",
"547 714 LINE",
"16 714 LINE",
"16 658 LINE",
"42 658 LINE SMOOTH",
"72 658 OFFCURVE",
"86 651 OFFCURVE",
"86 599 CURVE SMOOTH",
"86 0 LINE"
);
}
);
width = 629;
},
{
layerId = "C91144B6-58F5-45F2-9CE4-7ED6CE127FD4";
name = "Light Condensed";
paths = (
{
closed = 1;
nodes = (
"133 0 LINE",
"133 315 LINE SMOOTH",
"133 382 OFFCURVE",
"195 451 OFFCURVE",
"284 451 CURVE SMOOTH",
"360 451 OFFCURVE",
"401 406 OFFCURVE",
"401 301 CURVE SMOOTH",
"401 0 LINE",
"427 0 LINE",
"427 313 LINE SMOOTH",
"427 418 OFFCURVE",
"379 476 OFFCURVE",
"286 476 CURVE SMOOTH",
"228 476 OFFCURVE",
"168 450 OFFCURVE",
"135 384 CURVE",
"131 384 LINE",
"132 405 OFFCURVE",
"133 425 OFFCURVE",
"133 446 CURVE SMOOTH",
"133 689 LINE",
"411 689 LINE",
"411 714 LINE",
"35 714 LINE",
"35 694 LINE",
"55 694 LINE SMOOTH",
"101 694 OFFCURVE",
"105 683 OFFCURVE",
"105 609 CURVE SMOOTH",
"105 0 LINE"
);
}
);
width = 509;
},
{
layerId = "E7C4F5EE-4982-479C-BF20-1C8706EFFC5D";
name = Condensed;
paths = (
{
closed = 1;
nodes = (
"165 0 LINE",
"165 376 LINE SMOOTH",
"165 437 OFFCURVE",
"219 494 OFFCURVE",
"296 494 CURVE SMOOTH",
"366 494 OFFCURVE",
"398 458 OFFCURVE",
"398 364 CURVE SMOOTH",
"398 0 LINE",
"463 0 LINE",
"463 374 LINE SMOOTH",
"463 486 OFFCURVE",
"410 544 OFFCURVE",
"314 544 CURVE SMOOTH",
"257 544 OFFCURVE",
"200 518 OFFCURVE",
"166 457 CURVE",
"162 457 LINE",
"164 479 OFFCURVE",
"165 500 OFFCURVE",
"165 521 CURVE SMOOTH",
"165 671 LINE",
"438 671 LINE",
"438 714 LINE",
"34 714 LINE",
"34 679 LINE",
"49 679 LINE SMOOTH",
"88 679 OFFCURVE",
"100 663 OFFCURVE",
"100 594 CURVE SMOOTH",
"100 0 LINE"
);
}
);
width = 541;
}
);
leftKerningGroup = uni10B9;
note = uni10AC;
unicode = 10AC;
},
{
color = 5;
glyphname = uni10AD;
lastChange = "2015-09-23 11:12:30 +0000";
layers = (
{
layerId = "5E7FF211-9823-4E5B-BC80-AC4B3CA4BC69";
name = Regular;
paths = (
{
closed = 1;
nodes = (
"649 -174 OFFCURVE",
"693 -150 OFFCURVE",
"693 -114 CURVE SMOOTH",
"693 -97 OFFCURVE",
"685 -80 OFFCURVE",
"673 -74 CURVE",
"655 -101 OFFCURVE",
"631 -114 OFFCURVE",
"602 -114 CURVE SMOOTH",
"561 -114 OFFCURVE",
"536 -86 OFFCURVE",
"536 -35 CURVE SMOOTH",
"536 7 OFFCURVE",
"553 40 OFFCURVE",
"571 57 CURVE SMOOTH",
"647 132 OFFCURVE",
"685 235 OFFCURVE",
"685 358 CURVE SMOOTH",
"685 588 OFFCURVE",
"567 725 OFFCURVE",
"372 725 CURVE SMOOTH",
"168 725 OFFCURVE",
"56 591 OFFCURVE",
"56 359 CURVE SMOOTH",
"56 123 OFFCURVE",
"170 -10 OFFCURVE",
"371 -10 CURVE SMOOTH",
"403 -10 OFFCURVE",
"439 -4 OFFCURVE",
"467 5 CURVE",
"455 -15 OFFCURVE",
"447 -40 OFFCURVE",
"447 -62 CURVE SMOOTH",
"447 -131 OFFCURVE",
"498 -174 OFFCURVE",
"584 -174 CURVE SMOOTH"
);
},
{
closed = 1;
nodes = (
"234 44 OFFCURVE",
"167 143 OFFCURVE",
"167 358 CURVE SMOOTH",
"167 575 OFFCURVE",
"234 671 OFFCURVE",
"372 671 CURVE SMOOTH",
"509 671 OFFCURVE",
"574 574 OFFCURVE",
"574 358 CURVE SMOOTH",
"574 142 OFFCURVE",
"508 44 OFFCURVE",
"371 44 CURVE SMOOTH"
);
}
);
width = 742;
},
{
layerId = "101C8DBD-EDBB-4DB6-972E-FA2DBA854B69";
name = SemiBold;
paths = (
{
closed = 1;
nodes = (
"657 -175 OFFCURVE",
"704 -152 OFFCURVE",
"704 -105 CURVE SMOOTH",
"704 -91 OFFCURVE",
"698 -72 OFFCURVE",
"689 -63 CURVE",
"669 -83 OFFCURVE",
"653 -87 OFFCURVE",
"628 -87 CURVE SMOOTH",
"597 -87 OFFCURVE",
"573 -66 OFFCURVE",
"573 -31 CURVE SMOOTH",
"573 8 OFFCURVE",
"588 40 OFFCURVE",
"618 65 CURVE",
"694 141 OFFCURVE",
"732 238 OFFCURVE",
"732 358 CURVE SMOOTH",
"732 586 OFFCURVE",
"605 725 OFFCURVE",
"395 725 CURVE SMOOTH",
"178 725 OFFCURVE",
"55 593 OFFCURVE",
"55 359 CURVE SMOOTH",
"55 136 OFFCURVE",
"169 -10 OFFCURVE",
"394 -10 CURVE SMOOTH",
"423 -10 OFFCURVE",
"463 -6 OFFCURVE",
"494 4 CURVE",
"474 -14 OFFCURVE",
"462 -47 OFFCURVE",
"462 -73 CURVE SMOOTH",
"462 -141 OFFCURVE",
"510 -175 OFFCURVE",
"580 -175 CURVE SMOOTH"
);
},
{
closed = 1;
nodes = (
"279 55 OFFCURVE",
"223 151 OFFCURVE",
"223 358 CURVE SMOOTH",
"223 564 OFFCURVE",
"278 660 OFFCURVE",
"395 660 CURVE SMOOTH",
"510 660 OFFCURVE",
"564 565 OFFCURVE",
"564 358 CURVE SMOOTH",
"564 150 OFFCURVE",
"510 55 OFFCURVE",
"394 55 CURVE SMOOTH"
);
}
);
width = 787;
},
{
layerId = "5E7C5774-385D-4E06-B68E-CBE970134A7B";
name = SemiLight;
paths = (
{
closed = 1;
nodes = (
"614 -150 OFFCURVE",
"656 -136 OFFCURVE",
"656 -112 CURVE SMOOTH",
"656 -97 OFFCURVE",
"647 -86 OFFCURVE",
"636 -84 CURVE",
"616 -104 OFFCURVE",
"592 -112 OFFCURVE",
"563 -112 CURVE SMOOTH",
"523 -112 OFFCURVE",
"500 -83 OFFCURVE",
"500 -45 CURVE SMOOTH",
"500 -3 OFFCURVE",
"518 31 OFFCURVE",
"549 59 CURVE SMOOTH",
"619 122 OFFCURVE",
"656 228 OFFCURVE",
"656 358 CURVE SMOOTH",
"656 580 OFFCURVE",
"549 725 OFFCURVE",
"358 725 CURVE SMOOTH",
"155 725 OFFCURVE",
"57 580 OFFCURVE",
"57 359 CURVE SMOOTH",
"57 137 OFFCURVE",
"155 -10 OFFCURVE",
"357 -10 CURVE SMOOTH",
"395 -10 OFFCURVE",
"430 -4 OFFCURVE",
"461 7 CURVE",
"453 -10 OFFCURVE",
"448 -29 OFFCURVE",
"448 -50 CURVE SMOOTH",
"448 -113 OFFCURVE",
"494 -150 OFFCURVE",
"559 -150 CURVE SMOOTH"
);
},
{
closed = 1;
nodes = (
"201 37 OFFCURVE",
"132 156 OFFCURVE",
"132 358 CURVE SMOOTH",
"132 560 OFFCURVE",
"201 678 OFFCURVE",
"358 678 CURVE SMOOTH",
"521 678 OFFCURVE",
"581 560 OFFCURVE",
"581 358 CURVE SMOOTH",
"581 156 OFFCURVE",
"521 37 OFFCURVE",
"357 37 CURVE SMOOTH"
);
}
);
width = 714;
},
{
layerId = "1D4F67F9-897D-45AD-B7F0-CA61A6862C03";
name = Light;
paths = (
{
closed = 1;
nodes = (
"590 -152 OFFCURVE",
"615 -134 OFFCURVE",
"615 -122 CURVE SMOOTH",
"615 -115 OFFCURVE",
"613 -109 OFFCURVE",
"610 -106 CURVE",
"596 -119 OFFCURVE",
"571 -128 OFFCURVE",
"550 -128 CURVE SMOOTH",
"512 -128 OFFCURVE",
"474 -108 OFFCURVE",
"474 -43 CURVE SMOOTH",
"474 -6 OFFCURVE",
"494 25 OFFCURVE",
"515 42 CURVE SMOOTH",
"589 100 OFFCURVE",
"627 209 OFFCURVE",
"627 358 CURVE SMOOTH",
"627 590 OFFCURVE",
"547 725 OFFCURVE",
"344 725 CURVE SMOOTH",
"157 725 OFFCURVE",
"58 592 OFFCURVE",
"58 359 CURVE SMOOTH",
"58 125 OFFCURVE",
"153 -10 OFFCURVE",
"343 -10 CURVE SMOOTH",
"390 -10 OFFCURVE",
"431 -2 OFFCURVE",
"465 13 CURVE",
"454 -6 OFFCURVE",
"448 -27 OFFCURVE",
"448 -49 CURVE SMOOTH",
"448 -112 OFFCURVE",
"484 -152 OFFCURVE",
"550 -152 CURVE SMOOTH"
);
},
{
closed = 1;
nodes = (
"172 15 OFFCURVE",
"86 143 OFFCURVE",
"86 358 CURVE SMOOTH",
"86 573 OFFCURVE",
"172 700 OFFCURVE",
"344 700 CURVE SMOOTH",
"530 700 OFFCURVE",
"599 573 OFFCURVE",
"599 358 CURVE SMOOTH",
"599 145 OFFCURVE",
"524 15 OFFCURVE",
"343 15 CURVE SMOOTH"
);
}
);
width = 686;
},
{
layerId = "75A83886-EED5-4C31-9670-660514D8A4F6";
name = "Bold Condensed";
paths = (
{
closed = 1;
nodes = (
"543 -185 OFFCURVE",
"596 -170 OFFCURVE",
"596 -131 CURVE SMOOTH",
"596 -114 OFFCURVE",
"593 -104 OFFCURVE",
"582 -95 CURVE",
"562 -107 OFFCURVE",
"539 -114 OFFCURVE",
"519 -114 CURVE SMOOTH",
"486 -114 OFFCURVE",
"462 -99 OFFCURVE",
"462 -59 CURVE SMOOTH",
"462 -19 OFFCURVE",
"474 15 OFFCURVE",
"502 34 CURVE SMOOTH",
"591 95 OFFCURVE",
"639 209 OFFCURVE",
"639 358 CURVE SMOOTH",
"639 580 OFFCURVE",
"542 725 OFFCURVE",
"344 725 CURVE SMOOTH",
"142 725 OFFCURVE",
"45 580 OFFCURVE",
"45 359 CURVE SMOOTH",
"45 137 OFFCURVE",
"142 -10 OFFCURVE",
"343 -10 CURVE SMOOTH",
"357 -10 OFFCURVE",
"377 -9 OFFCURVE",
"390 -6 CURVE",
"376 -23 OFFCURVE",
"364 -52 OFFCURVE",
"364 -77 CURVE SMOOTH",
"364 -145 OFFCURVE",
"407 -185 OFFCURVE",
"496 -185 CURVE SMOOTH"
);
},
{
closed = 1;
nodes = (
"254 58 OFFCURVE",
"221 169 OFFCURVE",
"221 358 CURVE SMOOTH",
"221 547 OFFCURVE",
"254 657 OFFCURVE",
"344 657 CURVE SMOOTH",
"432 657 OFFCURVE",
"464 547 OFFCURVE",
"464 358 CURVE SMOOTH",
"464 169 OFFCURVE",
"432 58 OFFCURVE",
"343 58 CURVE SMOOTH"
);
}
);
width = 684;
},
{
layerId = "C91144B6-58F5-45F2-9CE4-7ED6CE127FD4";
name = "Light Condensed";
paths = (
{
closed = 1;
nodes = (
"430 -160 OFFCURVE",
"465 -151 OFFCURVE",
"465 -132 CURVE SMOOTH",
"465 -124 OFFCURVE",
"460 -116 OFFCURVE",
"451 -116 CURVE",
"433 -130 OFFCURVE",
"418 -135 OFFCURVE",
"400 -135 CURVE SMOOTH",
"368 -135 OFFCURVE",
"348 -112 OFFCURVE",
"348 -59 CURVE SMOOTH",
"348 -16 OFFCURVE",
"361 13 OFFCURVE",
"384 34 CURVE SMOOTH",
"450 92 OFFCURVE",
"485 203 OFFCURVE",
"485 358 CURVE SMOOTH",
"485 610 OFFCURVE",
"414 725 OFFCURVE",
"265 725 CURVE SMOOTH",
"118 725 OFFCURVE",
"44 596 OFFCURVE",
"44 359 CURVE SMOOTH",
"44 137 OFFCURVE",
"116 -10 OFFCURVE",
"264 -10 CURVE SMOOTH",
"289 -10 OFFCURVE",
"312 -6 OFFCURVE",
"333 3 CURVE",
"325 -14 OFFCURVE",
"320 -35 OFFCURVE",
"320 -62 CURVE SMOOTH",
"320 -132 OFFCURVE",
"355 -160 OFFCURVE",
"399 -160 CURVE SMOOTH"
);
},
{
closed = 1;
nodes = (
"137 15 OFFCURVE",
"72 153 OFFCURVE",
"72 358 CURVE SMOOTH",
"72 574 OFFCURVE",
"131 700 OFFCURVE",
"265 700 CURVE SMOOTH",
"406 700 OFFCURVE",
"457 574 OFFCURVE",
"457 358 CURVE SMOOTH",
"457 146 OFFCURVE",
"392 15 OFFCURVE",
"264 15 CURVE SMOOTH"
);
}
);
width = 530;
},
{
layerId = "E7C4F5EE-4982-479C-BF20-1C8706EFFC5D";
name = Condensed;
paths = (
{
closed = 1;
nodes = (
"463 -166 OFFCURVE",
"498 -146 OFFCURVE",
"498 -129 CURVE SMOOTH",
"498 -116 OFFCURVE",
"494 -109 OFFCURVE",
"485 -105 CURVE",
"467 -120 OFFCURVE",
"443 -130 OFFCURVE",
"426 -130 CURVE SMOOTH",
"395 -130 OFFCURVE",
"376 -107 OFFCURVE",
"376 -61 CURVE SMOOTH",
"376 -8 OFFCURVE",
"393 19 OFFCURVE",
"423 47 CURVE SMOOTH",
"482 103 OFFCURVE",
"520 210 OFFCURVE",
"520 358 CURVE SMOOTH",
"520 580 OFFCURVE",
"442 725 OFFCURVE",
"283 725 CURVE SMOOTH",
"122 725 OFFCURVE",
"44 580 OFFCURVE",
"44 359 CURVE SMOOTH",
"44 137 OFFCURVE",
"122 -10 OFFCURVE",
"282 -10 CURVE SMOOTH",
"304 -10 OFFCURVE",
"330 -7 OFFCURVE",
"349 2 CURVE",
"337 -17 OFFCURVE",
"329 -41 OFFCURVE",
"329 -66 CURVE SMOOTH",
"329 -137 OFFCURVE",
"366 -166 OFFCURVE",
"420 -166 CURVE SMOOTH"
);
},
{
closed = 1;
nodes = (
"166 37 OFFCURVE",
"116 156 OFFCURVE",
"116 358 CURVE SMOOTH",
"116 560 OFFCURVE",
"166 678 OFFCURVE",
"283 678 CURVE SMOOTH",
"400 678 OFFCURVE",
"448 560 OFFCURVE",
"448 358 CURVE SMOOTH",
"448 156 OFFCURVE",
"404 37 OFFCURVE",
"282 37 CURVE SMOOTH"
);
}
);
width = 565;
}
);
leftKerningGroup = uni10A7;
note = uni10AD;
rightKerningGroup = uni10AD;
unicode = 10AD;
},
{
color = 5;
glyphname = uni10AE;
lastChange = "2015-09-23 11:12:30 +0000";
layers = (
{
layerId = "5E7FF211-9823-4E5B-BC80-AC4B3CA4BC69";
name = Regular;
paths = (
{
closed = 1;
nodes = (
"612 -10 OFFCURVE",
"704 67 OFFCURVE",
"704 204 CURVE SMOOTH",
"704 714 LINE",
"508 714 LINE",
"508 672 LINE",
"521 672 LINE SMOOTH",
"572 672 OFFCURVE",
"603 659 OFFCURVE",
"603 604 CURVE SMOOTH",
"603 206 LINE SMOOTH",
"603 108 OFFCURVE",
"545 50 OFFCURVE",
"446 50 CURVE SMOOTH",
"343 50 OFFCURVE",
"289 105 OFFCURVE",
"289 210 CURVE SMOOTH",
"289 714 LINE",
"20 714 LINE",
"20 660 LINE",
"188 660 LINE",
"188 216 LINE SMOOTH",
"188 63 OFFCURVE",
"274 -10 OFFCURVE",
"450 -10 CURVE SMOOTH"
);
}
);
width = 804;
},
{
layerId = "101C8DBD-EDBB-4DB6-972E-FA2DBA854B69";
name = SemiBold;
paths = (
{
closed = 1;
nodes = (
"729 -10 OFFCURVE",
"821 66 OFFCURVE",
"821 218 CURVE SMOOTH",
"821 714 LINE",
"558 714 LINE",
"558 661 LINE",
"606 661 LINE SMOOTH",
"649 661 OFFCURVE",
"663 641 OFFCURVE",
"663 600 CURVE SMOOTH",
"663 210 LINE SMOOTH",
"663 113 OFFCURVE",
"618 61 OFFCURVE",
"538 61 CURVE SMOOTH",
"453 61 OFFCURVE",
"413 108 OFFCURVE",
"413 210 CURVE SMOOTH",
"413 714 LINE",
"15 714 LINE",
"15 643 LINE",
"255 643 LINE",
"255 218 LINE SMOOTH",
"255 65 OFFCURVE",
"347 -10 OFFCURVE",
"538 -10 CURVE SMOOTH"
);
}
);
width = 901;
},
{
layerId = "5E7C5774-385D-4E06-B68E-CBE970134A7B";
name = SemiLight;
paths = (
{
closed = 1;
nodes = (
"653 -10 OFFCURVE",
"736 84 OFFCURVE",
"736 219 CURVE SMOOTH",
"736 714 LINE",
"575 714 LINE",
"575 686 LINE",
"599 686 LINE SMOOTH",
"646 686 OFFCURVE",
"672 675 OFFCURVE",
"672 605 CURVE SMOOTH",
"672 213 LINE SMOOTH",
"672 106 OFFCURVE",
"615 26 OFFCURVE",
"491 26 CURVE SMOOTH",
"379 26 OFFCURVE",
"312 84 OFFCURVE",
"312 207 CURVE SMOOTH",
"312 714 LINE",
"22 714 LINE",
"22 671 LINE",
"248 671 LINE",
"248 216 LINE SMOOTH",
"248 57 OFFCURVE",
"343 -10 OFFCURVE",
"492 -10 CURVE SMOOTH"
);
}
);
width = 837;
},
{
layerId = "1D4F67F9-897D-45AD-B7F0-CA61A6862C03";
name = Light;
paths = (
{
closed = 1;
nodes = (
"605 -10 OFFCURVE",
"679 88 OFFCURVE",
"679 218 CURVE SMOOTH",
"679 714 LINE",
"552 714 LINE",
"552 694 LINE SMOOTH",
"595 694 LINE",
"645 694 OFFCURVE",
"651 683 OFFCURVE",
"651 606 CURVE SMOOTH",
"651 219 LINE SMOOTH",
"651 106 OFFCURVE",
"589 15 OFFCURVE",
"448 15 CURVE SMOOTH",
"324 15 OFFCURVE",
"248 76 OFFCURVE",
"248 210 CURVE SMOOTH",
"248 714 LINE",
"24 714 LINE",
"24 689 LINE",
"220 689 LINE",
"220 214 LINE SMOOTH",
"220 51 OFFCURVE",
"312 -10 OFFCURVE",
"450 -10 CURVE SMOOTH"
);
}
);
width = 762;
},
{
layerId = "75A83886-EED5-4C31-9670-660514D8A4F6";
name = "Bold Condensed";
paths = (
{
closed = 1;
nodes = (
"616 -10 OFFCURVE",
"683 80 OFFCURVE",
"683 214 CURVE SMOOTH",
"683 714 LINE",
"440 714 LINE",
"440 658 LINE",
"462 658 LINE",
"492 658 OFFCURVE",
"516 651 OFFCURVE",
"516 599 CURVE SMOOTH",
"516 216 LINE SMOOTH",
"516 111 OFFCURVE",
"483 64 OFFCURVE",
"432 64 CURVE SMOOTH",
"368 64 OFFCURVE",
"342 99 OFFCURVE",
"342 210 CURVE SMOOTH",
"342 714 LINE",
"10 714 LINE",
"10 650 LINE",
"175 650 LINE",
"175 218 LINE SMOOTH",
"175 54 OFFCURVE",
"273 -10 OFFCURVE",
"433 -10 CURVE SMOOTH"
);
}
);
width = 761;
},
{
layerId = "C91144B6-58F5-45F2-9CE4-7ED6CE127FD4";
name = "Light Condensed";
paths = (
{
closed = 1;
nodes = (
"439 -10 OFFCURVE",
"496 89 OFFCURVE",
"496 200 CURVE SMOOTH",
"496 714 LINE",
"395 714 LINE",
"395 694 LINE",
"412 694 LINE SMOOTH",
"462 694 OFFCURVE",
"468 683 OFFCURVE",
"468 607 CURVE SMOOTH",
"468 202 LINE SMOOTH",
"468 114 OFFCURVE",
"429 15 OFFCURVE",
"317 15 CURVE SMOOTH",
"229 15 OFFCURVE",
"171 74 OFFCURVE",
"171 210 CURVE SMOOTH",
"171 714 LINE",
"18 714 LINE",
"18 689 LINE",
"143 689 LINE",
"143 214 LINE SMOOTH",
"143 55 OFFCURVE",
"213 -10 OFFCURVE",
"316 -10 CURVE SMOOTH"
);
}
);
width = 580;
},
{
layerId = "E7C4F5EE-4982-479C-BF20-1C8706EFFC5D";
name = Condensed;
paths = (
{
closed = 1;
nodes = (
"480 -10 OFFCURVE",
"539 87 OFFCURVE",
"539 204 CURVE SMOOTH",
"539 714 LINE",
"400 714 LINE",
"400 679 LINE",
"420 679 LINE",
"465 679 OFFCURVE",
"475 669 OFFCURVE",
"475 599 CURVE SMOOTH",
"475 216 LINE SMOOTH",
"475 123 OFFCURVE",
"438 37 OFFCURVE",
"342 37 CURVE SMOOTH",
"260 37 OFFCURVE",
"210 90 OFFCURVE",
"210 220 CURVE SMOOTH",
"210 714 LINE",
"15 714 LINE",
"15 671 LINE",
"146 671 LINE",
"146 215 LINE SMOOTH",
"146 55 OFFCURVE",
"223 -10 OFFCURVE",
"341 -10 CURVE SMOOTH"
);
}
);
width = 622;
}
);
leftKerningGroup = uni10A8;
note = uni10AE;
rightKerningGroup = uni10AE;
unicode = 10AE;
},
{
color = 5;
glyphname = uni10AF;
lastChange = "2015-09-23 11:12:30 +0000";
layers = (
{
layerId = "5E7FF211-9823-4E5B-BC80-AC4B3CA4BC69";
name = Regular;
paths = (
{
closed = 1;
nodes = (
"636 0 LINE",
"636 714 LINE",
"450 714 LINE",
"450 672 LINE",
"454 672 LINE SMOOTH",
"515 672 OFFCURVE",
"535 649 OFFCURVE",
"535 604 CURVE SMOOTH",
"535 476 LINE SMOOTH",
"535 365 OFFCURVE",
"480 312 OFFCURVE",
"371 312 CURVE SMOOTH",
"275 312 OFFCURVE",
"227 371 OFFCURVE",
"227 489 CURVE SMOOTH",
"227 577 OFFCURVE",
"248 672 OFFCURVE",
"310 672 CURVE",
"310 714 LINE",
"20 714 LINE",
"20 660 LINE",
"186 660 LINE",
"140 618 OFFCURVE",
"116 561 OFFCURVE",
"116 488 CURVE SMOOTH",
"116 338 OFFCURVE",
"205 258 OFFCURVE",
"359 258 CURVE SMOOTH",
"440 258 OFFCURVE",
"499 282 OFFCURVE",
"534 329 CURVE",
"539 329 LINE",
"537 290 OFFCURVE",
"535 262 OFFCURVE",
"535 244 CURVE SMOOTH",
"535 0 LINE"
);
}
);
width = 736;
},
{
layerId = "101C8DBD-EDBB-4DB6-972E-FA2DBA854B69";
name = SemiBold;
paths = (
{
closed = 1;
nodes = (
"663 0 LINE",
"663 714 LINE",
"437 714 LINE",
"437 661 LINE",
"454 661 LINE SMOOTH",
"493 661 OFFCURVE",
"505 641 OFFCURVE",
"505 596 CURVE SMOOTH",
"505 464 LINE SMOOTH",
"505 363 OFFCURVE",
"466 312 OFFCURVE",
"387 312 CURVE SMOOTH",
"305 312 OFFCURVE",
"268 358 OFFCURVE",
"268 473 CURVE SMOOTH",
"268 606 OFFCURVE",
"297 661 OFFCURVE",
"367 661 CURVE",
"367 714 LINE",
"15 714 LINE",
"15 643 LINE",
"184 643 LINE",
"129 606 OFFCURVE",
"100 537 OFFCURVE",
"100 456 CURVE SMOOTH",
"100 312 OFFCURVE",
"184 228 OFFCURVE",
"328 228 CURVE SMOOTH",
"414 228 OFFCURVE",
"471 253 OFFCURVE",
"506 308 CURVE",
"513 308 LINE",
"508 256 OFFCURVE",
"505 216 OFFCURVE",
"505 187 CURVE SMOOTH",
"505 0 LINE"
);
}
);
width = 748;
},
{
layerId = "5E7C5774-385D-4E06-B68E-CBE970134A7B";
name = SemiLight;
paths = (
{
closed = 1;
nodes = (
"590 0 LINE",
"590 714 LINE",
"430 714 LINE",
"430 679 LINE",
"463 679 LINE SMOOTH",
"510 679 OFFCURVE",
"526 656 OFFCURVE",
"526 610 CURVE SMOOTH",
"526 461 LINE SMOOTH",
"526 361 OFFCURVE",
"469 281 OFFCURVE",
"322 281 CURVE SMOOTH",
"212 281 OFFCURVE",
"164 350 OFFCURVE",
"164 478 CURVE SMOOTH",
"164 606 OFFCURVE",
"188 674 OFFCURVE",
"292 674 CURVE",
"292 714 LINE",
"12 714 LINE",
"12 671 LINE",
"169 671 LINE",
"122 633 OFFCURVE",
"100 570 OFFCURVE",
"100 478 CURVE SMOOTH",
"100 316 OFFCURVE",
"188 238 OFFCURVE",
"318 238 CURVE SMOOTH",
"430 238 OFFCURVE",
"489 273 OFFCURVE",
"525 334 CURVE",
"529 334 LINE",
"527 303 OFFCURVE",
"526 271 OFFCURVE",
"526 239 CURVE SMOOTH",
"526 0 LINE"
);
}
);
width = 702;
},
{
layerId = "1D4F67F9-897D-45AD-B7F0-CA61A6862C03";
name = Light;
paths = (
{
closed = 1;
nodes = (
"518 0 LINE",
"518 714 LINE",
"391 714 LINE",
"391 694 LINE",
"434 694 LINE SMOOTH",
"484 694 OFFCURVE",
"490 683 OFFCURVE",
"490 606 CURVE SMOOTH",
"490 467 LINE SMOOTH",
"490 354 OFFCURVE",
"433 263 OFFCURVE",
"291 263 CURVE SMOOTH",
"167 263 OFFCURVE",
"109 342 OFFCURVE",
"109 477 CURVE SMOOTH",
"109 619 OFFCURVE",
"174 690 OFFCURVE",
"256 690 CURVE",
"256 714 LINE",
"12 714 LINE",
"12 689 LINE",
"175 689 LINE",
"115 655 OFFCURVE",
"81 585 OFFCURVE",
"81 477 CURVE SMOOTH",
"81 315 OFFCURVE",
"155 238 OFFCURVE",
"290 238 CURVE SMOOTH",
"395 238 OFFCURVE",
"456 281 OFFCURVE",
"490 349 CURVE",
"493 349 LINE",
"491 317 OFFCURVE",
"490 284 OFFCURVE",
"490 252 CURVE SMOOTH",
"490 0 LINE"
);
}
);
width = 633;
},
{
layerId = "75A83886-EED5-4C31-9670-660514D8A4F6";
name = "Bold Condensed";
paths = (
{
closed = 1;
nodes = (
"637 0 LINE",
"637 714 LINE",
"391 714 LINE",
"391 658 LINE",
"414 658 LINE SMOOTH",
"444 658 OFFCURVE",
"467 641 OFFCURVE",
"467 589 CURVE SMOOTH",
"467 418 LINE SMOOTH",
"467 372 OFFCURVE",
"438 311 OFFCURVE",
"370 311 CURVE SMOOTH",
"280 311 OFFCURVE",
"263 360 OFFCURVE",
"263 474 CURVE SMOOTH",
"263 599 OFFCURVE",
"279 658 OFFCURVE",
"329 658 CURVE",
"329 714 LINE",
"10 714 LINE",
"10 650 LINE",
"150 650 LINE",
"112 610 OFFCURVE",
"93 551 OFFCURVE",
"93 472 CURVE SMOOTH",
"93 310 OFFCURVE",
"184 230 OFFCURVE",
"328 230 CURVE SMOOTH",
"383 230 OFFCURVE",
"431 254 OFFCURVE",
"467 302 CURVE",
"471 302 LINE",
"468 278 OFFCURVE",
"467 254 OFFCURVE",
"467 230 CURVE SMOOTH",
"467 0 LINE"
);
}
);
width = 723;
},
{
layerId = "C91144B6-58F5-45F2-9CE4-7ED6CE127FD4";
name = "Light Condensed";
paths = (
{
closed = 1;
nodes = (
"426 0 LINE",
"426 714 LINE",
"318 714 LINE",
"318 694 LINE",
"348 694 LINE SMOOTH",
"394 694 OFFCURVE",
"398 683 OFFCURVE",
"398 609 CURVE SMOOTH",
"398 399 LINE SMOOTH",
"398 332 OFFCURVE",
"336 263 OFFCURVE",
"247 263 CURVE SMOOTH",
"138 263 OFFCURVE",
"96 337 OFFCURVE",
"96 477 CURVE SMOOTH",
"96 619 OFFCURVE",
"130 690 OFFCURVE",
"225 690 CURVE",
"225 714 LINE",
"18 714 LINE",
"18 689 LINE",
"142 689 LINE",
"89 654 OFFCURVE",
"68 584 OFFCURVE",
"68 477 CURVE SMOOTH",
"68 312 OFFCURVE",
"125 238 OFFCURVE",
"245 238 CURVE SMOOTH",
"303 238 OFFCURVE",
"363 264 OFFCURVE",
"396 330 CURVE",
"400 330 LINE",
"399 309 OFFCURVE",
"398 289 OFFCURVE",
"398 268 CURVE SMOOTH",
"398 0 LINE"
);
}
);
width = 526;
},
{
layerId = "E7C4F5EE-4982-479C-BF20-1C8706EFFC5D";
name = Condensed;
paths = (
{
closed = 1;
nodes = (
"465 0 LINE",
"465 714 LINE",
"326 714 LINE",
"326 678 LINE",
"340 678 LINE SMOOTH",
"382 678 OFFCURVE",
"400 663 OFFCURVE",
"400 601 CURVE SMOOTH",
"400 406 LINE SMOOTH",
"400 345 OFFCURVE",
"341 286 OFFCURVE",
"254 286 CURVE SMOOTH",
"144 286 OFFCURVE",
"110 350 OFFCURVE",
"110 477 CURVE SMOOTH",
"110 610 OFFCURVE",
"138 678 OFFCURVE",
"211 678 CURVE",
"211 714 LINE",
"-25 714 LINE",
"-25 671 LINE",
"107 671 LINE",
"67 633 OFFCURVE",
"45 569 OFFCURVE",
"45 477 CURVE SMOOTH",
"45 315 OFFCURVE",
"118 238 OFFCURVE",
"236 238 CURVE SMOOTH",
"303 238 OFFCURVE",
"365 264 OFFCURVE",
"399 325 CURVE",
"403 325 LINE",
"401 303 OFFCURVE",
"400 282 OFFCURVE",
"400 261 CURVE SMOOTH",
"400 0 LINE"
);
}
);
width = 559;
}
);
leftKerningGroup = uni10A1;
note = uni10AF;
unicode = 10AF;
},
{
color = 5;
glyphname = uni10B0;
lastChange = "2015-09-23 11:12:30 +0000";
layers = (
{
layerId = "5E7FF211-9823-4E5B-BC80-AC4B3CA4BC69";
name = Regular;
paths = (
{
closed = 1;
nodes = (
"441 -10 OFFCURVE",
"521 70 OFFCURVE",
"521 223 CURVE SMOOTH",
"521 355 LINE",
"529 355 LINE SMOOTH",
"611 355 OFFCURVE",
"644 313 OFFCURVE",
"644 217 CURVE",
"692 217 OFFCURVE",
"722 242 OFFCURVE",
"722 286 CURVE SMOOTH",
"722 370 OFFCURVE",
"660 409 OFFCURVE",
"562 409 CURVE SMOOTH",
"521 409 LINE",
"521 714 LINE",
"420 714 LINE",
"420 220 LINE SMOOTH",
"420 109 OFFCURVE",
"375 44 OFFCURVE",
"283 44 CURVE SMOOTH",
"188 44 OFFCURVE",
"146 101 OFFCURVE",
"146 232 CURVE SMOOTH",
"146 318 LINE",
"45 318 LINE",
"45 226 LINE SMOOTH",
"45 76 OFFCURVE",
"134 -10 OFFCURVE",
"287 -10 CURVE SMOOTH"
);
}
);
width = 742;
},
{
layerId = "101C8DBD-EDBB-4DB6-972E-FA2DBA854B69";
name = SemiBold;
paths = (
{
closed = 1;
nodes = (
"512 -10 OFFCURVE",
"611 69 OFFCURVE",
"611 218 CURVE SMOOTH",
"611 352 LINE",
"616 352 LINE",
"683 352 OFFCURVE",
"716 323 OFFCURVE",
"716 220 CURVE",
"785 220 OFFCURVE",
"836 257 OFFCURVE",
"836 304 CURVE SMOOTH",
"836 376 OFFCURVE",
"775 414 OFFCURVE",
"666 414 CURVE SMOOTH",
"611 414 LINE",
"611 714 LINE",
"453 714 LINE",
"453 210 LINE SMOOTH",
"453 113 OFFCURVE",
"408 61 OFFCURVE",
"328 61 CURVE SMOOTH",
"243 61 OFFCURVE",
"203 108 OFFCURVE",
"203 210 CURVE SMOOTH",
"203 320 LINE",
"45 320 LINE",
"45 218 LINE SMOOTH",
"45 66 OFFCURVE",
"140 -10 OFFCURVE",
"331 -10 CURVE SMOOTH"
);
}
);
width = 851;
},
{
layerId = "5E7C5774-385D-4E06-B68E-CBE970134A7B";
name = SemiLight;
paths = (
{
closed = 1;
nodes = (
"437 -10 OFFCURVE",
"524 57 OFFCURVE",
"524 216 CURVE SMOOTH",
"524 350 LINE",
"544 350 LINE SMOOTH",
"621 350 OFFCURVE",
"634 328 OFFCURVE",
"634 254 CURVE",
"668 254 OFFCURVE",
"687 272 OFFCURVE",
"687 302 CURVE SMOOTH",
"687 358 OFFCURVE",
"652 386 OFFCURVE",
"551 386 CURVE SMOOTH",
"524 386 LINE",
"524 714 LINE",
"460 714 LINE",
"460 207 LINE SMOOTH",
"460 84 OFFCURVE",
"400 26 OFFCURVE",
"296 26 CURVE SMOOTH",
"180 26 OFFCURVE",
"130 106 OFFCURVE",
"130 213 CURVE SMOOTH",
"130 352 LINE",
"66 352 LINE",
"66 219 LINE SMOOTH",
"66 84 OFFCURVE",
"141 -10 OFFCURVE",
"295 -10 CURVE SMOOTH"
);
}
);
width = 707;
},
{
layerId = "1D4F67F9-897D-45AD-B7F0-CA61A6862C03";
name = Light;
paths = (
{
closed = 1;
nodes = (
"409 -10 OFFCURVE",
"491 51 OFFCURVE",
"491 214 CURVE SMOOTH",
"491 340 LINE",
"526 340 LINE SMOOTH",
"602 340 OFFCURVE",
"623 315 OFFCURVE",
"623 259 CURVE",
"642 259 OFFCURVE",
"650 270 OFFCURVE",
"650 289 CURVE SMOOTH",
"650 331 OFFCURVE",
"623 365 OFFCURVE",
"536 365 CURVE SMOOTH",
"491 365 LINE",
"491 714 LINE",
"463 714 LINE",
"463 210 LINE SMOOTH",
"463 76 OFFCURVE",
"397 15 OFFCURVE",
"283 15 CURVE SMOOTH",
"152 15 OFFCURVE",
"100 106 OFFCURVE",
"100 219 CURVE SMOOTH",
"100 346 LINE",
"72 346 LINE",
"72 218 LINE SMOOTH",
"72 88 OFFCURVE",
"136 -10 OFFCURVE",
"281 -10 CURVE SMOOTH"
);
}
);
width = 675;
},
{
layerId = "75A83886-EED5-4C31-9670-660514D8A4F6";
name = "Bold Condensed";
paths = (
{
closed = 1;
nodes = (
"463 -10 OFFCURVE",
"562 54 OFFCURVE",
"562 218 CURVE SMOOTH",
"562 360 LINE",
"580 360 LINE SMOOTH",
"636 360 OFFCURVE",
"672 328 OFFCURVE",
"672 220 CURVE",
"747 220 OFFCURVE",
"786 260 OFFCURVE",
"786 319 CURVE SMOOTH",
"786 396 OFFCURVE",
"702 428 OFFCURVE",
"571 428 CURVE SMOOTH",
"562 428 LINE",
"562 714 LINE",
"395 714 LINE",
"395 210 LINE SMOOTH",
"395 99 OFFCURVE",
"369 64 OFFCURVE",
"305 64 CURVE SMOOTH",
"254 64 OFFCURVE",
"221 111 OFFCURVE",
"221 216 CURVE SMOOTH",
"221 374 LINE",
"54 374 LINE",
"54 214 LINE SMOOTH",
"54 80 OFFCURVE",
"120 -10 OFFCURVE",
"303 -10 CURVE SMOOTH"
);
}
);
width = 796;
},
{
layerId = "C91144B6-58F5-45F2-9CE4-7ED6CE127FD4";
name = "Light Condensed";
paths = (
{
closed = 1;
nodes = (
"345 -10 OFFCURVE",
"415 55 OFFCURVE",
"415 214 CURVE SMOOTH",
"415 360 LINE",
"447 360 LINE SMOOTH",
"488 360 OFFCURVE",
"505 345 OFFCURVE",
"505 279 CURVE",
"522 279 OFFCURVE",
"532 290 OFFCURVE",
"532 309 CURVE SMOOTH",
"532 368 OFFCURVE",
"496 385 OFFCURVE",
"452 385 CURVE SMOOTH",
"415 385 LINE",
"415 714 LINE",
"387 714 LINE",
"387 210 LINE SMOOTH",
"387 74 OFFCURVE",
"329 15 OFFCURVE",
"241 15 CURVE SMOOTH",
"129 15 OFFCURVE",
"90 114 OFFCURVE",
"90 202 CURVE SMOOTH",
"90 344 LINE",
"62 344 LINE",
"62 200 LINE SMOOTH",
"62 89 OFFCURVE",
"119 -10 OFFCURVE",
"242 -10 CURVE SMOOTH"
);
}
);
width = 542;
},
{
layerId = "E7C4F5EE-4982-479C-BF20-1C8706EFFC5D";
name = Condensed;
paths = (
{
closed = 1;
nodes = (
"376 -10 OFFCURVE",
"453 55 OFFCURVE",
"453 215 CURVE SMOOTH",
"453 360 LINE",
"480 360 LINE SMOOTH",
"523 360 OFFCURVE",
"548 340 OFFCURVE",
"548 264 CURVE",
"580 264 OFFCURVE",
"598 291 OFFCURVE",
"598 320 CURVE SMOOTH",
"598 387 OFFCURVE",
"546 405 OFFCURVE",
"483 405 CURVE SMOOTH",
"453 405 LINE",
"453 714 LINE",
"389 714 LINE",
"389 210 LINE SMOOTH",
"389 80 OFFCURVE",
"339 37 OFFCURVE",
"258 37 CURVE SMOOTH",
"161 37 OFFCURVE",
"124 113 OFFCURVE",
"124 206 CURVE SMOOTH",
"124 352 LINE",
"60 352 LINE",
"60 204 LINE SMOOTH",
"60 87 OFFCURVE",
"119 -10 OFFCURVE",
"258 -10 CURVE SMOOTH"
);
}
);
width = 608;
}
);
note = uni10B0;
unicode = 10B0;
},
{
color = 5;
glyphname = uni10B1;
lastChange = "2015-09-23 11:12:30 +0000";
layers = (
{
layerId = "5E7FF211-9823-4E5B-BC80-AC4B3CA4BC69";
name = Regular;
paths = (
{
closed = 1;
nodes = (
"498 -10 OFFCURVE",
"586 76 OFFCURVE",
"586 226 CURVE SMOOTH",
"586 318 LINE",
"485 318 LINE",
"485 232 LINE SMOOTH",
"485 101 OFFCURVE",
"444 44 OFFCURVE",
"348 44 CURVE SMOOTH",
"254 44 OFFCURVE",
"211 106 OFFCURVE",
"211 232 CURVE SMOOTH",
"211 714 LINE",
"15 714 LINE",
"15 672 LINE",
"28 672 LINE SMOOTH",
"79 672 OFFCURVE",
"110 659 OFFCURVE",
"110 604 CURVE SMOOTH",
"110 239 LINE SMOOTH",
"110 71 OFFCURVE",
"186 -10 OFFCURVE",
"344 -10 CURVE SMOOTH"
);
}
);
width = 631;
},
{
layerId = "101C8DBD-EDBB-4DB6-972E-FA2DBA854B69";
name = SemiBold;
paths = (
{
closed = 1;
nodes = (
"576 -10 OFFCURVE",
"676 69 OFFCURVE",
"676 218 CURVE SMOOTH",
"676 318 LINE",
"518 318 LINE",
"518 210 LINE SMOOTH",
"518 113 OFFCURVE",
"473 61 OFFCURVE",
"393 61 CURVE SMOOTH",
"308 61 OFFCURVE",
"268 108 OFFCURVE",
"268 210 CURVE SMOOTH",
"268 714 LINE",
"16 714 LINE",
"16 661 LINE",
"59 661 LINE SMOOTH",
"96 661 OFFCURVE",
"110 642 OFFCURVE",
"110 600 CURVE SMOOTH",
"110 218 LINE SMOOTH",
"110 66 OFFCURVE",
"205 -10 OFFCURVE",
"396 -10 CURVE SMOOTH"
);
}
);
width = 721;
},
{
layerId = "5E7C5774-385D-4E06-B68E-CBE970134A7B";
name = SemiLight;
paths = (
{
closed = 1;
nodes = (
"487 -10 OFFCURVE",
"578 57 OFFCURVE",
"578 216 CURVE SMOOTH",
"578 303 LINE",
"514 303 LINE",
"514 207 LINE SMOOTH",
"514 84 OFFCURVE",
"450 26 OFFCURVE",
"346 26 CURVE SMOOTH",
"229 26 OFFCURVE",
"174 106 OFFCURVE",
"174 213 CURVE SMOOTH",
"174 714 LINE",
"14 714 LINE",
"14 686 LINE",
"57 686 LINE SMOOTH",
"102 686 OFFCURVE",
"110 675 OFFCURVE",
"110 605 CURVE SMOOTH",
"110 219 LINE SMOOTH",
"110 84 OFFCURVE",
"190 -10 OFFCURVE",
"344 -10 CURVE SMOOTH"
);
}
);
width = 643;
},
{
layerId = "1D4F67F9-897D-45AD-B7F0-CA61A6862C03";
name = Light;
paths = (
{
closed = 1;
nodes = (
"456 -10 OFFCURVE",
"543 51 OFFCURVE",
"543 214 CURVE SMOOTH",
"543 306 LINE",
"515 306 LINE",
"515 210 LINE SMOOTH",
"515 76 OFFCURVE",
"444 15 OFFCURVE",
"329 15 CURVE SMOOTH",
"198 15 OFFCURVE",
"138 106 OFFCURVE",
"138 219 CURVE SMOOTH",
"138 714 LINE",
"13 714 LINE",
"13 694 LINE",
"55 694 LINE SMOOTH",
"102 694 OFFCURVE",
"110 683 OFFCURVE",
"110 606 CURVE SMOOTH",
"110 218 LINE SMOOTH",
"110 88 OFFCURVE",
"182 -10 OFFCURVE",
"327 -10 CURVE SMOOTH"
);
}
);
width = 595;
},
{
layerId = "75A83886-EED5-4C31-9670-660514D8A4F6";
name = "Bold Condensed";
paths = (
{
closed = 1;
nodes = (
"534 -10 OFFCURVE",
"601 80 OFFCURVE",
"601 214 CURVE SMOOTH",
"601 289 LINE",
"434 289 LINE",
"434 216 LINE SMOOTH",
"434 111 OFFCURVE",
"401 64 OFFCURVE",
"350 64 CURVE SMOOTH",
"286 64 OFFCURVE",
"260 99 OFFCURVE",
"260 210 CURVE SMOOTH",
"260 714 LINE",
"14 714 LINE",
"14 658 LINE",
"38 658 LINE SMOOTH",
"78 658 OFFCURVE",
"92 653 OFFCURVE",
"92 599 CURVE SMOOTH",
"92 218 LINE SMOOTH",
"92 54 OFFCURVE",
"191 -10 OFFCURVE",
"351 -10 CURVE SMOOTH"
);
}
);
width = 649;
},
{
layerId = "C91144B6-58F5-45F2-9CE4-7ED6CE127FD4";
name = "Light Condensed";
paths = (
{
closed = 1;
nodes = (
"379 -10 OFFCURVE",
"436 89 OFFCURVE",
"436 200 CURVE SMOOTH",
"436 307 LINE",
"408 307 LINE",
"408 202 LINE SMOOTH",
"408 114 OFFCURVE",
"369 15 OFFCURVE",
"257 15 CURVE SMOOTH",
"169 15 OFFCURVE",
"111 74 OFFCURVE",
"111 210 CURVE SMOOTH",
"111 714 LINE",
"10 714 LINE",
"10 694 LINE",
"33 694 LINE SMOOTH",
"79 694 OFFCURVE",
"83 683 OFFCURVE",
"83 609 CURVE SMOOTH",
"83 214 LINE SMOOTH",
"83 55 OFFCURVE",
"153 -10 OFFCURVE",
"256 -10 CURVE SMOOTH"
);
}
);
width = 488;
},
{
layerId = "E7C4F5EE-4982-479C-BF20-1C8706EFFC5D";
name = Condensed;
paths = (
{
closed = 1;
nodes = (
"419 -10 OFFCURVE",
"478 87 OFFCURVE",
"478 204 CURVE SMOOTH",
"478 302 LINE",
"414 302 LINE",
"414 216 LINE SMOOTH",
"414 123 OFFCURVE",
"377 37 OFFCURVE",
"281 37 CURVE SMOOTH",
"199 37 OFFCURVE",
"149 90 OFFCURVE",
"149 220 CURVE SMOOTH",
"149 714 LINE",
"11 714 LINE",
"11 679 LINE",
"34 679 LINE SMOOTH",
"78 679 OFFCURVE",
"85 669 OFFCURVE",
"85 600 CURVE SMOOTH",
"85 215 LINE SMOOTH",
"85 55 OFFCURVE",
"162 -10 OFFCURVE",
"280 -10 CURVE SMOOTH"
);
}
);
width = 530;
}
);
leftKerningGroup = uni10A9;
note = uni10B1;
rightKerningGroup = uni10B1;
unicode = 10B1;
},
{
color = 5;
glyphname = uni10B2;
lastChange = "2015-09-23 11:12:30 +0000";
layers = (
{
layerId = "5E7FF211-9823-4E5B-BC80-AC4B3CA4BC69";
name = Regular;
paths = (
{
closed = 1;
nodes = (
"499 -95 OFFCURVE",
"526 -73 OFFCURVE",
"526 -34 CURVE SMOOTH",
"526 25 OFFCURVE",
"479 54 OFFCURVE",
"385 54 CURVE SMOOTH",
"211 54 LINE",
"211 278 LINE",
"274 278 LINE SMOOTH",
"444 278 OFFCURVE",
"542 360 OFFCURVE",
"542 505 CURVE SMOOTH",
"542 640 OFFCURVE",
"458 714 OFFCURVE",
"296 714 CURVE SMOOTH",
"15 714 LINE",
"15 672 LINE",
"28 672 LINE SMOOTH",
"79 672 OFFCURVE",
"110 659 OFFCURVE",
"110 604 CURVE SMOOTH",
"110 0 LINE",
"331 0 LINE SMOOTH",
"417 0 OFFCURVE",
"448 -16 OFFCURVE",
"448 -95 CURVE"
);
},
{
closed = 1;
nodes = (
"211 666 LINE",
"279 666 LINE SMOOTH",
"388 666 OFFCURVE",
"434 618 OFFCURVE",
"434 501 CURVE SMOOTH",
"434 376 OFFCURVE",
"387 325 OFFCURVE",
"264 325 CURVE SMOOTH",
"211 325 LINE"
);
}
);
width = 604;
},
{
layerId = "101C8DBD-EDBB-4DB6-972E-FA2DBA854B69";
name = SemiBold;
paths = (
{
closed = 1;
nodes = (
"523 -128 OFFCURVE",
"566 -93 OFFCURVE",
"566 -37 CURVE SMOOTH",
"566 27 OFFCURVE",
"507 61 OFFCURVE",
"396 61 CURVE SMOOTH",
"263 61 LINE",
"263 273 LINE",
"297 273 LINE SMOOTH",
"467 273 OFFCURVE",
"592 345 OFFCURVE",
"592 502 CURVE SMOOTH",
"592 639 OFFCURVE",
"496 714 OFFCURVE",
"319 714 CURVE SMOOTH",
"11 714 LINE",
"11 661 LINE",
"54 661 LINE SMOOTH",
"91 661 OFFCURVE",
"105 643 OFFCURVE",
"105 600 CURVE SMOOTH",
"105 0 LINE",
"330 0 LINE SMOOTH",
"422 0 OFFCURVE",
"456 -36 OFFCURVE",
"456 -128 CURVE"
);
},
{
closed = 1;
nodes = (
"263 655 LINE",
"302 655 LINE SMOOTH",
"388 655 OFFCURVE",
"424 609 OFFCURVE",
"424 498 CURVE SMOOTH",
"424 377 OFFCURVE",
"385 331 OFFCURVE",
"287 331 CURVE SMOOTH",
"263 331 LINE"
);
}
);
width = 622;
},
{
layerId = "5E7C5774-385D-4E06-B68E-CBE970134A7B";
name = SemiLight;
paths = (
{
closed = 1;
nodes = (
"489 -96 OFFCURVE",
"508 -78 OFFCURVE",
"508 -48 CURVE SMOOTH",
"508 8 OFFCURVE",
"473 36 OFFCURVE",
"372 36 CURVE SMOOTH",
"206 36 LINE",
"206 281 LINE",
"287 281 LINE SMOOTH",
"474 281 OFFCURVE",
"538 389 OFFCURVE",
"538 507 CURVE SMOOTH",
"538 636 OFFCURVE",
"466 714 OFFCURVE",
"309 714 CURVE SMOOTH",
"44 714 LINE",
"44 679 LINE",
"49 679 LINE SMOOTH",
"103 679 OFFCURVE",
"141 669 OFFCURVE",
"141 607 CURVE SMOOTH",
"141 0 LINE",
"365 0 LINE SMOOTH",
"442 0 OFFCURVE",
"455 -22 OFFCURVE",
"455 -96 CURVE"
);
},
{
closed = 1;
nodes = (
"206 673 LINE",
"292 673 LINE SMOOTH",
"420 673 OFFCURVE",
"468 618 OFFCURVE",
"468 503 CURVE SMOOTH",
"468 371 OFFCURVE",
"412 321 OFFCURVE",
"277 321 CURVE SMOOTH",
"206 321 LINE"
);
}
);
width = 583;
},
{
layerId = "1D4F67F9-897D-45AD-B7F0-CA61A6862C03";
name = Light;
paths = (
{
closed = 1;
nodes = (
"472 -81 OFFCURVE",
"480 -70 OFFCURVE",
"480 -51 CURVE SMOOTH",
"480 -10 OFFCURVE",
"453 25 OFFCURVE",
"364 25 CURVE SMOOTH",
"177 25 LINE",
"177 284 LINE",
"277 284 LINE SMOOTH",
"452 284 OFFCURVE",
"511 383 OFFCURVE",
"511 509 CURVE SMOOTH",
"511 639 OFFCURVE",
"449 714 OFFCURVE",
"299 714 CURVE SMOOTH",
"50 714 LINE",
"50 694 LINE",
"93 694 LINE SMOOTH",
"143 694 OFFCURVE",
"149 683 OFFCURVE",
"149 606 CURVE SMOOTH",
"149 0 LINE",
"356 0 LINE SMOOTH",
"434 0 OFFCURVE",
"453 -25 OFFCURVE",
"453 -81 CURVE"
);
},
{
closed = 1;
nodes = (
"177 689 LINE",
"299 689 LINE SMOOTH",
"430 689 OFFCURVE",
"483 624 OFFCURVE",
"483 509 CURVE SMOOTH",
"483 401 OFFCURVE",
"438 309 OFFCURVE",
"276 309 CURVE SMOOTH",
"177 309 LINE"
);
}
);
width = 562;
},
{
layerId = "75A83886-EED5-4C31-9670-660514D8A4F6";
name = "Bold Condensed";
paths = (
{
closed = 1;
nodes = (
"476 -140 OFFCURVE",
"515 -100 OFFCURVE",
"515 -41 CURVE SMOOTH",
"515 36 OFFCURVE",
"451 68 OFFCURVE",
"320 68 CURVE SMOOTH",
"262 68 LINE",
"262 271 LINE",
"280 271 LINE SMOOTH",
"477 271 OFFCURVE",
"551 371 OFFCURVE",
"551 501 CURVE SMOOTH",
"551 642 OFFCURVE",
"472 714 OFFCURVE",
"298 714 CURVE SMOOTH",
"18 714 LINE",
"18 658 LINE",
"55 658 LINE SMOOTH",
"74 658 OFFCURVE",
"94 651 OFFCURVE",
"94 599 CURVE SMOOTH",
"94 0 LINE",
"309 0 LINE SMOOTH",
"365 0 OFFCURVE",
"401 -32 OFFCURVE",
"401 -140 CURVE"
);
},
{
closed = 1;
nodes = (
"261 652 LINE",
"284 652 LINE SMOOTH",
"347 652 OFFCURVE",
"377 603 OFFCURVE",
"377 497 CURVE SMOOTH",
"377 379 OFFCURVE",
"345 332 OFFCURVE",
"272 332 CURVE SMOOTH",
"261 332 LINE"
);
}
);
width = 553;
},
{
layerId = "C91144B6-58F5-45F2-9CE4-7ED6CE127FD4";
name = "Light Condensed";
paths = (
{
closed = 1;
nodes = (
"364 -81 OFFCURVE",
"374 -70 OFFCURVE",
"374 -51 CURVE SMOOTH",
"374 8 OFFCURVE",
"338 25 OFFCURVE",
"294 25 CURVE SMOOTH",
"137 25 LINE",
"137 284 LINE",
"207 284 LINE SMOOTH",
"349 284 OFFCURVE",
"393 399 OFFCURVE",
"393 509 CURVE SMOOTH",
"393 647 OFFCURVE",
"339 714 OFFCURVE",
"217 714 CURVE SMOOTH",
"36 714 LINE",
"36 694 LINE",
"53 694 LINE SMOOTH",
"103 694 OFFCURVE",
"109 683 OFFCURVE",
"109 606 CURVE SMOOTH",
"109 0 LINE",
"289 0 LINE SMOOTH",
"330 0 OFFCURVE",
"347 -15 OFFCURVE",
"347 -81 CURVE"
);
},
{
closed = 1;
nodes = (
"137 689 LINE",
"217 689 LINE SMOOTH",
"325 689 OFFCURVE",
"365 629 OFFCURVE",
"365 509 CURVE SMOOTH",
"365 420 OFFCURVE",
"333 309 OFFCURVE",
"210 309 CURVE SMOOTH",
"137 309 LINE"
);
}
);
width = 433;
},
{
layerId = "E7C4F5EE-4982-479C-BF20-1C8706EFFC5D";
name = Condensed;
paths = (
{
closed = 1;
nodes = (
"387 -96 OFFCURVE",
"405 -69 OFFCURVE",
"405 -40 CURVE SMOOTH",
"405 27 OFFCURVE",
"353 45 OFFCURVE",
"290 45 CURVE SMOOTH",
"171 45 LINE",
"171 281 LINE",
"227 281 LINE SMOOTH",
"377 281 OFFCURVE",
"429 389 OFFCURVE",
"429 507 CURVE SMOOTH",
"429 636 OFFCURVE",
"371 714 OFFCURVE",
"245 714 CURVE SMOOTH",
"32 714 LINE",
"32 679 LINE",
"40 679 LINE SMOOTH",
"78 679 OFFCURVE",
"106 669 OFFCURVE",
"106 607 CURVE SMOOTH",
"106 0 LINE",
"287 0 LINE SMOOTH",
"330 0 OFFCURVE",
"355 -20 OFFCURVE",
"355 -96 CURVE"
);
},
{
closed = 1;
nodes = (
"171 673 LINE",
"232 673 LINE SMOOTH",
"325 673 OFFCURVE",
"361 618 OFFCURVE",
"361 503 CURVE SMOOTH",
"361 371 OFFCURVE",
"320 321 OFFCURVE",
"220 321 CURVE SMOOTH",
"171 321 LINE"
);
}
);
width = 460;
}
);
leftKerningGroup = uni10B9;
note = uni10B2;
rightKerningGroup = uni10BC;
unicode = 10B2;
},
{
color = 5;
glyphname = uni10B3;
lastChange = "2015-09-23 11:12:30 +0000";
layers = (
{
layerId = "5E7FF211-9823-4E5B-BC80-AC4B3CA4BC69";
name = Regular;
paths = (
{
closed = 1;
nodes = (
"650 -174 OFFCURVE",
"713 -120 OFFCURVE",
"713 -40 CURVE SMOOTH",
"713 24 OFFCURVE",
"675 75 OFFCURVE",
"605 92 CURVE",
"658 158 OFFCURVE",
"685 247 OFFCURVE",
"685 358 CURVE SMOOTH",
"685 588 OFFCURVE",
"567 725 OFFCURVE",
"372 725 CURVE SMOOTH",
"168 725 OFFCURVE",
"56 591 OFFCURVE",
"56 359 CURVE SMOOTH",
"56 123 OFFCURVE",
"170 -10 OFFCURVE",
"371 -10 CURVE SMOOTH",
"447 -10 OFFCURVE",
"509 9 OFFCURVE",
"559 48 CURVE",
"598 38 OFFCURVE",
"622 4 OFFCURVE",
"622 -46 CURVE SMOOTH",
"622 -88 OFFCURVE",
"599 -114 OFFCURVE",
"558 -114 CURVE SMOOTH",
"528 -114 OFFCURVE",
"505 -101 OFFCURVE",
"487 -74 CURVE",
"475 -80 OFFCURVE",
"467 -97 OFFCURVE",
"467 -114 CURVE SMOOTH",
"467 -148 OFFCURVE",
"508 -174 OFFCURVE",
"567 -174 CURVE SMOOTH"
);
},
{
closed = 1;
nodes = (
"234 44 OFFCURVE",
"167 143 OFFCURVE",
"167 358 CURVE SMOOTH",
"167 575 OFFCURVE",
"234 671 OFFCURVE",
"372 671 CURVE SMOOTH",
"509 671 OFFCURVE",
"574 574 OFFCURVE",
"574 358 CURVE SMOOTH",
"574 142 OFFCURVE",
"508 44 OFFCURVE",
"371 44 CURVE SMOOTH"
);
}
);
width = 742;
},
{
layerId = "101C8DBD-EDBB-4DB6-972E-FA2DBA854B69";
name = SemiBold;
paths = (
{
closed = 1;
nodes = (
"689 -175 OFFCURVE",
"749 -121 OFFCURVE",
"749 -40 CURVE SMOOTH",
"749 25 OFFCURVE",
"711 70 OFFCURVE",
"646 93 CURVE",
"703 159 OFFCURVE",
"732 248 OFFCURVE",
"732 358 CURVE SMOOTH",
"732 586 OFFCURVE",
"605 725 OFFCURVE",
"395 725 CURVE SMOOTH",
"178 725 OFFCURVE",
"55 593 OFFCURVE",
"55 359 CURVE SMOOTH",
"55 136 OFFCURVE",
"169 -10 OFFCURVE",
"394 -10 CURVE SMOOTH",
"470 -10 OFFCURVE",
"533 7 OFFCURVE",
"585 41 CURVE",
"616 32 OFFCURVE",
"638 5 OFFCURVE",
"638 -31 CURVE SMOOTH",
"638 -65 OFFCURVE",
"615 -87 OFFCURVE",
"583 -87 CURVE SMOOTH",
"552 -87 OFFCURVE",
"528 -79 OFFCURVE",
"512 -63 CURVE",
"503 -72 OFFCURVE",
"497 -91 OFFCURVE",
"497 -105 CURVE SMOOTH",
"497 -147 OFFCURVE",
"543 -175 OFFCURVE",
"599 -175 CURVE SMOOTH"
);
},
{
closed = 1;
nodes = (
"279 55 OFFCURVE",
"223 151 OFFCURVE",
"223 358 CURVE SMOOTH",
"223 564 OFFCURVE",
"278 660 OFFCURVE",
"395 660 CURVE SMOOTH",
"510 660 OFFCURVE",
"564 565 OFFCURVE",
"564 358 CURVE SMOOTH",
"564 150 OFFCURVE",
"510 55 OFFCURVE",
"394 55 CURVE SMOOTH"
);
}
);
width = 787;
},
{
background = {
paths = (
{
closed = 1;
nodes = (
"549 -10 OFFCURVE",
"656 137 OFFCURVE",
"656 358 CURVE SMOOTH",
"656 580 OFFCURVE",
"549 725 OFFCURVE",
"358 725 CURVE SMOOTH",
"155 725 OFFCURVE",
"57 580 OFFCURVE",
"57 359 CURVE SMOOTH",
"57 137 OFFCURVE",
"155 -10 OFFCURVE",
"357 -10 CURVE SMOOTH"
);
},
{
closed = 1;
nodes = (
"201 37 OFFCURVE",
"132 156 OFFCURVE",
"132 358 CURVE SMOOTH",
"132 560 OFFCURVE",
"201 678 OFFCURVE",
"358 678 CURVE SMOOTH",
"521 678 OFFCURVE",
"581 560 OFFCURVE",
"581 358 CURVE SMOOTH",
"581 156 OFFCURVE",
"521 37 OFFCURVE",
"357 37 CURVE SMOOTH"
);
},
{
closed = 1;
nodes = (
"561 112 LINE",
"607 103 OFFCURVE",
"636 60 OFFCURVE",
"636 -9 CURVE SMOOTH",
"636 -86 OFFCURVE",
"597 -130 OFFCURVE",
"543 -130 CURVE SMOOTH",
"498 -130 OFFCURVE",
"469 -113 OFFCURVE",
"469 -63 CURVE",
"437 -63 OFFCURVE",
"420 -83 OFFCURVE",
"420 -103 CURVE SMOOTH",
"420 -132 OFFCURVE",
"453 -166 OFFCURVE",
"543 -166 CURVE SMOOTH",
"611 -166 OFFCURVE",
"691 -120 OFFCURVE",
"691 -10 CURVE SMOOTH",
"691 75 OFFCURVE",
"647 129 OFFCURVE",
"582 144 CURVE"
);
}
);
};
layerId = "5E7C5774-385D-4E06-B68E-CBE970134A7B";
name = SemiLight;
paths = (
{
closed = 1;
nodes = (
"611 -166 OFFCURVE",
"691 -120 OFFCURVE",
"691 -10 CURVE SMOOTH",
"691 63 OFFCURVE",
"658 114 OFFCURVE",
"607 136 CURVE",
"639 195 OFFCURVE",
"656 271 OFFCURVE",
"656 358 CURVE SMOOTH",
"656 580 OFFCURVE",
"549 725 OFFCURVE",
"358 725 CURVE SMOOTH",
"155 725 OFFCURVE",
"57 580 OFFCURVE",
"57 359 CURVE SMOOTH",
"57 137 OFFCURVE",
"155 -10 OFFCURVE",
"357 -10 CURVE SMOOTH",
"458 -10 OFFCURVE",
"536 31 OFFCURVE",
"587 102 CURVE",
"618 84 OFFCURVE",
"636 46 OFFCURVE",
"636 -9 CURVE SMOOTH",
"636 -86 OFFCURVE",
"597 -130 OFFCURVE",
"543 -130 CURVE SMOOTH",
"498 -130 OFFCURVE",
"466 -113 OFFCURVE",
"459 -73 CURVE",
"432 -73 OFFCURVE",
"420 -89 OFFCURVE",
"420 -109 CURVE SMOOTH",
"420 -138 OFFCURVE",
"453 -166 OFFCURVE",
"543 -166 CURVE SMOOTH"
);
},
{
closed = 1;
nodes = (
"201 37 OFFCURVE",
"132 156 OFFCURVE",
"132 358 CURVE SMOOTH",
"132 560 OFFCURVE",
"201 678 OFFCURVE",
"358 678 CURVE SMOOTH",
"521 678 OFFCURVE",
"581 560 OFFCURVE",
"581 358 CURVE SMOOTH",
"581 156 OFFCURVE",
"521 37 OFFCURVE",
"357 37 CURVE SMOOTH"
);
}
);
width = 714;
},
{
background = {
paths = (
{
closed = 1;
nodes = (
"562 122 LINE",
"601 104 OFFCURVE",
"629 56 OFFCURVE",
"629 0 CURVE SMOOTH",
"629 -102 OFFCURVE",
"576 -137 OFFCURVE",
"501 -137 CURVE SMOOTH",
"436 -137 OFFCURVE",
"404 -96 OFFCURVE",
"404 -54 CURVE",
"388 -54 OFFCURVE",
"378 -63 OFFCURVE",
"378 -76 CURVE SMOOTH",
"378 -120 OFFCURVE",
"422 -160 OFFCURVE",
"497 -160 CURVE SMOOTH",
"589 -160 OFFCURVE",
"657 -121 OFFCURVE",
"657 0 CURVE SMOOTH",
"657 70 OFFCURVE",
"623 124 OFFCURVE",
"574 143 CURVE"
);
},
{
closed = 1;
nodes = (
"545 -10 OFFCURVE",
"627 135 OFFCURVE",
"627 358 CURVE SMOOTH",
"627 590 OFFCURVE",
"547 725 OFFCURVE",
"344 725 CURVE SMOOTH",
"157 725 OFFCURVE",
"58 592 OFFCURVE",
"58 359 CURVE SMOOTH",
"58 125 OFFCURVE",
"153 -10 OFFCURVE",
"343 -10 CURVE SMOOTH"
);
},
{
closed = 1;
nodes = (
"172 15 OFFCURVE",
"86 143 OFFCURVE",
"86 358 CURVE SMOOTH",
"86 573 OFFCURVE",
"172 700 OFFCURVE",
"344 700 CURVE SMOOTH",
"530 700 OFFCURVE",
"599 573 OFFCURVE",
"599 358 CURVE SMOOTH",
"599 145 OFFCURVE",
"524 15 OFFCURVE",
"343 15 CURVE SMOOTH"
);
}
);
};
layerId = "1D4F67F9-897D-45AD-B7F0-CA61A6862C03";
name = Light;
paths = (
{
closed = 1;
nodes = (
"589 -160 OFFCURVE",
"657 -116 OFFCURVE",
"657 0 CURVE SMOOTH",
"657 63 OFFCURVE",
"629 114 OFFCURVE",
"587 137 CURVE",
"615 196 OFFCURVE",
"627 271 OFFCURVE",
"627 358 CURVE SMOOTH",
"627 590 OFFCURVE",
"547 725 OFFCURVE",
"344 725 CURVE SMOOTH",
"157 725 OFFCURVE",
"58 592 OFFCURVE",
"58 359 CURVE SMOOTH",
"58 125 OFFCURVE",
"153 -10 OFFCURVE",
"343 -10 CURVE SMOOTH",
"456 -10 OFFCURVE",
"531 35 OFFCURVE",
"576 114 CURVE",
"607 92 OFFCURVE",
"629 49 OFFCURVE",
"629 0 CURVE SMOOTH",
"629 -97 OFFCURVE",
"576 -137 OFFCURVE",
"521 -137 CURVE SMOOTH",
"486 -137 OFFCURVE",
"444 -126 OFFCURVE",
"444 -84 CURVE",
"428 -84 OFFCURVE",
"418 -93 OFFCURVE",
"418 -106 CURVE SMOOTH",
"418 -140 OFFCURVE",
"462 -160 OFFCURVE",
"517 -160 CURVE SMOOTH"
);
},
{
closed = 1;
nodes = (
"172 15 OFFCURVE",
"86 143 OFFCURVE",
"86 358 CURVE SMOOTH",
"86 573 OFFCURVE",
"172 700 OFFCURVE",
"344 700 CURVE SMOOTH",
"530 700 OFFCURVE",
"599 573 OFFCURVE",
"599 358 CURVE SMOOTH",
"599 145 OFFCURVE",
"524 15 OFFCURVE",
"343 15 CURVE SMOOTH"
);
}
);
width = 686;
},
{
background = {
paths = (
{
closed = 1;
nodes = (
"502 58 OFFCURVE",
"524 20 OFFCURVE",
"524 -29 CURVE SMOOTH",
"524 -89 OFFCURVE",
"492 -107 OFFCURVE",
"462 -107 CURVE SMOOTH",
"432 -107 OFFCURVE",
"420 -95 OFFCURVE",
"410 -59 CURVE",
"350 -59 OFFCURVE",
"327 -84 OFFCURVE",
"327 -106 CURVE SMOOTH",
"327 -160 OFFCURVE",
"383 -185 OFFCURVE",
"477 -185 CURVE SMOOTH",
"594 -185 OFFCURVE",
"667 -126 OFFCURVE",
"667 -34 CURVE SMOOTH",
"667 71 OFFCURVE",
"595 116 OFFCURVE",
"477 116 CURVE SMOOTH",
"470 58 LINE"
);
},
{
closed = 1;
nodes = (
"533 -10 OFFCURVE",
"639 137 OFFCURVE",
"639 358 CURVE SMOOTH",
"639 580 OFFCURVE",
"533 725 OFFCURVE",
"344 725 CURVE SMOOTH",
"142 725 OFFCURVE",
"45 580 OFFCURVE",
"45 359 CURVE SMOOTH",
"45 137 OFFCURVE",
"142 -10 OFFCURVE",
"343 -10 CURVE SMOOTH"
);
},
{
closed = 1;
nodes = (
"254 58 OFFCURVE",
"221 169 OFFCURVE",
"221 358 CURVE SMOOTH",
"221 547 OFFCURVE",
"254 657 OFFCURVE",
"344 657 CURVE SMOOTH",
"432 657 OFFCURVE",
"464 547 OFFCURVE",
"464 358 CURVE SMOOTH",
"464 169 OFFCURVE",
"432 58 OFFCURVE",
"343 58 CURVE SMOOTH"
);
}
);
};
layerId = "75A83886-EED5-4C31-9670-660514D8A4F6";
name = "Bold Condensed";
paths = (
{
closed = 1;
nodes = (
"594 -185 OFFCURVE",
"667 -126 OFFCURVE",
"667 -34 CURVE SMOOTH",
"667 39 OFFCURVE",
"632 83 OFFCURVE",
"571 103 CURVE",
"616 167 OFFCURVE",
"639 254 OFFCURVE",
"639 358 CURVE SMOOTH",
"639 580 OFFCURVE",
"539 725 OFFCURVE",
"344 725 CURVE SMOOTH",
"142 725 OFFCURVE",
"45 580 OFFCURVE",
"45 359 CURVE SMOOTH",
"45 137 OFFCURVE",
"142 -10 OFFCURVE",
"343 -10 CURVE SMOOTH",
"407 -10 OFFCURVE",
"462 7 OFFCURVE",
"506 38 CURVE",
"517 22 OFFCURVE",
"524 -2 OFFCURVE",
"524 -29 CURVE SMOOTH",
"524 -89 OFFCURVE",
"492 -107 OFFCURVE",
"462 -107 CURVE SMOOTH",
"432 -107 OFFCURVE",
"420 -95 OFFCURVE",
"410 -59 CURVE",
"350 -59 OFFCURVE",
"327 -84 OFFCURVE",
"327 -106 CURVE SMOOTH",
"327 -160 OFFCURVE",
"383 -185 OFFCURVE",
"477 -185 CURVE SMOOTH"
);
},
{
closed = 1;
nodes = (
"254 58 OFFCURVE",
"221 169 OFFCURVE",
"221 358 CURVE SMOOTH",
"221 547 OFFCURVE",
"254 657 OFFCURVE",
"344 657 CURVE SMOOTH",
"432 657 OFFCURVE",
"464 547 OFFCURVE",
"464 358 CURVE SMOOTH",
"464 169 OFFCURVE",
"432 58 OFFCURVE",
"343 58 CURVE SMOOTH"
);
}
);
width = 684;
},
{
background = {
paths = (
{
closed = 1;
nodes = (
"404 -10 OFFCURVE",
"485 125 OFFCURVE",
"485 358 CURVE SMOOTH",
"485 610 OFFCURVE",
"414 725 OFFCURVE",
"265 725 CURVE SMOOTH",
"118 725 OFFCURVE",
"44 596 OFFCURVE",
"44 359 CURVE SMOOTH",
"44 137 OFFCURVE",
"116 -10 OFFCURVE",
"264 -10 CURVE SMOOTH"
);
},
{
closed = 1;
nodes = (
"137 15 OFFCURVE",
"72 153 OFFCURVE",
"72 358 CURVE SMOOTH",
"72 574 OFFCURVE",
"131 700 OFFCURVE",
"265 700 CURVE SMOOTH",
"406 700 OFFCURVE",
"457 574 OFFCURVE",
"457 358 CURVE SMOOTH",
"457 146 OFFCURVE",
"392 15 OFFCURVE",
"264 15 CURVE SMOOTH"
);
},
{
closed = 1;
nodes = (
"402 73 LINE",
"447 59 OFFCURVE",
"474 24 OFFCURVE",
"474 -33 CURVE SMOOTH",
"474 -101 OFFCURVE",
"440 -137 OFFCURVE",
"386 -137 CURVE SMOOTH",
"349 -137 OFFCURVE",
"324 -119 OFFCURVE",
"324 -78 CURVE",
"309 -78 OFFCURVE",
"296 -94 OFFCURVE",
"296 -111 CURVE SMOOTH",
"296 -139 OFFCURVE",
"330 -160 OFFCURVE",
"386 -160 CURVE SMOOTH",
"456 -160 OFFCURVE",
"504 -117 OFFCURVE",
"504 -34 CURVE SMOOTH",
"504 36 OFFCURVE",
"468 78 OFFCURVE",
"413 94 CURVE"
);
}
);
};
layerId = "C91144B6-58F5-45F2-9CE4-7ED6CE127FD4";
name = "Light Condensed";
paths = (
{
closed = 1;
nodes = (
"456 -160 OFFCURVE",
"504 -117 OFFCURVE",
"504 -34 CURVE SMOOTH",
"504 29 OFFCURVE",
"475 70 OFFCURVE",
"428 89 CURVE",
"465 152 OFFCURVE",
"485 243 OFFCURVE",
"485 358 CURVE SMOOTH",
"485 610 OFFCURVE",
"414 725 OFFCURVE",
"265 725 CURVE SMOOTH",
"118 725 OFFCURVE",
"44 596 OFFCURVE",
"44 359 CURVE SMOOTH",
"44 137 OFFCURVE",
"116 -10 OFFCURVE",
"264 -10 CURVE SMOOTH",
"327 -10 OFFCURVE",
"378 17 OFFCURVE",
"415 68 CURVE",
"452 52 OFFCURVE",
"474 18 OFFCURVE",
"474 -33 CURVE SMOOTH",
"474 -101 OFFCURVE",
"440 -135 OFFCURVE",
"386 -135 CURVE SMOOTH",
"345 -135 OFFCURVE",
"324 -119 OFFCURVE",
"324 -78 CURVE",
"309 -78 OFFCURVE",
"299 -86 OFFCURVE",
"299 -108 CURVE SMOOTH",
"299 -136 OFFCURVE",
"330 -160 OFFCURVE",
"386 -160 CURVE SMOOTH"
);
},
{
closed = 1;
nodes = (
"137 15 OFFCURVE",
"72 153 OFFCURVE",
"72 358 CURVE SMOOTH",
"72 574 OFFCURVE",
"131 700 OFFCURVE",
"265 700 CURVE SMOOTH",
"406 700 OFFCURVE",
"457 574 OFFCURVE",
"457 358 CURVE SMOOTH",
"457 146 OFFCURVE",
"392 15 OFFCURVE",
"264 15 CURVE SMOOTH"
);
}
);
width = 530;
},
{
background = {
paths = (
{
closed = 1;
nodes = (
"435 -10 OFFCURVE",
"520 137 OFFCURVE",
"520 358 CURVE SMOOTH",
"520 580 OFFCURVE",
"435 725 OFFCURVE",
"283 725 CURVE SMOOTH",
"122 725 OFFCURVE",
"44 580 OFFCURVE",
"44 359 CURVE SMOOTH",
"44 137 OFFCURVE",
"122 -10 OFFCURVE",
"282 -10 CURVE SMOOTH"
);
},
{
closed = 1;
nodes = (
"166 37 OFFCURVE",
"116 156 OFFCURVE",
"116 358 CURVE SMOOTH",
"116 560 OFFCURVE",
"166 678 OFFCURVE",
"283 678 CURVE SMOOTH",
"404 678 OFFCURVE",
"448 560 OFFCURVE",
"448 358 CURVE SMOOTH",
"448 156 OFFCURVE",
"404 37 OFFCURVE",
"282 37 CURVE SMOOTH"
);
},
{
closed = 1;
nodes = (
"417 72 LINE",
"460 51 OFFCURVE",
"479 15 OFFCURVE",
"479 -47 CURVE SMOOTH",
"479 -100 OFFCURVE",
"457 -132 OFFCURVE",
"421 -132 CURVE SMOOTH",
"388 -132 OFFCURVE",
"371 -120 OFFCURVE",
"363 -86 CURVE",
"337 -86 OFFCURVE",
"318 -98 OFFCURVE",
"318 -114 CURVE SMOOTH",
"318 -146 OFFCURVE",
"359 -166 OFFCURVE",
"420 -166 CURVE SMOOTH",
"492 -166 OFFCURVE",
"535 -121 OFFCURVE",
"535 -47 CURVE SMOOTH",
"535 14 OFFCURVE",
"501 73 OFFCURVE",
"433 101 CURVE"
);
}
);
};
layerId = "E7C4F5EE-4982-479C-BF20-1C8706EFFC5D";
name = Condensed;
paths = (
{
closed = 1;
nodes = (
"492 -166 OFFCURVE",
"535 -121 OFFCURVE",
"535 -47 CURVE SMOOTH",
"535 6 OFFCURVE",
"509 58 OFFCURVE",
"457 89 CURVE",
"498 153 OFFCURVE",
"520 246 OFFCURVE",
"520 358 CURVE SMOOTH",
"520 580 OFFCURVE",
"444 725 OFFCURVE",
"283 725 CURVE SMOOTH",
"122 725 OFFCURVE",
"44 580 OFFCURVE",
"44 359 CURVE SMOOTH",
"44 137 OFFCURVE",
"122 -10 OFFCURVE",
"282 -10 CURVE SMOOTH",
"345 -10 OFFCURVE",
"397 15 OFFCURVE",
"436 61 CURVE",
"466 39 OFFCURVE",
"479 5 OFFCURVE",
"479 -47 CURVE SMOOTH",
"479 -100 OFFCURVE",
"457 -132 OFFCURVE",
"421 -132 CURVE SMOOTH",
"388 -132 OFFCURVE",
"371 -120 OFFCURVE",
"363 -86 CURVE",
"337 -86 OFFCURVE",
"318 -98 OFFCURVE",
"318 -114 CURVE SMOOTH",
"318 -146 OFFCURVE",
"359 -166 OFFCURVE",
"420 -166 CURVE SMOOTH"
);
},
{
closed = 1;
nodes = (
"166 37 OFFCURVE",
"116 156 OFFCURVE",
"116 358 CURVE SMOOTH",
"116 560 OFFCURVE",
"166 678 OFFCURVE",
"283 678 CURVE SMOOTH",
"400 678 OFFCURVE",
"448 560 OFFCURVE",
"448 358 CURVE SMOOTH",
"448 156 OFFCURVE",
"404 37 OFFCURVE",
"282 37 CURVE SMOOTH"
);
}
);
width = 565;
}
);
leftKerningGroup = uni10A7;
note = uni10B3;
rightKerningGroup = uni10AD;
unicode = 10B3;
},
{
color = 5;
glyphname = uni10B4;
lastChange = "2015-09-23 11:12:30 +0000";
layers = (
{
layerId = "5E7FF211-9823-4E5B-BC80-AC4B3CA4BC69";
name = Regular;
paths = (
{
closed = 1;
nodes = (
"439 0 LINE",
"439 194 LINE",
"626 208 OFFCURVE",
"735 308 OFFCURVE",
"735 462 CURVE SMOOTH",
"735 626 OFFCURVE",
"609 724 OFFCURVE",
"397 724 CURVE SMOOTH",
"177 724 OFFCURVE",
"56 631 OFFCURVE",
"56 463 CURVE SMOOTH",
"56 307 OFFCURVE",
"158 209 OFFCURVE",
"343 194 CURVE",
"343 0 LINE"
);
},
{
closed = 1;
nodes = (
"226 261 OFFCURVE",
"167 332 OFFCURVE",
"167 462 CURVE SMOOTH",
"167 592 OFFCURVE",
"226 662 OFFCURVE",
"343 670 CURVE",
"343 249 LINE"
);
},
{
closed = 1;
nodes = (
"439 670 LINE",
"562 660 OFFCURVE",
"624 594 OFFCURVE",
"624 462 CURVE SMOOTH",
"624 329 OFFCURVE",
"563 261 OFFCURVE",
"439 249 CURVE"
);
}
);
width = 792;
},
{
layerId = "101C8DBD-EDBB-4DB6-972E-FA2DBA854B69";
name = SemiBold;
paths = (
{
closed = 1;
nodes = (
"498 0 LINE",
"498 190 LINE",
"691 200 OFFCURVE",
"801 296 OFFCURVE",
"801 461 CURVE SMOOTH",
"801 637 OFFCURVE",
"671 724 OFFCURVE",
"422 724 CURVE SMOOTH",
"176 724 OFFCURVE",
"49 637 OFFCURVE",
"49 461 CURVE SMOOTH",
"49 298 OFFCURVE",
"164 198 OFFCURVE",
"352 190 CURVE",
"352 0 LINE"
);
},
{
closed = 1;
nodes = (
"254 255 OFFCURVE",
"211 322 OFFCURVE",
"211 463 CURVE SMOOTH",
"211 591 OFFCURVE",
"255 657 OFFCURVE",
"352 665 CURVE",
"352 249 LINE"
);
},
{
closed = 1;
nodes = (
"498 665 LINE",
"598 656 OFFCURVE",
"639 600 OFFCURVE",
"639 463 CURVE SMOOTH",
"639 326 OFFCURVE",
"616 264 OFFCURVE",
"498 249 CURVE"
);
}
);
width = 851;
},
{
layerId = "5E7C5774-385D-4E06-B68E-CBE970134A7B";
name = SemiLight;
paths = (
{
closed = 1;
nodes = (
"397 0 LINE",
"397 208 LINE",
"587 223 OFFCURVE",
"685 307 OFFCURVE",
"685 471 CURVE SMOOTH",
"685 638 OFFCURVE",
"579 724 OFFCURVE",
"367 724 CURVE SMOOTH",
"152 724 OFFCURVE",
"45 637 OFFCURVE",
"45 471 CURVE SMOOTH",
"45 310 OFFCURVE",
"142 223 OFFCURVE",
"333 208 CURVE",
"333 0 LINE"
);
},
{
closed = 1;
nodes = (
"191 262 OFFCURVE",
"116 323 OFFCURVE",
"116 471 CURVE SMOOTH",
"116 614 OFFCURVE",
"186 675 OFFCURVE",
"333 685 CURVE",
"333 247 LINE"
);
},
{
closed = 1;
nodes = (
"397 685 LINE",
"541 675 OFFCURVE",
"614 615 OFFCURVE",
"614 471 CURVE SMOOTH",
"614 322 OFFCURVE",
"544 262 OFFCURVE",
"397 247 CURVE"
);
}
);
width = 730;
},
{
layerId = "1D4F67F9-897D-45AD-B7F0-CA61A6862C03";
name = Light;
paths = (
{
closed = 1;
nodes = (
"362 0 LINE",
"362 238 LINE",
"549 248 OFFCURVE",
"639 324 OFFCURVE",
"639 477 CURVE SMOOTH",
"639 632 OFFCURVE",
"544 724 OFFCURVE",
"349 724 CURVE SMOOTH",
"153 724 OFFCURVE",
"57 631 OFFCURVE",
"57 477 CURVE SMOOTH",
"57 326 OFFCURVE",
"145 248 OFFCURVE",
"334 238 CURVE",
"334 0 LINE"
);
},
{
closed = 1;
nodes = (
"164 273 OFFCURVE",
"85 342 OFFCURVE",
"85 477 CURVE SMOOTH",
"85 618 OFFCURVE",
"166 699 OFFCURVE",
"334 699 CURVE",
"334 263 LINE"
);
},
{
closed = 1;
nodes = (
"362 699 LINE",
"527 692 OFFCURVE",
"611 620 OFFCURVE",
"611 477 CURVE SMOOTH",
"611 344 OFFCURVE",
"536 273 OFFCURVE",
"362 263 CURVE"
);
}
);
width = 696;
},
{
layerId = "75A83886-EED5-4C31-9670-660514D8A4F6";
name = "Bold Condensed";
paths = (
{
closed = 1;
nodes = (
"435 0 LINE",
"435 218 LINE",
"603 238 OFFCURVE",
"692 326 OFFCURVE",
"692 474 CURVE SMOOTH",
"692 641 OFFCURVE",
"591 724 OFFCURVE",
"359 724 CURVE SMOOTH",
"117 724 OFFCURVE",
"24 635 OFFCURVE",
"24 474 CURVE SMOOTH",
"24 324 OFFCURVE",
"112 238 OFFCURVE",
"282 218 CURVE",
"282 0 LINE"
);
},
{
closed = 1;
nodes = (
"202 299 OFFCURVE",
"176 344 OFFCURVE",
"176 471 CURVE SMOOTH",
"176 575 OFFCURVE",
"201 639 OFFCURVE",
"282 663 CURVE",
"282 279 LINE"
);
},
{
closed = 1;
nodes = (
"435 663 LINE",
"513 643 OFFCURVE",
"539 580 OFFCURVE",
"539 471 CURVE SMOOTH",
"539 349 OFFCURVE",
"513 299 OFFCURVE",
"435 279 CURVE"
);
}
);
width = 716;
},
{
layerId = "C91144B6-58F5-45F2-9CE4-7ED6CE127FD4";
name = "Light Condensed";
paths = (
{
closed = 1;
nodes = (
"280 0 LINE",
"280 228 LINE",
"424 238 OFFCURVE",
"496 330 OFFCURVE",
"496 480 CURVE SMOOTH",
"496 634 OFFCURVE",
"410 724 OFFCURVE",
"267 724 CURVE SMOOTH",
"123 724 OFFCURVE",
"36 636 OFFCURVE",
"36 474 CURVE SMOOTH",
"36 322 OFFCURVE",
"108 238 OFFCURVE",
"252 228 CURVE",
"252 0 LINE"
);
},
{
closed = 1;
nodes = (
"128 263 OFFCURVE",
"64 336 OFFCURVE",
"64 475 CURVE SMOOTH",
"64 611 OFFCURVE",
"126 689 OFFCURVE",
"252 699 CURVE",
"252 253 LINE"
);
},
{
closed = 1;
nodes = (
"280 699 LINE",
"402 689 OFFCURVE",
"468 618 OFFCURVE",
"468 481 CURVE SMOOTH",
"468 339 OFFCURVE",
"405 263 OFFCURVE",
"280 253 CURVE"
);
}
);
width = 532;
},
{
layerId = "E7C4F5EE-4982-479C-BF20-1C8706EFFC5D";
name = Condensed;
paths = (
{
closed = 1;
nodes = (
"323 0 LINE",
"323 228 LINE",
"473 238 OFFCURVE",
"551 329 OFFCURVE",
"551 481 CURVE SMOOTH",
"551 640 OFFCURVE",
"471 724 OFFCURVE",
"293 724 CURVE SMOOTH",
"115 724 OFFCURVE",
"33 631 OFFCURVE",
"33 481 CURVE SMOOTH",
"33 328 OFFCURVE",
"105 238 OFFCURVE",
"261 228 CURVE",
"261 0 LINE"
);
},
{
closed = 1;
nodes = (
"150 277 OFFCURVE",
"99 349 OFFCURVE",
"99 481 CURVE SMOOTH",
"99 595 OFFCURVE",
"146 675 OFFCURVE",
"261 685 CURVE",
"261 267 LINE"
);
},
{
closed = 1;
nodes = (
"323 685 LINE",
"434 675 OFFCURVE",
"485 606 OFFCURVE",
"485 481 CURVE SMOOTH",
"485 351 OFFCURVE",
"437 277 OFFCURVE",
"323 267 CURVE"
);
}
);
width = 584;
}
);
note = uni10B4;
unicode = 10B4;
},
{
color = 5;
glyphname = uni10B5;
lastChange = "2015-09-23 11:12:30 +0000";
layers = (
{
layerId = "5E7FF211-9823-4E5B-BC80-AC4B3CA4BC69";
name = Regular;
paths = (
{
closed = 1;
nodes = (
"365 0 LINE",
"365 401 LINE",
"407 409 OFFCURVE",
"433 413 OFFCURVE",
"462 413 CURVE SMOOTH",
"511 413 OFFCURVE",
"533 385 OFFCURVE",
"540 313 CURVE",
"583 326 OFFCURVE",
"608 354 OFFCURVE",
"608 391 CURVE SMOOTH",
"608 446 OFFCURVE",
"575 473 OFFCURVE",
"510 473 CURVE SMOOTH",
"482 473 OFFCURVE",
"440 466 OFFCURVE",
"365 451 CURVE",
"365 714 LINE",
"194 714 LINE",
"194 672 LINE",
"202 672 LINE SMOOTH",
"245 672 OFFCURVE",
"264 643 OFFCURVE",
"264 604 CURVE SMOOTH",
"264 430 LINE",
"231 424 OFFCURVE",
"193 421 OFFCURVE",
"167 421 CURVE SMOOTH",
"120 421 OFFCURVE",
"97 441 OFFCURVE",
"89 494 CURVE",
"46 484 OFFCURVE",
"20 459 OFFCURVE",
"20 430 CURVE SMOOTH",
"20 383 OFFCURVE",
"53 360 OFFCURVE",
"119 360 CURVE SMOOTH",
"147 360 OFFCURVE",
"201 367 OFFCURVE",
"264 381 CURVE",
"264 0 LINE"
);
}
);
width = 628;
},
{
layerId = "101C8DBD-EDBB-4DB6-972E-FA2DBA854B69";
name = SemiBold;
paths = (
{
closed = 1;
nodes = (
"408 0 LINE",
"408 395 LINE",
"431 402 OFFCURVE",
"456 405 OFFCURVE",
"477 405 CURVE SMOOTH",
"521 405 OFFCURVE",
"543 379 OFFCURVE",
"543 308 CURVE",
"610 308 OFFCURVE",
"643 334 OFFCURVE",
"643 387 CURVE SMOOTH",
"643 438 OFFCURVE",
"602 473 OFFCURVE",
"537 473 CURVE SMOOTH",
"499 473 OFFCURVE",
"456 466 OFFCURVE",
"408 456 CURVE",
"408 714 LINE",
"161 714 LINE",
"161 661 LINE",
"199 661 LINE SMOOTH",
"238 661 OFFCURVE",
"250 641 OFFCURVE",
"250 596 CURVE SMOOTH",
"250 429 LINE",
"226 424 OFFCURVE",
"201 421 OFFCURVE",
"180 421 CURVE SMOOTH",
"134 421 OFFCURVE",
"115 446 OFFCURVE",
"115 516 CURVE",
"55 516 OFFCURVE",
"15 484 OFFCURVE",
"15 437 CURVE SMOOTH",
"15 387 OFFCURVE",
"57 353 OFFCURVE",
"121 353 CURVE SMOOTH",
"168 353 OFFCURVE",
"211 359 OFFCURVE",
"250 368 CURVE",
"250 0 LINE"
);
}
);
width = 658;
},
{
layerId = "5E7C5774-385D-4E06-B68E-CBE970134A7B";
name = SemiLight;
paths = (
{
closed = 1;
nodes = (
"336 0 LINE",
"336 448 LINE",
"386 461 OFFCURVE",
"429 468 OFFCURVE",
"465 468 CURVE SMOOTH",
"511 468 OFFCURVE",
"532 441 OFFCURVE",
"538 389 CURVE",
"569 399 OFFCURVE",
"589 422 OFFCURVE",
"589 452 CURVE SMOOTH",
"589 487 OFFCURVE",
"564 510 OFFCURVE",
"504 510 CURVE SMOOTH",
"460 510 OFFCURVE",
"402 501 OFFCURVE",
"336 486 CURVE",
"336 714 LINE",
"180 714 LINE",
"180 679 LINE",
"209 679 LINE SMOOTH",
"256 679 OFFCURVE",
"272 658 OFFCURVE",
"272 603 CURVE SMOOTH",
"272 468 LINE",
"222 451 OFFCURVE",
"175 441 OFFCURVE",
"145 441 CURVE SMOOTH",
"96 441 OFFCURVE",
"80 464 OFFCURVE",
"76 504 CURVE",
"41 493 OFFCURVE",
"24 475 OFFCURVE",
"24 450 CURVE SMOOTH",
"24 410 OFFCURVE",
"49 392 OFFCURVE",
"100 392 CURVE SMOOTH",
"139 392 OFFCURVE",
"196 403 OFFCURVE",
"272 429 CURVE",
"272 0 LINE"
);
}
);
width = 613;
},
{
layerId = "1D4F67F9-897D-45AD-B7F0-CA61A6862C03";
name = Light;
paths = (
{
closed = 1;
nodes = (
"308 0 LINE",
"308 445 LINE",
"374 458 OFFCURVE",
"424 468 OFFCURVE",
"471 468 CURVE SMOOTH",
"502 468 OFFCURVE",
"513 449 OFFCURVE",
"518 419 CURVE",
"537 425 OFFCURVE",
"549 438 OFFCURVE",
"549 455 CURVE SMOOTH",
"549 481 OFFCURVE",
"530 494 OFFCURVE",
"501 494 CURVE SMOOTH",
"459 494 OFFCURVE",
"406 485 OFFCURVE",
"308 467 CURVE",
"308 714 LINE",
"183 714 LINE",
"183 694 LINE",
"225 694 LINE SMOOTH",
"272 694 OFFCURVE",
"280 683 OFFCURVE",
"280 606 CURVE SMOOTH",
"280 461 LINE",
"208 449 OFFCURVE",
"143 442 OFFCURVE",
"121 442 CURVE SMOOTH",
"91 442 OFFCURVE",
"78 454 OFFCURVE",
"76 484 CURVE",
"55 478 OFFCURVE",
"44 467 OFFCURVE",
"44 453 CURVE SMOOTH",
"44 430 OFFCURVE",
"63 416 OFFCURVE",
"93 416 CURVE SMOOTH",
"124 416 OFFCURVE",
"225 429 OFFCURVE",
"280 439 CURVE",
"280 0 LINE"
);
}
);
width = 593;
},
{
layerId = "75A83886-EED5-4C31-9670-660514D8A4F6";
name = "Bold Condensed";
paths = (
{
closed = 1;
nodes = (
"393 0 LINE",
"393 439 LINE",
"403 440 OFFCURVE",
"420 443 OFFCURVE",
"444 443 CURVE SMOOTH",
"475 443 OFFCURVE",
"493 423 OFFCURVE",
"493 373 CURVE",
"554 373 OFFCURVE",
"610 397 OFFCURVE",
"610 449 CURVE SMOOTH",
"610 491 OFFCURVE",
"576 524 OFFCURVE",
"519 524 CURVE SMOOTH",
"481 524 OFFCURVE",
"438 516 OFFCURVE",
"393 501 CURVE",
"393 714 LINE",
"153 714 LINE",
"153 658 LINE",
"179 658 LINE SMOOTH",
"209 658 OFFCURVE",
"223 651 OFFCURVE",
"223 599 CURVE SMOOTH",
"223 467 LINE",
"213 465 OFFCURVE",
"204 463 OFFCURVE",
"182 463 CURVE SMOOTH",
"147 463 OFFCURVE",
"129 483 OFFCURVE",
"129 524 CURVE",
"58 524 OFFCURVE",
"16 492 OFFCURVE",
"16 458 CURVE SMOOTH",
"16 424 OFFCURVE",
"30 390 OFFCURVE",
"107 390 CURVE SMOOTH",
"128 390 OFFCURVE",
"176 395 OFFCURVE",
"223 405 CURVE",
"223 0 LINE"
);
}
);
width = 626;
},
{
layerId = "C91144B6-58F5-45F2-9CE4-7ED6CE127FD4";
name = "Light Condensed";
paths = (
{
closed = 1;
nodes = (
"253 0 LINE",
"253 482 LINE",
"307 494 OFFCURVE",
"339 500 OFFCURVE",
"367 500 CURVE SMOOTH",
"404 500 OFFCURVE",
"413 479 OFFCURVE",
"418 449 CURVE",
"436 455 OFFCURVE",
"447 468 OFFCURVE",
"447 485 CURVE SMOOTH",
"447 511 OFFCURVE",
"428 524 OFFCURVE",
"391 524 CURVE SMOOTH",
"357 524 OFFCURVE",
"288 509 OFFCURVE",
"253 501 CURVE",
"253 714 LINE",
"155 714 LINE",
"155 694 LINE",
"175 694 LINE SMOOTH",
"221 694 OFFCURVE",
"225 683 OFFCURVE",
"225 609 CURVE SMOOTH",
"225 496 LINE",
"179 487 OFFCURVE",
"139 483 OFFCURVE",
"120 483 CURVE SMOOTH",
"90 483 OFFCURVE",
"67 494 OFFCURVE",
"65 524 CURVE",
"46 518 OFFCURVE",
"35 507 OFFCURVE",
"35 493 CURVE SMOOTH",
"35 470 OFFCURVE",
"54 459 OFFCURVE",
"92 459 CURVE SMOOTH",
"128 459 OFFCURVE",
"194 470 OFFCURVE",
"225 476 CURVE",
"225 0 LINE"
);
}
);
width = 482;
},
{
layerId = "E7C4F5EE-4982-479C-BF20-1C8706EFFC5D";
name = Condensed;
paths = (
{
closed = 1;
nodes = (
"270 0 LINE",
"270 437 LINE",
"306 447 OFFCURVE",
"331 450 OFFCURVE",
"342 450 CURVE SMOOTH",
"372 450 OFFCURVE",
"400 436 OFFCURVE",
"401 374 CURVE",
"428 384 OFFCURVE",
"455 407 OFFCURVE",
"455 437 CURVE SMOOTH",
"455 482 OFFCURVE",
"424 504 OFFCURVE",
"373 504 CURVE SMOOTH",
"348 504 OFFCURVE",
"317 497 OFFCURVE",
"270 477 CURVE",
"270 714 LINE",
"139 714 LINE",
"139 679 LINE",
"154 679 LINE SMOOTH",
"193 679 OFFCURVE",
"205 663 OFFCURVE",
"205 594 CURVE SMOOTH",
"205 460 LINE",
"172 451 OFFCURVE",
"141 446 OFFCURVE",
"118 446 CURVE SMOOTH",
"86 446 OFFCURVE",
"72 469 OFFCURVE",
"69 504 CURVE",
"39 493 OFFCURVE",
"20 475 OFFCURVE",
"20 450 CURVE SMOOTH",
"20 410 OFFCURVE",
"46 391 OFFCURVE",
"88 391 CURVE SMOOTH",
"107 391 OFFCURVE",
"150 401 OFFCURVE",
"205 420 CURVE",
"205 0 LINE"
);
}
);
width = 475;
}
);
note = uni10B5;
unicode = 10B5;
},
{
color = 5;
glyphname = uni10B6;
lastChange = "2015-09-23 11:12:30 +0000";
layers = (
{
layerId = "5E7FF211-9823-4E5B-BC80-AC4B3CA4BC69";
name = Regular;
paths = (
{
closed = 1;
nodes = (
"201 0 LINE",
"201 504 LINE SMOOTH",
"201 610 OFFCURVE",
"257 670 OFFCURVE",
"358 670 CURVE SMOOTH",
"456 670 OFFCURVE",
"515 608 OFFCURVE",
"515 508 CURVE SMOOTH",
"515 0 LINE",
"616 0 LINE",
"616 510 LINE SMOOTH",
"616 646 OFFCURVE",
"524 724 OFFCURVE",
"362 724 CURVE SMOOTH",
"185 724 OFFCURVE",
"100 650 OFFCURVE",
"100 498 CURVE SMOOTH",
"100 0 LINE"
);
}
);
width = 716;
},
{
layerId = "101C8DBD-EDBB-4DB6-972E-FA2DBA854B69";
name = SemiBold;
paths = (
{
closed = 1;
nodes = (
"238 0 LINE",
"238 504 LINE SMOOTH",
"238 601 OFFCURVE",
"283 653 OFFCURVE",
"363 653 CURVE SMOOTH",
"448 653 OFFCURVE",
"488 605 OFFCURVE",
"488 504 CURVE SMOOTH",
"488 0 LINE",
"646 0 LINE",
"646 496 LINE SMOOTH",
"646 648 OFFCURVE",
"551 724 OFFCURVE",
"360 724 CURVE SMOOTH",
"178 724 OFFCURVE",
"80 643 OFFCURVE",
"80 496 CURVE SMOOTH",
"80 0 LINE"
);
}
);
width = 726;
},
{
layerId = "5E7C5774-385D-4E06-B68E-CBE970134A7B";
name = SemiLight;
paths = (
{
closed = 1;
nodes = (
"166 0 LINE",
"166 501 LINE SMOOTH",
"166 608 OFFCURVE",
"223 688 OFFCURVE",
"347 688 CURVE SMOOTH",
"458 688 OFFCURVE",
"525 630 OFFCURVE",
"525 507 CURVE SMOOTH",
"525 0 LINE",
"589 0 LINE",
"589 498 LINE SMOOTH",
"589 657 OFFCURVE",
"494 724 OFFCURVE",
"345 724 CURVE SMOOTH",
"184 724 OFFCURVE",
"102 630 OFFCURVE",
"102 495 CURVE SMOOTH",
"102 0 LINE"
);
}
);
width = 691;
},
{
layerId = "1D4F67F9-897D-45AD-B7F0-CA61A6862C03";
name = Light;
paths = (
{
closed = 1;
nodes = (
"133 0 LINE",
"133 495 LINE SMOOTH",
"133 608 OFFCURVE",
"195 699 OFFCURVE",
"336 699 CURVE SMOOTH",
"460 699 OFFCURVE",
"536 638 OFFCURVE",
"536 504 CURVE SMOOTH",
"536 0 LINE",
"564 0 LINE",
"564 500 LINE SMOOTH",
"564 663 OFFCURVE",
"472 724 OFFCURVE",
"334 724 CURVE SMOOTH",
"179 724 OFFCURVE",
"105 626 OFFCURVE",
"105 496 CURVE SMOOTH",
"105 0 LINE"
);
}
);
width = 669;
},
{
layerId = "C91144B6-58F5-45F2-9CE4-7ED6CE127FD4";
name = "Light Condensed";
paths = (
{
closed = 1;
nodes = (
"112 0 LINE",
"112 512 LINE SMOOTH",
"112 600 OFFCURVE",
"151 699 OFFCURVE",
"263 699 CURVE SMOOTH",
"351 699 OFFCURVE",
"409 640 OFFCURVE",
"409 504 CURVE SMOOTH",
"409 0 LINE",
"437 0 LINE",
"437 500 LINE SMOOTH",
"437 659 OFFCURVE",
"367 724 OFFCURVE",
"264 724 CURVE SMOOTH",
"141 724 OFFCURVE",
"84 625 OFFCURVE",
"84 514 CURVE SMOOTH",
"84 0 LINE"
);
}
);
width = 521;
},
{
layerId = "E7C4F5EE-4982-479C-BF20-1C8706EFFC5D";
name = Condensed;
paths = (
{
closed = 1;
nodes = (
"146 0 LINE",
"146 508 LINE SMOOTH",
"146 601 OFFCURVE",
"183 677 OFFCURVE",
"280 677 CURVE SMOOTH",
"361 677 OFFCURVE",
"411 634 OFFCURVE",
"411 504 CURVE SMOOTH",
"411 0 LINE",
"475 0 LINE",
"475 499 LINE SMOOTH",
"475 659 OFFCURVE",
"398 724 OFFCURVE",
"280 724 CURVE SMOOTH",
"141 724 OFFCURVE",
"82 627 OFFCURVE",
"82 510 CURVE SMOOTH",
"82 0 LINE"
);
}
);
width = 557;
},
{
layerId = "75A83886-EED5-4C31-9670-660514D8A4F6";
name = "Bold Condensed";
paths = (
{
closed = 1;
nodes = (
"245 0 LINE",
"245 498 LINE SMOOTH",
"245 603 OFFCURVE",
"278 650 OFFCURVE",
"329 650 CURVE SMOOTH",
"393 650 OFFCURVE",
"419 615 OFFCURVE",
"419 504 CURVE SMOOTH",
"419 0 LINE",
"586 0 LINE",
"586 496 LINE SMOOTH",
"586 660 OFFCURVE",
"487 724 OFFCURVE",
"327 724 CURVE SMOOTH",
"144 724 OFFCURVE",
"78 634 OFFCURVE",
"78 500 CURVE SMOOTH",
"78 0 LINE"
);
}
);
width = 664;
}
);
leftKerningGroup = uni10B6;
note = uni10B6;
rightKerningGroup = uni10A4;
unicode = 10B6;
},
{
color = 5;
glyphname = uni10B7;
lastChange = "2015-09-23 11:12:30 +0000";
layers = (
{
layerId = "5E7FF211-9823-4E5B-BC80-AC4B3CA4BC69";
name = Regular;
paths = (
{
closed = 1;
nodes = (
"566 0 LINE",
"566 714 LINE",
"370 714 LINE",
"370 672 LINE",
"383 672 LINE SMOOTH",
"434 672 OFFCURVE",
"465 659 OFFCURVE",
"465 604 CURVE SMOOTH",
"465 453 LINE SMOOTH",
"465 346 OFFCURVE",
"416 292 OFFCURVE",
"319 292 CURVE SMOOTH",
"237 292 OFFCURVE",
"191 344 OFFCURVE",
"191 453 CURVE SMOOTH",
"191 714 LINE",
"20 714 LINE",
"20 672 LINE",
"28 672 LINE SMOOTH",
"71 672 OFFCURVE",
"90 643 OFFCURVE",
"90 604 CURVE SMOOTH",
"90 453 LINE SMOOTH",
"90 317 OFFCURVE",
"168 238 OFFCURVE",
"303 238 CURVE SMOOTH",
"374 238 OFFCURVE",
"442 268 OFFCURVE",
"464 309 CURVE",
"469 309 LINE",
"466 280 OFFCURVE",
"465 251 OFFCURVE",
"465 224 CURVE SMOOTH",
"465 0 LINE"
);
}
);
width = 676;
},
{
layerId = "101C8DBD-EDBB-4DB6-972E-FA2DBA854B69";
name = SemiBold;
paths = (
{
closed = 1;
nodes = (
"654 0 LINE",
"654 714 LINE",
"391 714 LINE",
"391 661 LINE",
"439 661 LINE SMOOTH",
"482 661 OFFCURVE",
"496 641 OFFCURVE",
"496 600 CURVE SMOOTH",
"496 454 LINE SMOOTH",
"496 353 OFFCURVE",
"457 302 OFFCURVE",
"378 302 CURVE SMOOTH",
"292 302 OFFCURVE",
"258 351 OFFCURVE",
"258 460 CURVE SMOOTH",
"258 714 LINE",
"16 714 LINE",
"16 661 LINE",
"49 661 LINE SMOOTH",
"86 661 OFFCURVE",
"100 642 OFFCURVE",
"100 600 CURVE SMOOTH",
"100 457 LINE SMOOTH",
"100 300 OFFCURVE",
"175 218 OFFCURVE",
"319 218 CURVE SMOOTH",
"405 218 OFFCURVE",
"460 243 OFFCURVE",
"497 298 CURVE",
"504 298 LINE",
"499 238 OFFCURVE",
"496 198 OFFCURVE",
"496 177 CURVE SMOOTH",
"496 0 LINE"
);
}
);
width = 739;
},
{
layerId = "5E7C5774-385D-4E06-B68E-CBE970134A7B";
name = SemiLight;
paths = (
{
closed = 1;
nodes = (
"517 0 LINE",
"517 714 LINE",
"357 714 LINE",
"357 679 LINE",
"390 679 LINE SMOOTH",
"437 679 OFFCURVE",
"453 656 OFFCURVE",
"453 610 CURVE SMOOTH",
"453 461 LINE SMOOTH",
"453 361 OFFCURVE",
"405 275 OFFCURVE",
"290 275 CURVE SMOOTH",
"211 275 OFFCURVE",
"156 327 OFFCURVE",
"156 428 CURVE SMOOTH",
"156 714 LINE",
"20 714 LINE",
"20 679 LINE",
"29 679 LINE SMOOTH",
"76 679 OFFCURVE",
"92 658 OFFCURVE",
"92 603 CURVE SMOOTH",
"92 427 LINE SMOOTH",
"92 300 OFFCURVE",
"166 238 OFFCURVE",
"279 238 CURVE SMOOTH",
"371 238 OFFCURVE",
"421 273 OFFCURVE",
"452 334 CURVE",
"456 334 LINE",
"454 303 OFFCURVE",
"453 271 OFFCURVE",
"453 239 CURVE SMOOTH",
"453 0 LINE"
);
}
);
width = 629;
},
{
layerId = "1D4F67F9-897D-45AD-B7F0-CA61A6862C03";
name = Light;
paths = (
{
closed = 1;
nodes = (
"489 0 LINE",
"489 714 LINE",
"362 714 LINE",
"362 694 LINE",
"405 694 LINE SMOOTH",
"455 694 OFFCURVE",
"461 683 OFFCURVE",
"461 606 CURVE SMOOTH",
"461 467 LINE SMOOTH",
"461 354 OFFCURVE",
"411 263 OFFCURVE",
"298 263 CURVE SMOOTH",
"199 263 OFFCURVE",
"137 324 OFFCURVE",
"137 418 CURVE SMOOTH",
"137 714 LINE",
"20 714 LINE",
"20 694 LINE",
"53 694 LINE SMOOTH",
"103 694 OFFCURVE",
"109 683 OFFCURVE",
"109 606 CURVE SMOOTH",
"109 418 LINE SMOOTH",
"109 299 OFFCURVE",
"186 238 OFFCURVE",
"300 238 CURVE SMOOTH",
"378 238 OFFCURVE",
"431 275 OFFCURVE",
"461 343 CURVE",
"464 343 LINE",
"462 311 OFFCURVE",
"461 278 OFFCURVE",
"461 246 CURVE SMOOTH",
"461 0 LINE"
);
}
);
width = 604;
},
{
layerId = "C91144B6-58F5-45F2-9CE4-7ED6CE127FD4";
name = "Light Condensed";
paths = (
{
closed = 1;
nodes = (
"412 0 LINE",
"412 714 LINE",
"304 714 LINE",
"304 694 LINE",
"334 694 LINE",
"380 694 OFFCURVE",
"384 683 OFFCURVE",
"384 609 CURVE SMOOTH",
"384 399 LINE SMOOTH",
"384 332 OFFCURVE",
"322 263 OFFCURVE",
"233 263 CURVE SMOOTH",
"157 263 OFFCURVE",
"116 308 OFFCURVE",
"116 413 CURVE SMOOTH",
"116 714 LINE",
"20 714 LINE",
"20 694 LINE",
"40 694 LINE",
"86 694 OFFCURVE",
"90 683 OFFCURVE",
"90 609 CURVE SMOOTH",
"90 401 LINE SMOOTH",
"90 296 OFFCURVE",
"138 238 OFFCURVE",
"231 238 CURVE SMOOTH",
"289 238 OFFCURVE",
"349 264 OFFCURVE",
"382 330 CURVE",
"386 330 LINE",
"385 309 OFFCURVE",
"384 289 OFFCURVE",
"384 268 CURVE SMOOTH",
"384 0 LINE"
);
}
);
width = 512;
},
{
layerId = "E7C4F5EE-4982-479C-BF20-1C8706EFFC5D";
name = Condensed;
paths = (
{
closed = 1;
nodes = (
"447 0 LINE",
"447 714 LINE",
"308 714 LINE",
"308 678 LINE",
"322 678 LINE SMOOTH",
"364 678 OFFCURVE",
"382 663 OFFCURVE",
"382 601 CURVE SMOOTH",
"382 406 LINE SMOOTH",
"382 345 OFFCURVE",
"328 288 OFFCURVE",
"251 288 CURVE SMOOTH",
"181 288 OFFCURVE",
"149 324 OFFCURVE",
"149 418 CURVE SMOOTH",
"149 714 LINE",
"18 714 LINE",
"18 679 LINE",
"33 679 LINE SMOOTH",
"72 679 OFFCURVE",
"84 663 OFFCURVE",
"84 594 CURVE SMOOTH",
"84 408 LINE",
"84 296 OFFCURVE",
"137 238 OFFCURVE",
"233 238 CURVE SMOOTH",
"290 238 OFFCURVE",
"347 264 OFFCURVE",
"381 325 CURVE",
"385 325 LINE",
"383 303 OFFCURVE",
"382 282 OFFCURVE",
"382 261 CURVE SMOOTH",
"382 0 LINE"
);
}
);
width = 541;
},
{
layerId = "75A83886-EED5-4C31-9670-660514D8A4F6";
name = "Bold Condensed";
paths = (
{
closed = 1;
nodes = (
"563 0 LINE",
"563 714 LINE",
"317 714 LINE",
"317 658 LINE",
"340 658 LINE",
"370 658 OFFCURVE",
"393 641 OFFCURVE",
"393 589 CURVE SMOOTH",
"393 418 LINE SMOOTH",
"393 372 OFFCURVE",
"362 326 OFFCURVE",
"317 326 CURVE SMOOTH",
"267 326 OFFCURVE",
"252 362 OFFCURVE",
"252 422 CURVE SMOOTH",
"252 714 LINE",
"12 714 LINE",
"12 658 LINE",
"28 658 LINE",
"58 658 OFFCURVE",
"82 641 OFFCURVE",
"82 589 CURVE SMOOTH",
"82 420 LINE SMOOTH",
"82 286 OFFCURVE",
"149 230 OFFCURVE",
"254 230 CURVE SMOOTH",
"309 230 OFFCURVE",
"357 254 OFFCURVE",
"393 302 CURVE",
"397 302 LINE",
"394 278 OFFCURVE",
"393 254 OFFCURVE",
"393 230 CURVE SMOOTH",
"393 0 LINE"
);
}
);
width = 649;
}
);
note = uni10B7;
rightKerningGroup = uni10A1;
unicode = 10B7;
},
{
color = 5;
glyphname = uni10B8;
lastChange = "2015-09-23 11:12:30 +0000";
layers = (
{
layerId = "5E7FF211-9823-4E5B-BC80-AC4B3CA4BC69";
name = Regular;
paths = (
{
closed = 1;
nodes = (
"486 -10 OFFCURVE",
"566 70 OFFCURVE",
"566 223 CURVE SMOOTH",
"566 714 LINE",
"370 714 LINE",
"370 672 LINE",
"383 672 LINE SMOOTH",
"434 672 OFFCURVE",
"465 659 OFFCURVE",
"465 604 CURVE SMOOTH",
"465 533 LINE SMOOTH",
"465 424 OFFCURVE",
"417 372 OFFCURVE",
"319 372 CURVE SMOOTH",
"237 372 OFFCURVE",
"191 424 OFFCURVE",
"191 533 CURVE SMOOTH",
"191 714 LINE",
"20 714 LINE",
"20 672 LINE",
"28 672 LINE SMOOTH",
"71 672 OFFCURVE",
"90 643 OFFCURVE",
"90 604 CURVE SMOOTH",
"90 533 LINE SMOOTH",
"90 397 OFFCURVE",
"168 318 OFFCURVE",
"303 318 CURVE SMOOTH",
"379 318 OFFCURVE",
"433 342 OFFCURVE",
"464 389 CURVE",
"469 389 LINE",
"466 360 OFFCURVE",
"465 332 OFFCURVE",
"465 304 CURVE SMOOTH",
"465 226 LINE SMOOTH",
"465 109 OFFCURVE",
"417 44 OFFCURVE",
"328 44 CURVE SMOOTH",
"236 44 OFFCURVE",
"191 91 OFFCURVE",
"191 200 CURVE SMOOTH",
"191 239 LINE",
"90 239 LINE",
"90 187 LINE SMOOTH",
"90 63 OFFCURVE",
"178 -10 OFFCURVE",
"332 -10 CURVE SMOOTH"
);
}
);
width = 666;
},
{
layerId = "101C8DBD-EDBB-4DB6-972E-FA2DBA854B69";
name = SemiBold;
paths = (
{
closed = 1;
nodes = (
"559 -10 OFFCURVE",
"654 67 OFFCURVE",
"654 218 CURVE SMOOTH",
"654 714 LINE",
"391 714 LINE",
"391 661 LINE",
"439 661 LINE SMOOTH",
"482 661 OFFCURVE",
"496 641 OFFCURVE",
"496 600 CURVE SMOOTH",
"496 544 LINE SMOOTH",
"496 443 OFFCURVE",
"457 392 OFFCURVE",
"378 392 CURVE SMOOTH",
"292 392 OFFCURVE",
"258 440 OFFCURVE",
"258 550 CURVE SMOOTH",
"258 714 LINE",
"16 714 LINE",
"16 661 LINE",
"49 661 LINE SMOOTH",
"86 661 OFFCURVE",
"100 642 OFFCURVE",
"100 600 CURVE SMOOTH",
"100 547 LINE SMOOTH",
"100 389 OFFCURVE",
"176 308 OFFCURVE",
"319 308 CURVE SMOOTH",
"404 308 OFFCURVE",
"460 332 OFFCURVE",
"497 388 CURVE",
"504 388 LINE",
"499 327 OFFCURVE",
"496 287 OFFCURVE",
"496 267 CURVE SMOOTH",
"496 210 LINE SMOOTH",
"496 111 OFFCURVE",
"457 61 OFFCURVE",
"377 61 CURVE SMOOTH",
"295 61 OFFCURVE",
"258 105 OFFCURVE",
"258 210 CURVE SMOOTH",
"258 240 LINE",
"100 240 LINE",
"100 218 LINE SMOOTH",
"100 65 OFFCURVE",
"190 -10 OFFCURVE",
"380 -10 CURVE SMOOTH"
);
}
);
width = 734;
},
{
layerId = "5E7C5774-385D-4E06-B68E-CBE970134A7B";
name = SemiLight;
paths = (
{
closed = 1;
nodes = (
"454 -10 OFFCURVE",
"535 57 OFFCURVE",
"535 216 CURVE SMOOTH",
"535 714 LINE",
"375 714 LINE",
"375 679 LINE",
"408 679 LINE SMOOTH",
"455 679 OFFCURVE",
"471 656 OFFCURVE",
"471 610 CURVE SMOOTH",
"471 521 LINE SMOOTH",
"471 421 OFFCURVE",
"423 335 OFFCURVE",
"308 335 CURVE SMOOTH",
"229 335 OFFCURVE",
"174 387 OFFCURVE",
"174 488 CURVE SMOOTH",
"174 714 LINE",
"38 714 LINE",
"38 679 LINE",
"47 679 LINE SMOOTH",
"94 679 OFFCURVE",
"110 658 OFFCURVE",
"110 603 CURVE SMOOTH",
"110 487 LINE SMOOTH",
"110 360 OFFCURVE",
"184 298 OFFCURVE",
"297 298 CURVE SMOOTH",
"389 298 OFFCURVE",
"439 333 OFFCURVE",
"470 394 CURVE",
"474 394 LINE",
"472 363 OFFCURVE",
"471 331 OFFCURVE",
"471 299 CURVE SMOOTH",
"471 207 LINE SMOOTH",
"471 84 OFFCURVE",
"417 26 OFFCURVE",
"323 26 CURVE SMOOTH",
"219 26 OFFCURVE",
"174 96 OFFCURVE",
"174 203 CURVE SMOOTH",
"174 232 LINE",
"110 232 LINE",
"110 209 LINE SMOOTH",
"110 74 OFFCURVE",
"180 -10 OFFCURVE",
"323 -10 CURVE SMOOTH"
);
}
);
width = 641;
},
{
layerId = "1D4F67F9-897D-45AD-B7F0-CA61A6862C03";
name = Light;
paths = (
{
closed = 1;
nodes = (
"419 -10 OFFCURVE",
"493 51 OFFCURVE",
"493 214 CURVE SMOOTH",
"493 714 LINE",
"366 714 LINE",
"366 694 LINE",
"409 694 LINE SMOOTH",
"459 694 OFFCURVE",
"465 669 OFFCURVE",
"465 616 CURVE SMOOTH",
"465 537 LINE SMOOTH",
"465 424 OFFCURVE",
"415 333 OFFCURVE",
"302 333 CURVE SMOOTH",
"203 333 OFFCURVE",
"141 394 OFFCURVE",
"141 488 CURVE SMOOTH",
"141 714 LINE",
"24 714 LINE",
"24 694 LINE",
"57 694 LINE SMOOTH",
"107 694 OFFCURVE",
"113 683 OFFCURVE",
"113 606 CURVE SMOOTH",
"113 488 LINE SMOOTH",
"113 369 OFFCURVE",
"190 308 OFFCURVE",
"304 308 CURVE SMOOTH",
"382 308 OFFCURVE",
"435 345 OFFCURVE",
"465 413 CURVE",
"468 413 LINE",
"466 381 OFFCURVE",
"465 348 OFFCURVE",
"465 316 CURVE SMOOTH",
"465 210 LINE SMOOTH",
"465 76 OFFCURVE",
"406 15 OFFCURVE",
"304 15 CURVE SMOOTH",
"187 15 OFFCURVE",
"141 106 OFFCURVE",
"141 219 CURVE SMOOTH",
"141 246 LINE",
"113 246 LINE",
"113 218 LINE SMOOTH",
"113 88 OFFCURVE",
"171 -10 OFFCURVE",
"303 -10 CURVE SMOOTH"
);
}
);
width = 603;
},
{
layerId = "75A83886-EED5-4C31-9670-660514D8A4F6";
name = "Bold Condensed";
paths = (
{
closed = 1;
nodes = (
"473 -10 OFFCURVE",
"567 54 OFFCURVE",
"567 218 CURVE SMOOTH",
"567 714 LINE",
"321 714 LINE",
"321 658 LINE",
"344 658 LINE SMOOTH",
"374 658 OFFCURVE",
"397 641 OFFCURVE",
"397 589 CURVE SMOOTH",
"397 468 LINE SMOOTH",
"397 422 OFFCURVE",
"366 376 OFFCURVE",
"321 376 CURVE SMOOTH",
"271 376 OFFCURVE",
"256 412 OFFCURVE",
"256 472 CURVE SMOOTH",
"256 714 LINE",
"16 714 LINE",
"16 658 LINE",
"32 658 LINE SMOOTH",
"62 658 OFFCURVE",
"86 641 OFFCURVE",
"86 589 CURVE SMOOTH",
"86 470 LINE SMOOTH",
"86 336 OFFCURVE",
"153 280 OFFCURVE",
"258 280 CURVE SMOOTH",
"313 280 OFFCURVE",
"361 304 OFFCURVE",
"397 352 CURVE",
"401 352 LINE",
"398 328 OFFCURVE",
"397 304 OFFCURVE",
"397 280 CURVE SMOOTH",
"397 210 LINE SMOOTH",
"397 99 OFFCURVE",
"378 64 OFFCURVE",
"324 64 CURVE SMOOTH",
"281 64 OFFCURVE",
"256 101 OFFCURVE",
"256 186 CURVE SMOOTH",
"256 204 LINE",
"86 204 LINE",
"86 184 LINE SMOOTH",
"86 70 OFFCURVE",
"148 -10 OFFCURVE",
"322 -10 CURVE SMOOTH"
);
}
);
width = 645;
},
{
layerId = "C91144B6-58F5-45F2-9CE4-7ED6CE127FD4";
name = "Light Condensed";
paths = (
{
closed = 1;
nodes = (
"348 0 OFFCURVE",
"412 55 OFFCURVE",
"412 214 CURVE SMOOTH",
"412 714 LINE",
"304 714 LINE",
"304 694 LINE",
"334 694 LINE SMOOTH",
"380 694 OFFCURVE",
"384 683 OFFCURVE",
"384 609 CURVE SMOOTH",
"384 459 LINE SMOOTH",
"384 392 OFFCURVE",
"322 323 OFFCURVE",
"233 323 CURVE SMOOTH",
"157 323 OFFCURVE",
"118 368 OFFCURVE",
"118 473 CURVE SMOOTH",
"118 714 LINE",
"20 714 LINE",
"20 694 LINE",
"40 694 LINE SMOOTH",
"86 694 OFFCURVE",
"90 683 OFFCURVE",
"90 609 CURVE SMOOTH",
"90 461 LINE SMOOTH",
"90 356 OFFCURVE",
"138 298 OFFCURVE",
"231 298 CURVE SMOOTH",
"289 298 OFFCURVE",
"349 324 OFFCURVE",
"382 390 CURVE",
"386 390 LINE",
"385 369 OFFCURVE",
"384 349 OFFCURVE",
"384 328 CURVE SMOOTH",
"384 210 LINE SMOOTH",
"384 74 OFFCURVE",
"332 25 OFFCURVE",
"253 25 CURVE SMOOTH",
"153 25 OFFCURVE",
"118 104 OFFCURVE",
"118 192 CURVE SMOOTH",
"118 234 LINE",
"90 234 LINE",
"90 190 LINE SMOOTH",
"90 79 OFFCURVE",
"142 0 OFFCURVE",
"254 0 CURVE SMOOTH"
);
}
);
width = 492;
},
{
layerId = "E7C4F5EE-4982-479C-BF20-1C8706EFFC5D";
name = Condensed;
paths = (
{
closed = 1;
nodes = (
"382 -10 OFFCURVE",
"453 45 OFFCURVE",
"453 205 CURVE SMOOTH",
"453 714 LINE",
"314 714 LINE",
"314 678 LINE",
"328 678 LINE SMOOTH",
"370 678 OFFCURVE",
"388 663 OFFCURVE",
"388 601 CURVE SMOOTH",
"388 456 LINE SMOOTH",
"388 395 OFFCURVE",
"334 338 OFFCURVE",
"257 338 CURVE SMOOTH",
"187 338 OFFCURVE",
"155 374 OFFCURVE",
"155 468 CURVE SMOOTH",
"155 714 LINE",
"24 714 LINE",
"24 679 LINE",
"39 679 LINE SMOOTH",
"78 679 OFFCURVE",
"90 663 OFFCURVE",
"90 594 CURVE SMOOTH",
"90 458 LINE SMOOTH",
"90 346 OFFCURVE",
"143 288 OFFCURVE",
"239 288 CURVE SMOOTH",
"296 288 OFFCURVE",
"353 314 OFFCURVE",
"387 375 CURVE",
"391 375 LINE",
"389 353 OFFCURVE",
"388 332 OFFCURVE",
"388 311 CURVE SMOOTH",
"388 200 LINE SMOOTH",
"388 70 OFFCURVE",
"345 37 OFFCURVE",
"273 37 CURVE SMOOTH",
"187 37 OFFCURVE",
"155 103 OFFCURVE",
"155 196 CURVE SMOOTH",
"155 212 LINE",
"90 212 LINE",
"90 194 LINE SMOOTH",
"90 77 OFFCURVE",
"144 -10 OFFCURVE",
"273 -10 CURVE SMOOTH"
);
}
);
width = 535;
}
);
note = uni10B8;
unicode = 10B8;
},
{
color = 5;
glyphname = uni10B9;
lastChange = "2015-09-23 11:12:30 +0000";
layers = (
{
layerId = "5E7FF211-9823-4E5B-BC80-AC4B3CA4BC69";
name = Regular;
paths = (
{
closed = 1;
nodes = (
"211 0 LINE",
"211 331 LINE SMOOTH",
"211 438 OFFCURVE",
"260 492 OFFCURVE",
"357 492 CURVE SMOOTH",
"438 492 OFFCURVE",
"485 440 OFFCURVE",
"485 331 CURVE SMOOTH",
"485 0 LINE",
"586 0 LINE",
"586 331 LINE SMOOTH",
"586 466 OFFCURVE",
"507 546 OFFCURVE",
"373 546 CURVE SMOOTH",
"294 546 OFFCURVE",
"235 520 OFFCURVE",
"212 475 CURVE",
"207 475 LINE",
"209 513 OFFCURVE",
"211 541 OFFCURVE",
"211 560 CURVE SMOOTH",
"211 714 LINE",
"15 714 LINE",
"15 672 LINE",
"28 672 LINE SMOOTH",
"79 672 OFFCURVE",
"110 659 OFFCURVE",
"110 604 CURVE SMOOTH",
"110 0 LINE"
);
}
);
width = 666;
},
{
layerId = "101C8DBD-EDBB-4DB6-972E-FA2DBA854B69";
name = SemiBold;
paths = (
{
closed = 1;
nodes = (
"263 0 LINE",
"263 310 LINE SMOOTH",
"263 411 OFFCURVE",
"302 462 OFFCURVE",
"381 462 CURVE SMOOTH",
"466 462 OFFCURVE",
"501 414 OFFCURVE",
"501 304 CURVE SMOOTH",
"501 0 LINE",
"659 0 LINE",
"659 307 LINE SMOOTH",
"659 463 OFFCURVE",
"584 546 OFFCURVE",
"440 546 CURVE SMOOTH",
"354 546 OFFCURVE",
"297 521 OFFCURVE",
"262 466 CURVE",
"255 466 LINE",
"260 531 OFFCURVE",
"263 571 OFFCURVE",
"263 587 CURVE SMOOTH",
"263 714 LINE",
"22 714 LINE",
"22 661 LINE",
"54 661 LINE SMOOTH",
"93 661 OFFCURVE",
"105 641 OFFCURVE",
"105 596 CURVE SMOOTH",
"105 0 LINE"
);
}
);
width = 734;
},
{
layerId = "5E7C5774-385D-4E06-B68E-CBE970134A7B";
name = SemiLight;
paths = (
{
closed = 1;
nodes = (
"195 0 LINE",
"195 323 LINE SMOOTH",
"195 423 OFFCURVE",
"243 495 OFFCURVE",
"358 495 CURVE SMOOTH",
"437 495 OFFCURVE",
"492 457 OFFCURVE",
"492 356 CURVE SMOOTH",
"492 0 LINE",
"556 0 LINE",
"556 357 LINE SMOOTH",
"556 484 OFFCURVE",
"482 546 OFFCURVE",
"369 546 CURVE SMOOTH",
"277 546 OFFCURVE",
"227 511 OFFCURVE",
"196 450 CURVE",
"192 450 LINE",
"194 481 OFFCURVE",
"195 513 OFFCURVE",
"195 545 CURVE SMOOTH",
"195 714 LINE",
"39 714 LINE",
"39 679 LINE",
"68 679 LINE SMOOTH",
"115 679 OFFCURVE",
"131 658 OFFCURVE",
"131 603 CURVE SMOOTH",
"131 0 LINE"
);
}
);
width = 642;
},
{
layerId = "1D4F67F9-897D-45AD-B7F0-CA61A6862C03";
name = Light;
paths = (
{
closed = 1;
nodes = (
"167 0 LINE",
"167 313 LINE SMOOTH",
"167 426 OFFCURVE",
"227 517 OFFCURVE",
"340 517 CURVE SMOOTH",
"439 517 OFFCURVE",
"491 456 OFFCURVE",
"491 362 CURVE SMOOTH",
"491 0 LINE",
"519 0 LINE",
"519 362 LINE SMOOTH",
"519 481 OFFCURVE",
"452 542 OFFCURVE",
"338 542 CURVE SMOOTH",
"260 542 OFFCURVE",
"197 498 OFFCURVE",
"167 430 CURVE",
"164 430 LINE",
"166 462 OFFCURVE",
"167 495 OFFCURVE",
"167 527 CURVE SMOOTH",
"167 714 LINE",
"40 714 LINE",
"40 694 LINE",
"83 694 LINE SMOOTH",
"133 694 OFFCURVE",
"139 683 OFFCURVE",
"139 606 CURVE SMOOTH",
"139 0 LINE"
);
}
);
width = 607;
},
{
layerId = "75A83886-EED5-4C31-9670-660514D8A4F6";
name = "Bold Condensed";
paths = (
{
closed = 1;
nodes = (
"256 0 LINE",
"256 362 LINE SMOOTH",
"256 408 OFFCURVE",
"287 454 OFFCURVE",
"332 454 CURVE SMOOTH",
"382 454 OFFCURVE",
"397 418 OFFCURVE",
"397 358 CURVE SMOOTH",
"397 0 LINE",
"567 0 LINE",
"567 360 LINE SMOOTH",
"567 494 OFFCURVE",
"500 550 OFFCURVE",
"395 550 CURVE SMOOTH",
"340 550 OFFCURVE",
"292 526 OFFCURVE",
"256 478 CURVE",
"252 478 LINE",
"255 502 OFFCURVE",
"256 526 OFFCURVE",
"256 550 CURVE SMOOTH",
"256 714 LINE",
"16 714 LINE",
"16 658 LINE",
"42 658 LINE",
"72 658 OFFCURVE",
"86 651 OFFCURVE",
"86 599 CURVE SMOOTH",
"86 0 LINE"
);
}
);
width = 629;
},
{
layerId = "C91144B6-58F5-45F2-9CE4-7ED6CE127FD4";
name = "Light Condensed";
paths = (
{
closed = 1;
nodes = (
"133 0 LINE",
"133 381 LINE SMOOTH",
"133 448 OFFCURVE",
"195 517 OFFCURVE",
"284 517 CURVE SMOOTH",
"360 517 OFFCURVE",
"399 472 OFFCURVE",
"399 367 CURVE SMOOTH",
"399 0 LINE",
"427 0 LINE",
"427 379 LINE SMOOTH",
"427 484 OFFCURVE",
"379 542 OFFCURVE",
"286 542 CURVE SMOOTH",
"228 542 OFFCURVE",
"168 516 OFFCURVE",
"135 450 CURVE",
"131 450 LINE",
"132 471 OFFCURVE",
"133 491 OFFCURVE",
"133 512 CURVE SMOOTH",
"133 714 LINE",
"35 714 LINE",
"35 694 LINE",
"55 694 LINE",
"101 694 OFFCURVE",
"105 683 OFFCURVE",
"105 609 CURVE SMOOTH",
"105 0 LINE"
);
}
);
width = 509;
},
{
layerId = "E7C4F5EE-4982-479C-BF20-1C8706EFFC5D";
name = Condensed;
paths = (
{
closed = 1;
nodes = (
"165 0 LINE",
"165 376 LINE SMOOTH",
"165 437 OFFCURVE",
"219 494 OFFCURVE",
"296 494 CURVE SMOOTH",
"366 494 OFFCURVE",
"398 458 OFFCURVE",
"398 364 CURVE SMOOTH",
"398 0 LINE",
"463 0 LINE",
"463 374 LINE",
"463 486 OFFCURVE",
"410 544 OFFCURVE",
"314 544 CURVE SMOOTH",
"257 544 OFFCURVE",
"200 518 OFFCURVE",
"166 457 CURVE",
"162 457 LINE",
"164 479 OFFCURVE",
"165 500 OFFCURVE",
"165 521 CURVE SMOOTH",
"165 714 LINE",
"34 714 LINE",
"34 679 LINE",
"49 679 LINE SMOOTH",
"88 679 OFFCURVE",
"100 663 OFFCURVE",
"100 594 CURVE SMOOTH",
"100 0 LINE"
);
}
);
width = 541;
}
);
leftKerningGroup = uni10B9;
note = uni10B9;
unicode = 10B9;
},
{
color = 5;
glyphname = uni10BA;
lastChange = "2015-09-23 11:12:30 +0000";
layers = (
{
layerId = "5E7FF211-9823-4E5B-BC80-AC4B3CA4BC69";
name = Regular;
paths = (
{
closed = 1;
nodes = (
"419 -177 OFFCURVE",
"468 -130 OFFCURVE",
"517 -54 CURVE SMOOTH",
"560 12 OFFCURVE",
"576 68 OFFCURVE",
"576 102 CURVE SMOOTH",
"576 120 OFFCURVE",
"570 133 OFFCURVE",
"557 141 CURVE",
"510 77 OFFCURVE",
"450 50 OFFCURVE",
"376 50 CURVE SMOOTH",
"243 50 OFFCURVE",
"168 158 OFFCURVE",
"168 358 CURVE SMOOTH",
"168 573 OFFCURVE",
"235 671 OFFCURVE",
"376 671 CURVE SMOOTH",
"448 671 OFFCURVE",
"493 622 OFFCURVE",
"493 542 CURVE",
"544 542 OFFCURVE",
"580 571 OFFCURVE",
"580 612 CURVE SMOOTH",
"580 681 OFFCURVE",
"505 724 OFFCURVE",
"378 724 CURVE SMOOTH",
"172 724 OFFCURVE",
"57 579 OFFCURVE",
"57 358 CURVE SMOOTH",
"57 128 OFFCURVE",
"169 -10 OFFCURVE",
"361 -10 CURVE SMOOTH",
"409 -10 OFFCURVE",
"454 -1 OFFCURVE",
"491 17 CURVE",
"452 -47 OFFCURVE",
"408 -78 OFFCURVE",
"370 -78 CURVE SMOOTH",
"355 -78 OFFCURVE",
"339 -72 OFFCURVE",
"322 -61 CURVE",
"313 -79 OFFCURVE",
"308 -98 OFFCURVE",
"308 -116 CURVE SMOOTH",
"308 -151 OFFCURVE",
"334 -177 OFFCURVE",
"363 -177 CURVE SMOOTH"
);
}
);
width = 614;
},
{
layerId = "101C8DBD-EDBB-4DB6-972E-FA2DBA854B69";
name = SemiBold;
paths = (
{
closed = 1;
nodes = (
"431 -195 OFFCURVE",
"480 -178 OFFCURVE",
"531 -115 CURVE SMOOTH",
"591 -40 OFFCURVE",
"627 42 OFFCURVE",
"627 122 CURVE SMOOTH",
"627 139 OFFCURVE",
"620 157 OFFCURVE",
"610 165 CURVE",
"563 102 OFFCURVE",
"501 70 OFFCURVE",
"425 70 CURVE SMOOTH",
"284 70 OFFCURVE",
"223 155 OFFCURVE",
"223 358 CURVE SMOOTH",
"223 569 OFFCURVE",
"275 660 OFFCURVE",
"393 660 CURVE SMOOTH",
"462 660 OFFCURVE",
"503 605 OFFCURVE",
"503 521 CURVE",
"581 521 OFFCURVE",
"628 555 OFFCURVE",
"628 608 CURVE SMOOTH",
"628 680 OFFCURVE",
"541 724 OFFCURVE",
"400 724 CURVE SMOOTH",
"183 724 OFFCURVE",
"55 585 OFFCURVE",
"55 358 CURVE SMOOTH",
"55 126 OFFCURVE",
"180 -10 OFFCURVE",
"401 -10 CURVE SMOOTH",
"451 -10 OFFCURVE",
"494 -3 OFFCURVE",
"531 10 CURVE",
"505 -48 OFFCURVE",
"446 -87 OFFCURVE",
"383 -87 CURVE SMOOTH",
"360 -87 OFFCURVE",
"343 -79 OFFCURVE",
"331 -63 CURVE",
"325 -71 OFFCURVE",
"320 -98 OFFCURVE",
"320 -115 CURVE SMOOTH",
"320 -164 OFFCURVE",
"350 -195 OFFCURVE",
"399 -195 CURVE SMOOTH"
);
}
);
width = 668;
},
{
background = {
paths = (
{
closed = 1;
nodes = (
"470 -10 OFFCURVE",
"543 53 OFFCURVE",
"543 94 CURVE SMOOTH",
"543 109 OFFCURVE",
"537 120 OFFCURVE",
"527 126 CURVE",
"493 75 OFFCURVE",
"444 37 OFFCURVE",
"347 37 CURVE SMOOTH",
"199 37 OFFCURVE",
"132 164 OFFCURVE",
"132 358 CURVE SMOOTH",
"132 554 OFFCURVE",
"199 678 OFFCURVE",
"347 678 CURVE SMOOTH",
"453 678 OFFCURVE",
"491 619 OFFCURVE",
"491 555 CURVE",
"520 555 OFFCURVE",
"548 576 OFFCURVE",
"548 611 CURVE SMOOTH",
"548 671 OFFCURVE",
"474 724 OFFCURVE",
"357 724 CURVE SMOOTH",
"158 724 OFFCURVE",
"57 581 OFFCURVE",
"57 358 CURVE SMOOTH",
"57 137 OFFCURVE",
"155 -10 OFFCURVE",
"336 -10 CURVE SMOOTH"
);
},
{
closed = 1;
nodes = (
"372 -156 OFFCURVE",
"408 -140 OFFCURVE",
"447 -99 CURVE SMOOTH",
"483 -62 OFFCURVE",
"543 14 OFFCURVE",
"543 94 CURVE",
"493 66 LINE",
"475 -11 OFFCURVE",
"410 -93 OFFCURVE",
"352 -93 CURVE SMOOTH",
"336 -93 OFFCURVE",
"319 -87 OFFCURVE",
"302 -73 CURVE",
"296 -85 OFFCURVE",
"292 -98 OFFCURVE",
"292 -110 CURVE SMOOTH",
"292 -140 OFFCURVE",
"313 -156 OFFCURVE",
"342 -156 CURVE SMOOTH"
);
}
);
};
layerId = "5E7C5774-385D-4E06-B68E-CBE970134A7B";
name = SemiLight;
paths = (
{
closed = 1;
nodes = (
"372 -156 OFFCURVE",
"408 -140 OFFCURVE",
"463 -83 CURVE SMOOTH",
"506 -38 OFFCURVE",
"543 38 OFFCURVE",
"543 94 CURVE SMOOTH",
"543 109 OFFCURVE",
"537 120 OFFCURVE",
"527 126 CURVE",
"493 75 OFFCURVE",
"444 37 OFFCURVE",
"347 37 CURVE SMOOTH",
"199 37 OFFCURVE",
"132 164 OFFCURVE",
"132 358 CURVE SMOOTH",
"132 554 OFFCURVE",
"199 678 OFFCURVE",
"347 678 CURVE SMOOTH",
"453 678 OFFCURVE",
"491 619 OFFCURVE",
"491 555 CURVE",
"520 555 OFFCURVE",
"548 576 OFFCURVE",
"548 611 CURVE SMOOTH",
"548 671 OFFCURVE",
"474 724 OFFCURVE",
"357 724 CURVE SMOOTH",
"158 724 OFFCURVE",
"57 581 OFFCURVE",
"57 358 CURVE SMOOTH",
"57 137 OFFCURVE",
"155 -10 OFFCURVE",
"336 -10 CURVE SMOOTH",
"395 -10 OFFCURVE",
"449 5 OFFCURVE",
"484 23 CURVE",
"456 -38 OFFCURVE",
"407 -98 OFFCURVE",
"352 -98 CURVE SMOOTH",
"332 -98 OFFCURVE",
"315 -92 OFFCURVE",
"302 -78 CURVE",
"296 -90 OFFCURVE",
"292 -103 OFFCURVE",
"292 -115 CURVE SMOOTH",
"292 -145 OFFCURVE",
"313 -156 OFFCURVE",
"342 -156 CURVE SMOOTH"
);
}
);
width = 582;
},
{
background = {
paths = (
{
closed = 1;
nodes = (
"452 -10 OFFCURVE",
"510 65 OFFCURVE",
"510 86 CURVE SMOOTH",
"510 96 OFFCURVE",
"506 106 OFFCURVE",
"497 111 CURVE",
"473 59 OFFCURVE",
"422 15 OFFCURVE",
"323 15 CURVE SMOOTH",
"162 15 OFFCURVE",
"85 147 OFFCURVE",
"85 358 CURVE SMOOTH",
"85 566 OFFCURVE",
"166 699 OFFCURVE",
"318 699 CURVE SMOOTH",
"457 699 OFFCURVE",
"495 650 OFFCURVE",
"495 568 CURVE",
"509 568 OFFCURVE",
"516 583 OFFCURVE",
"516 610 CURVE SMOOTH",
"516 666 OFFCURVE",
"464 724 OFFCURVE",
"324 724 CURVE SMOOTH",
"149 724 OFFCURVE",
"57 588 OFFCURVE",
"57 358 CURVE SMOOTH",
"57 131 OFFCURVE",
"145 -10 OFFCURVE",
"324 -10 CURVE SMOOTH"
);
},
{
closed = 1;
nodes = (
"448 -41 OFFCURVE",
"381 -98 OFFCURVE",
"334 -98 CURVE SMOOTH",
"314 -98 OFFCURVE",
"299 -93 OFFCURVE",
"291 -87 CURVE",
"286 -94 OFFCURVE",
"283 -103 OFFCURVE",
"283 -112 CURVE SMOOTH",
"283 -134 OFFCURVE",
"301 -140 OFFCURVE",
"319 -140 CURVE SMOOTH",
"340 -140 OFFCURVE",
"377 -127 OFFCURVE",
"406 -102 CURVE SMOOTH",
"481 -36 OFFCURVE",
"510 26 OFFCURVE",
"510 86 CURVE",
"481 46 LINE"
);
}
);
};
layerId = "1D4F67F9-897D-45AD-B7F0-CA61A6862C03";
name = Light;
paths = (
{
closed = 1;
nodes = (
"340 -135 OFFCURVE",
"387 -124 OFFCURVE",
"438 -74 CURVE SMOOTH",
"484 -29 OFFCURVE",
"510 36 OFFCURVE",
"510 86 CURVE SMOOTH",
"510 96 OFFCURVE",
"506 106 OFFCURVE",
"497 111 CURVE",
"473 59 OFFCURVE",
"422 15 OFFCURVE",
"323 15 CURVE SMOOTH",
"162 15 OFFCURVE",
"85 147 OFFCURVE",
"85 358 CURVE SMOOTH",
"85 566 OFFCURVE",
"166 699 OFFCURVE",
"318 699 CURVE SMOOTH",
"457 699 OFFCURVE",
"495 650 OFFCURVE",
"495 568 CURVE",
"509 568 OFFCURVE",
"516 583 OFFCURVE",
"516 610 CURVE SMOOTH",
"516 666 OFFCURVE",
"464 724 OFFCURVE",
"324 724 CURVE SMOOTH",
"149 724 OFFCURVE",
"57 588 OFFCURVE",
"57 358 CURVE SMOOTH",
"57 131 OFFCURVE",
"145 -10 OFFCURVE",
"324 -10 CURVE SMOOTH",
"399 -10 OFFCURVE",
"450 16 OFFCURVE",
"479 41 CURVE",
"450 -49 OFFCURVE",
"374 -106 OFFCURVE",
"328 -106 CURVE SMOOTH",
"308 -106 OFFCURVE",
"299 -101 OFFCURVE",
"291 -90 CURVE",
"286 -97 OFFCURVE",
"283 -103 OFFCURVE",
"283 -112 CURVE SMOOTH",
"283 -129 OFFCURVE",
"301 -135 OFFCURVE",
"319 -135 CURVE SMOOTH"
);
}
);
width = 550;
},
{
background = {
paths = (
{
closed = 1;
nodes = (
"517 -10 OFFCURVE",
"555 71 OFFCURVE",
"555 128 CURVE SMOOTH",
"555 143 OFFCURVE",
"550 163 OFFCURVE",
"542 172 CURVE",
"514 126 OFFCURVE",
"467 71 OFFCURVE",
"378 71 CURVE SMOOTH",
"261 71 OFFCURVE",
"221 157 OFFCURVE",
"221 358 CURVE SMOOTH",
"221 548 OFFCURVE",
"248 657 OFFCURVE",
"339 657 CURVE SMOOTH",
"406 657 OFFCURVE",
"426 583 OFFCURVE",
"426 516 CURVE",
"513 516 OFFCURVE",
"554 555 OFFCURVE",
"554 606 CURVE SMOOTH",
"554 671 OFFCURVE",
"486 724 OFFCURVE",
"348 724 CURVE SMOOTH",
"149 724 OFFCURVE",
"45 575 OFFCURVE",
"45 358 CURVE SMOOTH",
"45 137 OFFCURVE",
"146 -10 OFFCURVE",
"349 -10 CURVE SMOOTH"
);
},
{
closed = 1;
nodes = (
"450 -37 OFFCURVE",
"396 -86 OFFCURVE",
"343 -86 CURVE SMOOTH",
"318 -86 OFFCURVE",
"292 -78 OFFCURVE",
"273 -63 CURVE",
"252 -89 OFFCURVE",
"241 -110 OFFCURVE",
"241 -138 CURVE SMOOTH",
"241 -162 OFFCURVE",
"249 -184 OFFCURVE",
"267 -199 CURVE SMOOTH",
"280 -209 OFFCURVE",
"299 -214 OFFCURVE",
"319 -214 CURVE SMOOTH",
"355 -214 OFFCURVE",
"414 -193 OFFCURVE",
"452 -146 CURVE SMOOTH",
"519 -63 OFFCURVE",
"555 45 OFFCURVE",
"555 128 CURVE",
"474 72 LINE"
);
}
);
};
layerId = "75A83886-EED5-4C31-9670-660514D8A4F6";
name = "Bold Condensed";
paths = (
{
closed = 1;
nodes = (
"355 -214 OFFCURVE",
"419 -191 OFFCURVE",
"475 -116 CURVE SMOOTH",
"528 -45 OFFCURVE",
"555 45 OFFCURVE",
"555 128 CURVE SMOOTH",
"555 143 OFFCURVE",
"550 163 OFFCURVE",
"542 172 CURVE",
"514 126 OFFCURVE",
"467 71 OFFCURVE",
"378 71 CURVE SMOOTH",
"261 71 OFFCURVE",
"221 157 OFFCURVE",
"221 358 CURVE SMOOTH",
"221 548 OFFCURVE",
"248 657 OFFCURVE",
"339 657 CURVE SMOOTH",
"406 657 OFFCURVE",
"426 583 OFFCURVE",
"426 516 CURVE",
"513 516 OFFCURVE",
"554 555 OFFCURVE",
"554 606 CURVE SMOOTH",
"554 671 OFFCURVE",
"486 724 OFFCURVE",
"348 724 CURVE SMOOTH",
"149 724 OFFCURVE",
"45 575 OFFCURVE",
"45 358 CURVE SMOOTH",
"45 137 OFFCURVE",
"146 -10 OFFCURVE",
"349 -10 CURVE SMOOTH",
"391 -10 OFFCURVE",
"425 -5 OFFCURVE",
"452 3 CURVE",
"424 -68 OFFCURVE",
"383 -96 OFFCURVE",
"343 -96 CURVE SMOOTH",
"318 -96 OFFCURVE",
"292 -88 OFFCURVE",
"273 -73 CURVE",
"252 -99 OFFCURVE",
"241 -120 OFFCURVE",
"241 -148 CURVE SMOOTH",
"241 -186 OFFCURVE",
"267 -214 OFFCURVE",
"319 -214 CURVE SMOOTH"
);
}
);
width = 591;
},
{
background = {
paths = (
{
closed = 1;
nodes = (
"339 -10 OFFCURVE",
"399 48 OFFCURVE",
"399 84 CURVE SMOOTH",
"399 99 OFFCURVE",
"394 107 OFFCURVE",
"386 112 CURVE",
"364 55 OFFCURVE",
"328 15 OFFCURVE",
"254 15 CURVE SMOOTH",
"131 15 OFFCURVE",
"72 162 OFFCURVE",
"72 358 CURVE SMOOTH",
"72 553 OFFCURVE",
"130 699 OFFCURVE",
"256 699 CURVE SMOOTH",
"345 699 OFFCURVE",
"382 650 OFFCURVE",
"382 566 CURVE",
"395 566 OFFCURVE",
"403 582 OFFCURVE",
"403 612 CURVE SMOOTH",
"403 671 OFFCURVE",
"348 724 OFFCURVE",
"257 724 CURVE SMOOTH",
"118 724 OFFCURVE",
"44 583 OFFCURVE",
"44 358 CURVE SMOOTH",
"44 137 OFFCURVE",
"117 -10 OFFCURVE",
"254 -10 CURVE SMOOTH"
);
},
{
closed = 1;
nodes = (
"334 -42 OFFCURVE",
"291 -88 OFFCURVE",
"254 -88 CURVE SMOOTH",
"244 -88 OFFCURVE",
"233 -84 OFFCURVE",
"221 -77 CURVE",
"216 -88 OFFCURVE",
"213 -98 OFFCURVE",
"213 -107 CURVE SMOOTH",
"213 -129 OFFCURVE",
"231 -140 OFFCURVE",
"246 -140 CURVE SMOOTH",
"260 -140 OFFCURVE",
"279 -129 OFFCURVE",
"306 -102 CURVE SMOOTH",
"338 -70 OFFCURVE",
"399 23 OFFCURVE",
"399 83 CURVE SMOOTH",
"372 49 LINE"
);
}
);
};
layerId = "C91144B6-58F5-45F2-9CE4-7ED6CE127FD4";
name = "Light Condensed";
paths = (
{
closed = 1;
nodes = (
"267 -128 OFFCURVE",
"301 -115 OFFCURVE",
"339 -66 CURVE SMOOTH",
"375 -20 OFFCURVE",
"399 34 OFFCURVE",
"399 84 CURVE SMOOTH",
"399 99 OFFCURVE",
"394 107 OFFCURVE",
"386 112 CURVE",
"364 55 OFFCURVE",
"328 15 OFFCURVE",
"254 15 CURVE SMOOTH",
"131 15 OFFCURVE",
"72 162 OFFCURVE",
"72 358 CURVE SMOOTH",
"72 553 OFFCURVE",
"130 699 OFFCURVE",
"256 699 CURVE SMOOTH",
"345 699 OFFCURVE",
"382 650 OFFCURVE",
"382 566 CURVE",
"395 566 OFFCURVE",
"403 582 OFFCURVE",
"403 612 CURVE SMOOTH",
"403 671 OFFCURVE",
"348 724 OFFCURVE",
"257 724 CURVE SMOOTH",
"118 724 OFFCURVE",
"44 583 OFFCURVE",
"44 358 CURVE SMOOTH",
"44 137 OFFCURVE",
"117 -10 OFFCURVE",
"254 -10 CURVE SMOOTH",
"299 -10 OFFCURVE",
"338 6 OFFCURVE",
"365 29 CURVE",
"337 -47 OFFCURVE",
"287 -100 OFFCURVE",
"250 -100 CURVE SMOOTH",
"237 -100 OFFCURVE",
"229 -96 OFFCURVE",
"221 -86 CURVE",
"215 -93 OFFCURVE",
"213 -99 OFFCURVE",
"213 -108 CURVE SMOOTH",
"213 -119 OFFCURVE",
"223 -128 OFFCURVE",
"241 -128 CURVE SMOOTH"
);
}
);
width = 427;
},
{
background = {
paths = (
{
closed = 1;
nodes = (
"379 -10 OFFCURVE",
"434 53 OFFCURVE",
"434 94 CURVE SMOOTH",
"434 109 OFFCURVE",
"429 120 OFFCURVE",
"421 126 CURVE",
"391 76 OFFCURVE",
"356 37 OFFCURVE",
"280 37 CURVE SMOOTH",
"166 37 OFFCURVE",
"116 164 OFFCURVE",
"116 358 CURVE SMOOTH",
"116 554 OFFCURVE",
"164 678 OFFCURVE",
"275 678 CURVE SMOOTH",
"355 678 OFFCURVE",
"383 619 OFFCURVE",
"383 555 CURVE",
"413 555 OFFCURVE",
"437 576 OFFCURVE",
"437 611 CURVE SMOOTH",
"437 671 OFFCURVE",
"379 724 OFFCURVE",
"283 724 CURVE SMOOTH",
"125 724 OFFCURVE",
"44 581 OFFCURVE",
"44 358 CURVE SMOOTH",
"44 137 OFFCURVE",
"123 -10 OFFCURVE",
"269 -10 CURVE SMOOTH"
);
},
{
closed = 1;
nodes = (
"282 -136 OFFCURVE",
"312 -128 OFFCURVE",
"348 -99 CURVE SMOOTH",
"396 -60 OFFCURVE",
"432 16 OFFCURVE",
"434 94 CURVE",
"389 65 LINE",
"379 -21 OFFCURVE",
"325 -73 OFFCURVE",
"267 -73 CURVE SMOOTH",
"251 -73 OFFCURVE",
"234 -67 OFFCURVE",
"217 -53 CURVE",
"211 -65 OFFCURVE",
"207 -78 OFFCURVE",
"207 -90 CURVE SMOOTH",
"207 -120 OFFCURVE",
"235 -136 OFFCURVE",
"264 -136 CURVE SMOOTH"
);
}
);
};
layerId = "E7C4F5EE-4982-479C-BF20-1C8706EFFC5D";
name = Condensed;
paths = (
{
closed = 1;
nodes = (
"282 -136 OFFCURVE",
"322 -130 OFFCURVE",
"365 -85 CURVE SMOOTH",
"413 -34 OFFCURVE",
"434 28 OFFCURVE",
"434 94 CURVE SMOOTH",
"434 109 OFFCURVE",
"429 120 OFFCURVE",
"421 126 CURVE",
"391 76 OFFCURVE",
"356 37 OFFCURVE",
"280 37 CURVE SMOOTH",
"166 37 OFFCURVE",
"116 164 OFFCURVE",
"116 358 CURVE SMOOTH",
"116 554 OFFCURVE",
"164 678 OFFCURVE",
"275 678 CURVE SMOOTH",
"355 678 OFFCURVE",
"383 619 OFFCURVE",
"383 555 CURVE",
"413 555 OFFCURVE",
"437 576 OFFCURVE",
"437 611 CURVE SMOOTH",
"437 671 OFFCURVE",
"379 724 OFFCURVE",
"283 724 CURVE SMOOTH",
"125 724 OFFCURVE",
"44 581 OFFCURVE",
"44 358 CURVE SMOOTH",
"44 137 OFFCURVE",
"123 -10 OFFCURVE",
"269 -10 CURVE SMOOTH",
"315 -10 OFFCURVE",
"351 1 OFFCURVE",
"378 17 CURVE",
"357 -40 OFFCURVE",
"313 -78 OFFCURVE",
"267 -78 CURVE SMOOTH",
"248 -78 OFFCURVE",
"231 -72 OFFCURVE",
"217 -58 CURVE",
"210 -70 OFFCURVE",
"207 -83 OFFCURVE",
"207 -95 CURVE SMOOTH",
"207 -125 OFFCURVE",
"235 -136 OFFCURVE",
"264 -136 CURVE SMOOTH"
);
}
);
width = 464;
}
);
leftKerningGroup = uni10A7;
note = uni10BA;
unicode = 10BA;
},
{
color = 5;
glyphname = uni10BB;
lastChange = "2015-09-23 11:12:30 +0000";
layers = (
{
layerId = "5E7FF211-9823-4E5B-BC80-AC4B3CA4BC69";
name = Regular;
paths = (
{
closed = 1;
nodes = (
"443 -10 OFFCURVE",
"521 68 OFFCURVE",
"521 225 CURVE SMOOTH",
"521 390 LINE",
"529 390 LINE SMOOTH",
"611 390 OFFCURVE",
"644 348 OFFCURVE",
"644 252 CURVE",
"691 252 OFFCURVE",
"722 276 OFFCURVE",
"722 321 CURVE SMOOTH",
"722 406 OFFCURVE",
"659 444 OFFCURVE",
"562 444 CURVE SMOOTH",
"521 444 LINE",
"521 714 LINE",
"325 714 LINE",
"325 672 LINE",
"338 672 LINE SMOOTH",
"389 672 OFFCURVE",
"420 659 OFFCURVE",
"420 604 CURVE SMOOTH",
"420 444 LINE",
"297 444 LINE SMOOTH",
"121 444 OFFCURVE",
"38 373 OFFCURVE",
"38 220 CURVE SMOOTH",
"38 72 OFFCURVE",
"127 -10 OFFCURVE",
"287 -10 CURVE SMOOTH"
);
},
{
closed = 1;
nodes = (
"190 44 OFFCURVE",
"146 101 OFFCURVE",
"146 214 CURVE SMOOTH",
"146 332 OFFCURVE",
"202 390 OFFCURVE",
"293 390 CURVE SMOOTH",
"420 390 LINE",
"420 225 LINE SMOOTH",
"420 104 OFFCURVE",
"375 44 OFFCURVE",
"283 44 CURVE SMOOTH"
);
}
);
width = 742;
},
{
layerId = "101C8DBD-EDBB-4DB6-972E-FA2DBA854B69";
name = SemiBold;
paths = (
{
closed = 1;
nodes = (
"478 -10 OFFCURVE",
"566 72 OFFCURVE",
"566 237 CURVE SMOOTH",
"566 390 LINE",
"574 390 LINE",
"638 390 OFFCURVE",
"671 339 OFFCURVE",
"671 258 CURVE",
"740 258 OFFCURVE",
"791 294 OFFCURVE",
"791 342 CURVE SMOOTH",
"791 413 OFFCURVE",
"731 452 OFFCURVE",
"621 452 CURVE SMOOTH",
"566 452 LINE",
"566 714 LINE",
"315 714 LINE",
"315 661 LINE",
"357 661 LINE SMOOTH",
"396 661 OFFCURVE",
"408 641 OFFCURVE",
"408 600 CURVE SMOOTH",
"408 452 LINE",
"345 452 LINE SMOOTH",
"138 452 OFFCURVE",
"30 373 OFFCURVE",
"30 218 CURVE SMOOTH",
"30 73 OFFCURVE",
"126 -10 OFFCURVE",
"301 -10 CURVE SMOOTH"
);
},
{
closed = 1;
nodes = (
"233 55 OFFCURVE",
"198 109 OFFCURVE",
"198 218 CURVE SMOOTH",
"198 338 OFFCURVE",
"228 387 OFFCURVE",
"341 387 CURVE SMOOTH",
"408 387 LINE",
"408 230 LINE SMOOTH",
"408 115 OFFCURVE",
"372 55 OFFCURVE",
"303 55 CURVE SMOOTH"
);
}
);
width = 806;
},
{
layerId = "5E7C5774-385D-4E06-B68E-CBE970134A7B";
name = SemiLight;
paths = (
{
closed = 1;
nodes = (
"429 -10 OFFCURVE",
"491 76 OFFCURVE",
"491 218 CURVE SMOOTH",
"491 387 LINE",
"511 387 LINE SMOOTH",
"588 387 OFFCURVE",
"601 365 OFFCURVE",
"601 291 CURVE",
"635 291 OFFCURVE",
"654 309 OFFCURVE",
"654 339 CURVE SMOOTH",
"654 395 OFFCURVE",
"619 423 OFFCURVE",
"518 423 CURVE SMOOTH",
"491 423 LINE",
"491 714 LINE",
"331 714 LINE",
"331 679 LINE",
"335 679 LINE SMOOTH",
"391 679 OFFCURVE",
"427 669 OFFCURVE",
"427 603 CURVE",
"427 423 LINE",
"328 423 LINE SMOOTH",
"159 423 OFFCURVE",
"50 346 OFFCURVE",
"50 208 CURVE SMOOTH",
"50 64 OFFCURVE",
"128 -10 OFFCURVE",
"274 -10 CURVE SMOOTH"
);
},
{
closed = 1;
nodes = (
"167 26 OFFCURVE",
"117 91 OFFCURVE",
"117 209 CURVE SMOOTH",
"117 330 OFFCURVE",
"209 387 OFFCURVE",
"334 387 CURVE SMOOTH",
"428 387 LINE",
"428 194 LINE SMOOTH",
"428 96 OFFCURVE",
"394 26 OFFCURVE",
"276 26 CURVE SMOOTH"
);
}
);
width = 674;
},
{
layerId = "1D4F67F9-897D-45AD-B7F0-CA61A6862C03";
name = Light;
paths = (
{
closed = 1;
nodes = (
"398 -10 OFFCURVE",
"449 73 OFFCURVE",
"449 212 CURVE SMOOTH",
"449 391 LINE",
"484 391 LINE SMOOTH",
"550 391 OFFCURVE",
"578 366 OFFCURVE",
"578 310 CURVE",
"597 310 OFFCURVE",
"608 321 OFFCURVE",
"608 340 CURVE SMOOTH",
"608 389 OFFCURVE",
"581 416 OFFCURVE",
"477 416 CURVE SMOOTH",
"449 416 LINE",
"449 714 LINE",
"320 714 LINE",
"320 694 LINE",
"365 694 LINE SMOOTH",
"415 694 OFFCURVE",
"421 683 OFFCURVE",
"421 606 CURVE",
"421 416 LINE",
"320 416 LINE SMOOTH",
"154 416 OFFCURVE",
"46 338 OFFCURVE",
"46 195 CURVE SMOOTH",
"46 57 OFFCURVE",
"118 -10 OFFCURVE",
"252 -10 CURVE SMOOTH"
);
},
{
closed = 1;
nodes = (
"130 15 OFFCURVE",
"74 76 OFFCURVE",
"74 196 CURVE SMOOTH",
"74 326 OFFCURVE",
"176 391 OFFCURVE",
"320 391 CURVE SMOOTH",
"421 391 LINE",
"421 192 LINE SMOOTH",
"421 90 OFFCURVE",
"388 15 OFFCURVE",
"253 15 CURVE SMOOTH"
);
}
);
width = 633;
},
{
layerId = "75A83886-EED5-4C31-9670-660514D8A4F6";
name = "Bold Condensed";
paths = (
{
closed = 1;
nodes = (
"432 -10 OFFCURVE",
"526 54 OFFCURVE",
"526 218 CURVE SMOOTH",
"526 381 LINE",
"544 381 LINE SMOOTH",
"600 381 OFFCURVE",
"636 347 OFFCURVE",
"636 239 CURVE",
"711 239 OFFCURVE",
"750 279 OFFCURVE",
"750 338 CURVE SMOOTH",
"750 415 OFFCURVE",
"666 447 OFFCURVE",
"535 447 CURVE SMOOTH",
"526 447 LINE",
"526 714 LINE",
"283 714 LINE",
"283 658 LINE",
"319 658 LINE SMOOTH",
"341 658 OFFCURVE",
"359 643 OFFCURVE",
"359 601 CURVE SMOOTH",
"359 447 LINE",
"297 447 LINE SMOOTH",
"115 447 OFFCURVE",
"42 387 OFFCURVE",
"42 223 CURVE SMOOTH",
"42 83 OFFCURVE",
"110 -10 OFFCURVE",
"279 -10 CURVE SMOOTH"
);
},
{
closed = 1;
nodes = (
"237 64 OFFCURVE",
"209 114 OFFCURVE",
"209 225 CURVE SMOOTH",
"209 343 OFFCURVE",
"234 381 OFFCURVE",
"294 381 CURVE SMOOTH",
"359 381 LINE",
"359 218 LINE SMOOTH",
"359 101 OFFCURVE",
"337 64 OFFCURVE",
"281 64 CURVE SMOOTH"
);
}
);
width = 760;
},
{
layerId = "C91144B6-58F5-45F2-9CE4-7ED6CE127FD4";
name = "Light Condensed";
paths = (
{
closed = 1;
nodes = (
"305 -10 OFFCURVE",
"369 55 OFFCURVE",
"369 214 CURVE SMOOTH",
"369 396 LINE",
"401 396 LINE SMOOTH",
"442 396 OFFCURVE",
"459 381 OFFCURVE",
"459 315 CURVE",
"476 315 OFFCURVE",
"486 326 OFFCURVE",
"486 345 CURVE SMOOTH",
"486 404 OFFCURVE",
"450 421 OFFCURVE",
"406 421 CURVE SMOOTH",
"369 421 LINE",
"369 714 LINE",
"260 714 LINE",
"260 694 LINE",
"285 694 LINE SMOOTH",
"335 694 OFFCURVE",
"341 683 OFFCURVE",
"341 606 CURVE",
"341 421 LINE",
"230 421 LINE SMOOTH",
"100 421 OFFCURVE",
"48 325 OFFCURVE",
"48 207 CURVE SMOOTH",
"48 90 OFFCURVE",
"100 -10 OFFCURVE",
"212 -10 CURVE SMOOTH"
);
},
{
closed = 1;
nodes = (
"111 15 OFFCURVE",
"76 116 OFFCURVE",
"76 207 CURVE SMOOTH",
"76 299 OFFCURVE",
"111 396 OFFCURVE",
"229 396 CURVE SMOOTH",
"341 396 LINE",
"341 205 LINE SMOOTH",
"341 68 OFFCURVE",
"289 15 OFFCURVE",
"211 15 CURVE SMOOTH"
);
}
);
width = 496;
},
{
layerId = "E7C4F5EE-4982-479C-BF20-1C8706EFFC5D";
name = Condensed;
paths = (
{
closed = 1;
nodes = (
"336 -10 OFFCURVE",
"407 55 OFFCURVE",
"407 215 CURVE SMOOTH",
"407 389 LINE",
"434 389 LINE SMOOTH",
"477 389 OFFCURVE",
"502 367 OFFCURVE",
"502 291 CURVE",
"534 291 OFFCURVE",
"552 318 OFFCURVE",
"552 347 CURVE SMOOTH",
"552 414 OFFCURVE",
"500 432 OFFCURVE",
"437 432 CURVE SMOOTH",
"407 432 LINE",
"407 714 LINE",
"269 714 LINE",
"269 679 LINE",
"276 679 LINE SMOOTH",
"316 679 OFFCURVE",
"343 669 OFFCURVE",
"343 607 CURVE",
"343 432 LINE",
"228 432 LINE SMOOTH",
"103 432 OFFCURVE",
"46 351 OFFCURVE",
"46 213 CURVE SMOOTH",
"46 89 OFFCURVE",
"102 -10 OFFCURVE",
"228 -10 CURVE SMOOTH"
);
},
{
closed = 1;
nodes = (
"143 37 OFFCURVE",
"110 117 OFFCURVE",
"110 213 CURVE SMOOTH",
"110 318 OFFCURVE",
"142 389 OFFCURVE",
"228 389 CURVE SMOOTH",
"343 389 LINE",
"343 211 LINE SMOOTH",
"343 78 OFFCURVE",
"299 37 OFFCURVE",
"228 37 CURVE SMOOTH"
);
}
);
width = 562;
}
);
leftKerningGroup = uni10BB;
note = uni10BB;
rightKerningGroup = uni10A5;
unicode = 10BB;
},
